CSLSans-Medium.ufo
<glyph name="exclam" format="2">
  <advance width="298"/>
  <unicode hex="0021"/>
  <outline>
    <contour>
      <point x="124" y="200" type="line"/>
      <point x="89" y="499" type="line"/>
      <point x="89" y="698" type="line"/>
      <point x="207" y="698" type="line"/>
      <point x="207" y="499" type="line"/>
      <point x="174" y="200" type="line"/>
    </contour>
    <contour>
      <point x="149" y="-12" type="qcurve" smooth="yes"/>
      <point x="111" y="-12"/>
      <point x="76" y="25"/>
      <point x="76" y="54" type="qcurve" smooth="yes"/>
      <point x="76" y="71" type="line" smooth="yes"/>
      <point x="76" y="100"/>
      <point x="111" y="137"/>
      <point x="149" y="137" type="qcurve" smooth="yes"/>
      <point x="187" y="137"/>
      <point x="222" y="100"/>
      <point x="222" y="71" type="qcurve" smooth="yes"/>
      <point x="222" y="54" type="line" smooth="yes"/>
      <point x="222" y="25"/>
      <point x="187" y="-12"/>
    </contour>
  </outline>
</glyph>
<glyph name="percent" format="2">
  <advance width="947"/>
  <unicode hex="0025"/>
  <outline>
    <contour>
      <point x="282" y="0" type="line"/>
      <point x="766" y="698" type="line"/>
      <point x="665" y="698" type="line"/>
      <point x="181" y="0" type="line"/>
    </contour>
    <contour>
      <point x="226" y="314" type="qcurve"/>
      <point x="388" y="314"/>
      <point x="393" y="512" type="qcurve"/>
      <point x="393" y="706"/>
      <point x="226" y="710" type="qcurve"/>
      <point x="64" y="710"/>
      <point x="59" y="512" type="qcurve"/>
      <point x="59" y="319"/>
    </contour>
    <contour>
      <point x="226" y="381" type="qcurve"/>
      <point x="156" y="381"/>
      <point x="155" y="484" type="qcurve"/>
      <point x="155" y="540" type="line"/>
      <point x="155" y="643"/>
      <point x="225" y="643" type="qcurve"/>
      <point x="297" y="643"/>
      <point x="297" y="540" type="qcurve"/>
      <point x="297" y="484" type="line"/>
      <point x="297" y="381"/>
    </contour>
    <contour>
      <point x="721" y="-12" type="qcurve"/>
      <point x="883" y="-12"/>
      <point x="888" y="186" type="qcurve"/>
      <point x="888" y="380"/>
      <point x="721" y="384" type="qcurve"/>
      <point x="559" y="384"/>
      <point x="554" y="186" type="qcurve"/>
      <point x="554" y="-7"/>
    </contour>
    <contour>
      <point x="721" y="55" type="qcurve"/>
      <point x="651" y="55"/>
      <point x="650" y="158" type="qcurve"/>
      <point x="650" y="214" type="line"/>
      <point x="650" y="317"/>
      <point x="720" y="317" type="qcurve"/>
      <point x="792" y="317"/>
      <point x="792" y="214" type="qcurve"/>
      <point x="792" y="158" type="line"/>
      <point x="792" y="55"/>
    </contour>
  </outline>
</glyph>
<glyph name="ampersand" format="2">
  <advance width="707"/>
  <unicode hex="0026"/>
  <outline>
    <contour>
      <point x="287" y="-12" type="qcurve"/>
      <point x="339" y="-12"/>
      <point x="417" y="15"/>
      <point x="472" y="53"/>
      <point x="489" y="71" type="qcurve"/>
      <point x="554" y="0" type="line"/>
      <point x="690" y="0" type="line"/>
      <point x="553" y="148" type="line"/>
      <point x="584" y="207"/>
      <point x="599" y="283" type="qcurve"/>
      <point x="667" y="283" type="line"/>
      <point x="667" y="375" type="line"/>
      <point x="518" y="375" type="line"/>
      <point x="514" y="291"/>
      <point x="486" y="218" type="qcurve"/>
      <point x="350" y="365" type="line"/>
      <point x="392" y="389"/>
      <point x="460" y="443"/>
      <point x="502" y="511"/>
      <point x="502" y="556" type="qcurve"/>
      <point x="502" y="630"/>
      <point x="393" y="710"/>
      <point x="317" y="710" type="qcurve"/>
      <point x="230" y="710"/>
      <point x="126" y="614"/>
      <point x="126" y="542" type="qcurve"/>
      <point x="126" y="460"/>
      <point x="205" y="378" type="qcurve"/>
      <point x="143" y="346"/>
      <point x="63" y="252"/>
      <point x="63" y="182" type="qcurve"/>
      <point x="63" y="97"/>
      <point x="182" y="-12"/>
    </contour>
    <contour>
      <point x="295" y="425" type="qcurve"/>
      <point x="257" y="466"/>
      <point x="231" y="514"/>
      <point x="231" y="545" type="qcurve"/>
      <point x="231" y="580"/>
      <point x="281" y="623"/>
      <point x="317" y="623" type="qcurve"/>
      <point x="353" y="623"/>
      <point x="397" y="585"/>
      <point x="397" y="550" type="qcurve"/>
      <point x="397" y="542" type="line"/>
      <point x="397" y="505"/>
      <point x="338" y="448"/>
    </contour>
    <contour>
      <point x="300" y="81" type="qcurve"/>
      <point x="175" y="81"/>
      <point x="175" y="199" type="qcurve"/>
      <point x="175" y="244"/>
      <point x="221" y="297"/>
      <point x="260" y="317" type="qcurve"/>
      <point x="430" y="134" type="line"/>
      <point x="379" y="81"/>
    </contour>
  </outline>
</glyph>
<glyph name="quotesingle" format="2">
  <advance width="253"/>
  <unicode hex="0027"/>
  <outline>
    <contour>
      <point x="175" y="440" type="line"/>
      <point x="175" y="740" type="line"/>
      <point x="78" y="740" type="line"/>
      <point x="78" y="440" type="line"/>
    </contour>
  </outline>
</glyph>
<glyph name="parenright" format="2">
  <advance width="336"/>
  <unicode hex="0029"/>
  <outline>
    <contour>
      <point x="95" y="-138" type="line"/>
      <point x="169" y="-73"/>
      <point x="273" y="163"/>
      <point x="273" y="311" type="qcurve"/>
      <point x="273" y="459"/>
      <point x="169" y="695"/>
      <point x="95" y="760" type="qcurve"/>
      <point x="-8" y="760" type="line"/>
      <point x="78" y="679"/>
      <point x="170" y="461"/>
      <point x="170" y="351" type="qcurve"/>
      <point x="170" y="271" type="line"/>
      <point x="170" y="155"/>
      <point x="72" y="-65"/>
      <point x="-8" y="-138" type="qcurve"/>
    </contour>
  </outline>
</glyph>
<glyph name="comma" format="2">
  <advance width="289"/>
  <unicode hex="002C"/>
  <outline>
    <contour>
      <point x="120" y="-138" type="line"/>
      <point x="166" y="-100"/>
      <point x="218" y="6"/>
      <point x="218" y="55" type="qcurve"/>
      <point x="218" y="71" type="line"/>
      <point x="218" y="101"/>
      <point x="182" y="139"/>
      <point x="145" y="139" type="qcurve"/>
      <point x="108" y="139"/>
      <point x="72" y="101"/>
      <point x="72" y="71" type="qcurve"/>
      <point x="72" y="55" type="line"/>
      <point x="72" y="31"/>
      <point x="98" y="-3"/>
      <point x="124" y="-9" type="qcurve"/>
      <point x="103" y="-78"/>
      <point x="39" y="-138" type="qcurve"/>
    </contour>
  </outline>
</glyph>
<glyph name="two" format="2">
  <advance width="600"/>
  <unicode hex="0032"/>
  <outline>
    <contour>
      <point x="541" y="0" type="line"/>
      <point x="541" y="96" type="line"/>
      <point x="189" y="96" type="line"/>
      <point x="353" y="237" type="line"/>
      <point x="399" y="277"/>
      <point x="474" y="355"/>
      <point x="520" y="445"/>
      <point x="520" y="503" type="qcurve"/>
      <point x="520" y="561"/>
      <point x="470" y="655"/>
      <point x="370" y="710"/>
      <point x="296" y="710" type="qcurve"/>
      <point x="226" y="710"/>
      <point x="131" y="662"/>
      <point x="72" y="585"/>
      <point x="57" y="540" type="qcurve"/>
      <point x="156" y="502" type="line"/>
      <point x="182" y="612"/>
      <point x="287" y="612" type="qcurve"/>
      <point x="339" y="612"/>
      <point x="400" y="554"/>
      <point x="400" y="503" type="qcurve"/>
      <point x="400" y="448"/>
      <point x="353" y="363"/>
      <point x="290" y="307" type="qcurve"/>
      <point x="67" y="108" type="line"/>
      <point x="67" y="0" type="line"/>
    </contour>
  </outline>
</glyph>
<glyph name="three" format="2">
  <advance width="600"/>
  <unicode hex="0033"/>
  <outline>
    <contour>
      <point x="271" y="-12" type="qcurve"/>
      <point x="387" y="-12"/>
      <point x="520" y="103"/>
      <point x="520" y="192" type="qcurve"/>
      <point x="520" y="269"/>
      <point x="435" y="353"/>
      <point x="374" y="365" type="qcurve"/>
      <point x="374" y="370" type="line"/>
      <point x="429" y="382"/>
      <point x="508" y="461"/>
      <point x="508" y="530" type="qcurve"/>
      <point x="508" y="615"/>
      <point x="381" y="710"/>
      <point x="281" y="710" type="qcurve"/>
      <point x="195" y="710"/>
      <point x="90" y="644"/>
      <point x="59" y="595" type="qcurve"/>
      <point x="134" y="530" type="line"/>
      <point x="184" y="615"/>
      <point x="278" y="615" type="qcurve"/>
      <point x="329" y="615"/>
      <point x="389" y="564"/>
      <point x="389" y="516" type="qcurve"/>
      <point x="389" y="509" type="line"/>
      <point x="389" y="466"/>
      <point x="327" y="411"/>
      <point x="262" y="411" type="qcurve"/>
      <point x="191" y="411" type="line"/>
      <point x="191" y="315" type="line"/>
      <point x="265" y="315" type="line"/>
      <point x="331" y="315"/>
      <point x="403" y="259"/>
      <point x="403" y="205" type="qcurve"/>
      <point x="403" y="198" type="line"/>
      <point x="403" y="144"/>
      <point x="335" y="83"/>
      <point x="271" y="83" type="qcurve"/>
      <point x="212" y="83"/>
      <point x="140" y="136"/>
      <point x="115" y="178" type="qcurve"/>
      <point x="32" y="113" type="line"/>
      <point x="52" y="81"/>
      <point x="115" y="25"/>
      <point x="207" y="-12"/>
    </contour>
  </outline>
</glyph>
<glyph name="five" format="2">
  <advance width="600"/>
  <unicode hex="0035"/>
  <outline>
    <contour>
      <point x="295" y="-12" type="qcurve"/>
      <point x="378" y="-12"/>
      <point x="488" y="52"/>
      <point x="544" y="160"/>
      <point x="544" y="226" type="qcurve"/>
      <point x="544" y="297"/>
      <point x="486" y="394"/>
      <point x="390" y="444"/>
      <point x="333" y="444" type="qcurve"/>
      <point x="276" y="444"/>
      <point x="211" y="397"/>
      <point x="187" y="353" type="qcurve"/>
      <point x="180" y="353" type="line"/>
      <point x="198" y="600" type="line"/>
      <point x="508" y="600" type="line"/>
      <point x="508" y="698" type="line"/>
      <point x="112" y="698" type="line"/>
      <point x="86" y="309" type="line"/>
      <point x="179" y="296" type="line"/>
      <point x="197" y="318"/>
      <point x="252" y="351"/>
      <point x="297" y="351" type="qcurve"/>
      <point x="426" y="351"/>
      <point x="426" y="211" type="qcurve"/>
      <point x="426" y="151"/>
      <point x="359" y="83"/>
      <point x="297" y="83" type="qcurve"/>
      <point x="240" y="83"/>
      <point x="171" y="135"/>
      <point x="146" y="178" type="qcurve"/>
      <point x="64" y="113" type="line"/>
      <point x="84" y="82"/>
      <point x="144" y="25"/>
      <point x="232" y="-12"/>
    </contour>
  </outline>
</glyph>
<glyph name="six" format="2">
  <advance width="600"/>
  <unicode hex="0036"/>
  <outline>
    <contour>
      <point x="302" y="-12" type="qcurve"/>
      <point x="407" y="-12"/>
      <point x="547" y="114"/>
      <point x="547" y="225" type="qcurve"/>
      <point x="547" y="323"/>
      <point x="432" y="441"/>
      <point x="342" y="441" type="qcurve"/>
      <point x="278" y="441"/>
      <point x="202" y="383"/>
      <point x="180" y="339" type="qcurve"/>
      <point x="173" y="341" type="line"/>
      <point x="198" y="451"/>
      <point x="338" y="615"/>
      <point x="456" y="698" type="qcurve"/>
      <point x="306" y="698" type="line"/>
      <point x="249" y="660"/>
      <point x="135" y="533"/>
      <point x="56" y="363"/>
      <point x="56" y="260" type="qcurve"/>
      <point x="56" y="136"/>
      <point x="187" y="-12"/>
    </contour>
    <contour>
      <point x="302" y="80" type="qcurve"/>
      <point x="241" y="80"/>
      <point x="173" y="145"/>
      <point x="173" y="208" type="qcurve"/>
      <point x="173" y="222" type="line"/>
      <point x="173" y="348"/>
      <point x="302" y="350" type="qcurve"/>
      <point x="363" y="350"/>
      <point x="431" y="285"/>
      <point x="431" y="222" type="qcurve"/>
      <point x="431" y="208" type="line"/>
      <point x="431" y="82"/>
    </contour>
  </outline>
</glyph>
<glyph name="seven" format="2">
  <advance width="600"/>
  <unicode hex="0037"/>
  <outline>
    <contour>
      <point x="290" y="0" type="line"/>
      <point x="171" y="0" type="line"/>
      <point x="424" y="605" type="line"/>
      <point x="63" y="605" type="line"/>
      <point x="63" y="698" type="line"/>
      <point x="536" y="698" type="line"/>
      <point x="536" y="600" type="line"/>
    </contour>
  </outline>
</glyph>
<glyph name="eight" format="2">
  <advance width="600"/>
  <unicode hex="0038"/>
  <outline>
    <contour>
      <point x="300" y="-12" type="qcurve"/>
      <point x="384" y="-12"/>
      <point x="495" y="43"/>
      <point x="550" y="135"/>
      <point x="550" y="190" type="qcurve"/>
      <point x="550" y="260"/>
      <point x="474" y="345"/>
      <point x="410" y="362" type="qcurve"/>
      <point x="410" y="370" type="line"/>
      <point x="465" y="389"/>
      <point x="529" y="471"/>
      <point x="529" y="531" type="qcurve"/>
      <point x="529" y="611"/>
      <point x="410" y="710"/>
      <point x="300" y="710" type="qcurve"/>
      <point x="190" y="710"/>
      <point x="71" y="611"/>
      <point x="71" y="531" type="qcurve"/>
      <point x="71" y="471"/>
      <point x="135" y="389"/>
      <point x="190" y="370" type="qcurve"/>
      <point x="190" y="362" type="line"/>
      <point x="126" y="345"/>
      <point x="50" y="260"/>
      <point x="50" y="190" type="qcurve"/>
      <point x="50" y="101"/>
      <point x="184" y="-12"/>
    </contour>
    <contour>
      <point x="300" y="79" type="qcurve"/>
      <point x="174" y="79"/>
      <point x="168" y="189" type="qcurve"/>
      <point x="168" y="209" type="line"/>
      <point x="168" y="261"/>
      <point x="237" y="319"/>
      <point x="300" y="319" type="qcurve"/>
      <point x="426" y="319"/>
      <point x="432" y="209" type="qcurve"/>
      <point x="432" y="189" type="line"/>
      <point x="432" y="137"/>
      <point x="363" y="79"/>
    </contour>
    <contour>
      <point x="300" y="406" type="qcurve"/>
      <point x="185" y="406"/>
      <point x="181" y="504" type="qcurve"/>
      <point x="181" y="521" type="line"/>
      <point x="181" y="617"/>
      <point x="300" y="619" type="qcurve"/>
      <point x="416" y="619"/>
      <point x="419" y="521" type="qcurve"/>
      <point x="419" y="504" type="line"/>
      <point x="419" y="408"/>
    </contour>
  </outline>
</glyph>
<glyph name="nine" format="2">
  <advance width="600"/>
  <unicode hex="0039"/>
  <outline>
    <contour>
      <point x="294" y="0" type="line"/>
      <point x="353" y="38"/>
      <point x="467" y="167"/>
      <point x="544" y="338"/>
      <point x="544" y="438" type="qcurve"/>
      <point x="544" y="558"/>
      <point x="419" y="710"/>
      <point x="298" y="710" type="qcurve"/>
      <point x="188" y="710"/>
      <point x="53" y="579"/>
      <point x="53" y="473" type="qcurve"/>
      <point x="53" y="376"/>
      <point x="170" y="257"/>
      <point x="258" y="257" type="qcurve"/>
      <point x="325" y="257"/>
      <point x="399" y="317"/>
      <point x="420" y="359" type="qcurve"/>
      <point x="427" y="357" type="line"/>
      <point x="402" y="247"/>
      <point x="262" y="83"/>
      <point x="144" y="0" type="qcurve"/>
    </contour>
    <contour>
      <point x="298" y="348" type="qcurve"/>
      <point x="237" y="348"/>
      <point x="169" y="413"/>
      <point x="169" y="476" type="qcurve"/>
      <point x="169" y="490" type="line"/>
      <point x="169" y="616"/>
      <point x="298" y="618" type="qcurve"/>
      <point x="359" y="618"/>
      <point x="427" y="553"/>
      <point x="427" y="490" type="qcurve"/>
      <point x="427" y="476" type="line"/>
      <point x="427" y="350"/>
    </contour>
  </outline>
</glyph>
<glyph name="question" format="2">
  <advance width="487"/>
  <unicode hex="003F"/>
  <outline>
    <contour>
      <point x="274" y="219" type="line"/>
      <point x="274" y="311" type="line"/>
      <point x="318" y="319"/>
      <point x="400" y="367"/>
      <point x="454" y="452"/>
      <point x="454" y="514" type="qcurve"/>
      <point x="454" y="603"/>
      <point x="338" y="710"/>
      <point x="239" y="710" type="qcurve"/>
      <point x="173" y="710"/>
      <point x="83" y="662"/>
      <point x="30" y="589"/>
      <point x="19" y="549" type="qcurve"/>
      <point x="114" y="511" type="line"/>
      <point x="125" y="557"/>
      <point x="185" y="614"/>
      <point x="235" y="614" type="qcurve"/>
      <point x="282" y="614"/>
      <point x="338" y="563"/>
      <point x="338" y="517" type="qcurve"/>
      <point x="338" y="503" type="line"/>
      <point x="338" y="385"/>
      <point x="170" y="378" type="qcurve"/>
      <point x="170" y="219" type="line"/>
    </contour>
    <contour>
      <point x="223" y="-12" type="qcurve"/>
      <point x="261" y="-12"/>
      <point x="296" y="25"/>
      <point x="296" y="54" type="qcurve"/>
      <point x="296" y="71" type="line"/>
      <point x="296" y="100"/>
      <point x="261" y="137"/>
      <point x="223" y="137" type="qcurve"/>
      <point x="185" y="137"/>
      <point x="150" y="100"/>
      <point x="150" y="71" type="qcurve"/>
      <point x="150" y="54" type="line"/>
      <point x="150" y="25"/>
      <point x="185" y="-12"/>
    </contour>
  </outline>
</glyph>
<glyph name="B" format="2">
  <advance width="659"/>
  <unicode hex="0042"/>
  <outline>
    <contour>
      <point x="426" y="0" type="line"/>
      <point x="507" y="0"/>
      <point x="606" y="120"/>
      <point x="606" y="201" type="qcurve"/>
      <point x="606" y="260"/>
      <point x="556" y="331"/>
      <point x="489" y="363"/>
      <point x="460" y="364" type="qcurve"/>
      <point x="460" y="370" type="line"/>
      <point x="487" y="372"/>
      <point x="543" y="401"/>
      <point x="581" y="464"/>
      <point x="581" y="518" type="qcurve"/>
      <point x="581" y="600"/>
      <point x="482" y="698"/>
      <point x="395" y="698" type="qcurve"/>
      <point x="86" y="698" type="line"/>
      <point x="86" y="0" type="line"/>
    </contour>
    <contour>
      <point x="393" y="97" type="qcurve"/>
      <point x="199" y="97" type="line"/>
      <point x="199" y="309" type="line"/>
      <point x="393" y="309" type="line"/>
      <point x="437" y="309"/>
      <point x="487" y="263"/>
      <point x="487" y="220" type="qcurve"/>
      <point x="487" y="186" type="line"/>
      <point x="487" y="101"/>
    </contour>
    <contour>
      <point x="374" y="403" type="qcurve"/>
      <point x="199" y="403" type="line"/>
      <point x="199" y="601" type="line"/>
      <point x="374" y="601" type="line"/>
      <point x="458" y="601"/>
      <point x="462" y="518" type="qcurve"/>
      <point x="462" y="486" type="line"/>
      <point x="462" y="407"/>
    </contour>
  </outline>
</glyph>
<glyph name="D" format="2">
  <advance width="683"/>
  <unicode hex="0044"/>
  <outline>
    <contour>
      <point x="333" y="0" type="line"/>
      <point x="421" y="0"/>
      <point x="554" y="77"/>
      <point x="628" y="232"/>
      <point x="628" y="349" type="qcurve"/>
      <point x="628" y="470"/>
      <point x="552" y="625"/>
      <point x="418" y="698"/>
      <point x="333" y="698" type="qcurve"/>
      <point x="86" y="698" type="line"/>
      <point x="86" y="0" type="line"/>
    </contour>
    <contour>
      <point x="333" y="100" type="qcurve"/>
      <point x="199" y="100" type="line"/>
      <point x="199" y="598" type="line"/>
      <point x="333" y="598" type="line"/>
      <point x="411" y="598"/>
      <point x="507" y="500"/>
      <point x="507" y="405" type="qcurve"/>
      <point x="507" y="293" type="line"/>
      <point x="507" y="198"/>
      <point x="411" y="100"/>
    </contour>
  </outline>
</glyph>
<glyph name="J" format="2">
  <advance width="531"/>
  <unicode hex="004A"/>
  <outline>
    <contour>
      <point x="237" y="-12" type="qcurve"/>
      <point x="146" y="-12"/>
      <point x="41" y="84"/>
      <point x="27" y="163" type="qcurve"/>
      <point x="131" y="186" type="line"/>
      <point x="150" y="89"/>
      <point x="237" y="89" type="qcurve"/>
      <point x="282" y="89"/>
      <point x="336" y="145"/>
      <point x="336" y="202" type="qcurve"/>
      <point x="336" y="698" type="line"/>
      <point x="449" y="698" type="line"/>
      <point x="449" y="190" type="line"/>
      <point x="449" y="101"/>
      <point x="336" y="-12"/>
    </contour>
  </outline>
</glyph>
<glyph name="O" format="2">
  <advance width="712"/>
  <unicode hex="004F"/>
  <outline>
    <contour>
      <point x="356" y="-12" type="qcurve"/>
      <point x="496" y="-12"/>
      <point x="657" y="177"/>
      <point x="657" y="349" type="qcurve"/>
      <point x="657" y="471"/>
      <point x="579" y="631"/>
      <point x="443" y="710"/>
      <point x="356" y="710" type="qcurve"/>
      <point x="214" y="710"/>
      <point x="55" y="518"/>
      <point x="55" y="349" type="qcurve"/>
      <point x="55" y="180"/>
      <point x="215" y="-12"/>
    </contour>
    <contour>
      <point x="356" y="89" type="qcurve"/>
      <point x="275" y="89"/>
      <point x="176" y="199"/>
      <point x="176" y="294" type="qcurve"/>
      <point x="176" y="404" type="line"/>
      <point x="176" y="496"/>
      <point x="271" y="609"/>
      <point x="356" y="609" type="qcurve"/>
      <point x="437" y="609"/>
      <point x="536" y="502"/>
      <point x="536" y="404" type="qcurve"/>
      <point x="536" y="294" type="line"/>
      <point x="536" y="194"/>
      <point x="433" y="89"/>
    </contour>
  </outline>
</glyph>
<glyph name="Q" format="2">
  <advance width="710"/>
  <unicode hex="0051"/>
  <outline>
    <contour>
      <point x="355" y="-12" type="qcurve" smooth="yes"/>
      <point x="286" y="-12"/>
      <point x="175" y="36"/>
      <point x="97" y="127"/>
      <point x="55" y="262"/>
      <point x="55" y="349" type="qcurve" smooth="yes"/>
      <point x="55" y="434"/>
      <point x="96" y="568"/>
      <point x="174" y="661"/>
      <point x="285" y="710"/>
      <point x="355" y="710" type="qcurve" smooth="yes"/>
      <point x="422" y="710"/>
      <point x="533" y="663"/>
      <point x="612" y="571"/>
      <point x="655" y="436"/>
      <point x="655" y="349" type="qcurve" smooth="yes"/>
      <point x="655" y="262"/>
      <point x="612" y="127"/>
      <point x="573" y="81" type="qcurve" smooth="yes"/>
      <point x="558" y="64"/>
      <point x="542" y="50" type="qcurve"/>
      <point x="574" y="4"/>
      <point x="666" y="4" type="qcurve"/>
      <point x="665" y="-90" type="line"/>
      <point x="604" y="-90"/>
      <point x="519" y="-65"/>
      <point x="491" y="-43" type="qcurve" smooth="yes"/>
      <point x="467" y="-23"/>
      <point x="453" y="2" type="qcurve"/>
      <point x="408" y="-12"/>
    </contour>
    <contour>
      <point x="355" y="82" type="qcurve"/>
      <point x="397" y="83"/>
      <point x="466" y="112"/>
      <point x="514" y="167"/>
      <point x="541" y="244"/>
      <point x="541" y="293" type="qcurve" smooth="yes"/>
      <point x="541" y="397" type="line" smooth="yes"/>
      <point x="541" y="497"/>
      <point x="443" y="615"/>
      <point x="355" y="615" type="qcurve"/>
      <point x="269" y="614"/>
      <point x="168" y="502"/>
      <point x="168" y="405" type="qcurve" smooth="yes"/>
      <point x="168" y="301" type="line" smooth="yes"/>
      <point x="168" y="251"/>
      <point x="194" y="171"/>
      <point x="242" y="113"/>
      <point x="311" y="82"/>
    </contour>
  </outline>
</glyph>
<glyph name="U" format="2">
  <advance width="686"/>
  <unicode hex="0055"/>
  <outline>
    <contour>
      <point x="343" y="-12" type="qcurve" smooth="yes"/>
      <point x="200" y="-12"/>
      <point x="82" y="133"/>
      <point x="82" y="286" type="qcurve" smooth="yes"/>
      <point x="82" y="698" type="line"/>
      <point x="193" y="698" type="line"/>
      <point x="193" y="268" type="line" smooth="yes"/>
      <point x="193" y="179"/>
      <point x="261" y="89"/>
      <point x="343" y="89" type="qcurve" smooth="yes"/>
      <point x="425" y="89"/>
      <point x="493" y="179"/>
      <point x="493" y="268" type="qcurve" smooth="yes"/>
      <point x="493" y="698" type="line"/>
      <point x="604" y="698" type="line"/>
      <point x="604" y="286" type="line" smooth="yes"/>
      <point x="604" y="133"/>
      <point x="486" y="-12"/>
    </contour>
  </outline>
</glyph>
<glyph name="W" format="2">
  <advance width="926"/>
  <unicode hex="0057"/>
  <outline>
    <contour>
      <point x="730" y="0" type="line"/>
      <point x="902" y="698" type="line"/>
      <point x="791" y="698" type="line"/>
      <point x="667" y="131" type="line"/>
      <point x="664" y="131" type="line"/>
      <point x="579" y="487" type="line"/>
      <point x="527" y="698" type="line"/>
      <point x="401" y="698" type="line"/>
      <point x="316" y="352" type="line"/>
      <point x="262" y="130" type="line"/>
      <point x="259" y="130" type="line"/>
      <point x="139" y="698" type="line"/>
      <point x="24" y="698" type="line"/>
      <point x="189" y="0" type="line"/>
      <point x="316" y="0" type="line"/>
      <point x="460" y="573" type="line"/>
      <point x="462" y="573" type="line"/>
      <point x="603" y="0" type="line"/>
    </contour>
  </outline>
</glyph>
<glyph name="c" format="2">
  <advance width="510"/>
  <unicode hex="0063"/>
  <outline>
    <contour>
      <point x="279" y="-12" type="qcurve" smooth="yes"/>
      <point x="172" y="-12"/>
      <point x="43" y="129"/>
      <point x="43" y="260" type="qcurve" smooth="yes"/>
      <point x="43" y="340"/>
      <point x="96" y="462"/>
      <point x="201" y="532"/>
      <point x="279" y="532" type="qcurve" smooth="yes"/>
      <point x="357" y="532"/>
      <point x="457" y="463"/>
      <point x="480" y="404" type="qcurve"/>
      <point x="390" y="362" type="line"/>
      <point x="366" y="441"/>
      <point x="279" y="441" type="qcurve" smooth="yes"/>
      <point x="219" y="441"/>
      <point x="158" y="366"/>
      <point x="158" y="306" type="qcurve" smooth="yes"/>
      <point x="158" y="213" type="line" smooth="yes"/>
      <point x="158" y="153"/>
      <point x="219" y="78"/>
      <point x="279" y="78" type="qcurve" smooth="yes"/>
      <point x="327" y="78"/>
      <point x="384" y="125"/>
      <point x="401" y="164" type="qcurve"/>
      <point x="484" y="120" type="line"/>
      <point x="429" y="-12"/>
    </contour>
  </outline>
</glyph>
<glyph name="l" format="2">
  <advance width="285"/>
  <unicode hex="006C"/>
  <outline>
    <contour>
      <point x="259" y="0" type="line"/>
      <point x="259" y="89" type="line"/>
      <point x="187" y="89" type="line"/>
      <point x="187" y="740" type="line"/>
      <point x="78" y="740" type="line"/>
      <point x="78" y="108" type="line"/>
      <point x="78" y="57"/>
      <point x="133" y="0"/>
      <point x="189" y="0" type="qcurve"/>
    </contour>
  </outline>
</glyph>
<glyph name="m" format="2">
  <advance width="882"/>
  <unicode hex="006D"/>
  <outline>
    <contour>
      <point x="700" y="0" type="line"/>
      <point x="700" y="317" type="line" smooth="yes"/>
      <point x="700" y="377"/>
      <point x="654" y="438"/>
      <point x="604" y="438" type="qcurve" smooth="yes"/>
      <point x="563" y="438"/>
      <point x="498" y="394"/>
      <point x="498" y="349" type="qcurve" smooth="yes"/>
      <point x="498" y="0" type="line"/>
      <point x="389" y="0" type="line"/>
      <point x="389" y="317" type="line" smooth="yes"/>
      <point x="389" y="438"/>
      <point x="294" y="438" type="qcurve" smooth="yes"/>
      <point x="252" y="438"/>
      <point x="187" y="393"/>
      <point x="187" y="349" type="qcurve" smooth="yes"/>
      <point x="187" y="0" type="line"/>
      <point x="78" y="0" type="line"/>
      <point x="78" y="520" type="line"/>
      <point x="187" y="520" type="line"/>
      <point x="187" y="434" type="line"/>
      <point x="192" y="434" type="line"/>
      <point x="208" y="476"/>
      <point x="270" y="532"/>
      <point x="331" y="532" type="qcurve" smooth="yes"/>
      <point x="384" y="532"/>
      <point x="466" y="480"/>
      <point x="485" y="426" type="qcurve"/>
      <point x="488" y="426" type="line"/>
      <point x="502" y="471"/>
      <point x="582" y="532"/>
      <point x="645" y="532" type="qcurve" smooth="yes"/>
      <point x="723" y="532"/>
      <point x="809" y="427"/>
      <point x="809" y="330" type="qcurve" smooth="yes"/>
      <point x="809" y="0" type="line"/>
    </contour>
  </outline>
</glyph>
<glyph name="s" format="2">
  <advance width="494"/>
  <unicode hex="0073"/>
  <outline>
    <contour>
      <point x="243" y="-12" type="qcurve"/>
      <point x="336" y="-12"/>
      <point x="449" y="79"/>
      <point x="449" y="155" type="qcurve"/>
      <point x="449" y="218"/>
      <point x="370" y="293"/>
      <point x="284" y="306" type="qcurve"/>
      <point x="236" y="312" type="line"/>
      <point x="194" y="318"/>
      <point x="156" y="349"/>
      <point x="156" y="379" type="qcurve"/>
      <point x="156" y="408"/>
      <point x="199" y="444"/>
      <point x="244" y="444" type="qcurve"/>
      <point x="286" y="444"/>
      <point x="351" y="410"/>
      <point x="371" y="385" type="qcurve"/>
      <point x="438" y="449" type="line"/>
      <point x="404" y="488"/>
      <point x="314" y="532"/>
      <point x="244" y="532" type="qcurve"/>
      <point x="156" y="532"/>
      <point x="51" y="446"/>
      <point x="51" y="372" type="qcurve"/>
      <point x="51" y="236"/>
      <point x="222" y="217" type="qcurve"/>
      <point x="270" y="211" type="line"/>
      <point x="344" y="201"/>
      <point x="344" y="146" type="qcurve"/>
      <point x="344" y="113"/>
      <point x="297" y="76"/>
      <point x="249" y="76" type="qcurve"/>
      <point x="202" y="76"/>
      <point x="131" y="115"/>
      <point x="102" y="150" type="qcurve"/>
      <point x="32" y="86" type="line"/>
      <point x="68" y="40"/>
      <point x="169" y="-12"/>
    </contour>
  </outline>
</glyph>
<glyph name="t" format="2">
  <advance width="365"/>
  <unicode hex="0074"/>
  <outline>
    <contour>
      <point x="317" y="0" type="line"/>
      <point x="317" y="89" type="line"/>
      <point x="216" y="89" type="line"/>
      <point x="216" y="431" type="line"/>
      <point x="325" y="431" type="line"/>
      <point x="325" y="520" type="line"/>
      <point x="216" y="520" type="line"/>
      <point x="216" y="662" type="line"/>
      <point x="118" y="662" type="line"/>
      <point x="118" y="571" type="line"/>
      <point x="118" y="520"/>
      <point x="75" y="520" type="qcurve"/>
      <point x="26" y="520" type="line"/>
      <point x="26" y="431" type="line"/>
      <point x="107" y="431" type="line"/>
      <point x="107" y="113" type="line"/>
      <point x="107" y="59"/>
      <point x="165" y="0"/>
      <point x="222" y="0" type="qcurve"/>
    </contour>
  </outline>
</glyph>
<glyph name="braceleft" format="2">
  <advance width="354"/>
  <unicode hex="007B"/>
  <outline>
    <contour>
      <point x="204" y="-138" type="line" smooth="yes"/>
      <point x="164" y="-138"/>
      <point x="117" y="-89"/>
      <point x="117" y="-48" type="qcurve" smooth="yes"/>
      <point x="117" y="176" type="line" smooth="yes"/>
      <point x="117" y="220"/>
      <point x="62" y="265"/>
      <point x="20" y="265" type="qcurve"/>
      <point x="20" y="358" type="line"/>
      <point x="62" y="358"/>
      <point x="117" y="403"/>
      <point x="117" y="446" type="qcurve" smooth="yes"/>
      <point x="117" y="670" type="line" smooth="yes"/>
      <point x="117" y="711"/>
      <point x="164" y="760"/>
      <point x="204" y="760" type="qcurve" smooth="yes"/>
      <point x="298" y="760" type="line"/>
      <point x="298" y="679" type="line"/>
      <point x="215" y="679" type="line"/>
      <point x="215" y="444" type="line" smooth="yes"/>
      <point x="215" y="397"/>
      <point x="159" y="325"/>
      <point x="116" y="316" type="qcurve"/>
      <point x="116" y="306" type="line"/>
      <point x="159" y="298"/>
      <point x="215" y="227"/>
      <point x="215" y="178" type="qcurve" smooth="yes"/>
      <point x="215" y="-57" type="line"/>
      <point x="298" y="-57" type="line"/>
      <point x="298" y="-138" type="line"/>
    </contour>
  </outline>
</glyph>
<glyph name="asciitilde" format="2">
  <advance width="600"/>
  <unicode hex="007E"/>
  <outline>
    <contour>
      <point x="418" y="226" type="qcurve"/>
      <point x="502" y="226"/>
      <point x="542" y="284" type="qcurve"/>
      <point x="503" y="345" type="line"/>
      <point x="481" y="329"/>
      <point x="445" y="315"/>
      <point x="422" y="315" type="qcurve"/>
      <point x="391" y="315"/>
      <point x="337" y="334"/>
      <point x="310" y="349" type="qcurve"/>
      <point x="277" y="366"/>
      <point x="219" y="385"/>
      <point x="182" y="385" type="qcurve"/>
      <point x="98" y="385"/>
      <point x="58" y="327" type="qcurve"/>
      <point x="97" y="266" type="line"/>
      <point x="120" y="282"/>
      <point x="155" y="296"/>
      <point x="178" y="296" type="qcurve"/>
      <point x="209" y="296"/>
      <point x="263" y="277"/>
      <point x="290" y="262" type="qcurve"/>
      <point x="323" y="245"/>
      <point x="381" y="226"/>
    </contour>
  </outline>
</glyph>
<glyph name="cent" format="2">
  <advance width="529"/>
  <unicode hex="00A2"/>
  <outline>
    <contour>
      <point x="322" y="-114" type="line"/>
      <point x="322" y="-10" type="line"/>
      <point x="448" y="9"/>
      <point x="492" y="111" type="qcurve"/>
      <point x="414" y="159" type="line"/>
      <point x="384" y="93"/>
      <point x="317" y="79" type="qcurve"/>
      <point x="317" y="437" type="line"/>
      <point x="379" y="422"/>
      <point x="403" y="361" type="qcurve"/>
      <point x="485" y="406" type="line"/>
      <point x="445" y="506"/>
      <point x="322" y="526" type="qcurve"/>
      <point x="322" y="630" type="line"/>
      <point x="235" y="630" type="line"/>
      <point x="235" y="524" type="line"/>
      <point x="144" y="509"/>
      <point x="44" y="370"/>
      <point x="44" y="258" type="qcurve"/>
      <point x="44" y="147"/>
      <point x="144" y="8"/>
      <point x="235" y="-8" type="qcurve"/>
      <point x="235" y="-114" type="line"/>
    </contour>
    <contour>
      <point x="240" y="81" type="line"/>
      <point x="196" y="94"/>
      <point x="153" y="165"/>
      <point x="153" y="215" type="qcurve"/>
      <point x="153" y="301" type="line"/>
      <point x="153" y="352"/>
      <point x="197" y="423"/>
      <point x="240" y="435" type="qcurve"/>
    </contour>
  </outline>
</glyph>
<glyph name="sterling" format="2">
  <advance width="589"/>
  <unicode hex="00A3"/>
  <outline>
    <contour>
      <point x="75" y="0" type="line"/>
      <point x="75" y="115" type="line"/>
      <point x="116" y="134"/>
      <point x="152" y="204"/>
      <point x="152" y="246" type="qcurve" smooth="yes"/>
      <point x="152" y="269"/>
      <point x="148" y="288" type="qcurve"/>
      <point x="49" y="288" type="line"/>
      <point x="49" y="379" type="line"/>
      <point x="117" y="379" type="line"/>
      <point x="107" y="411"/>
      <point x="99" y="443" type="qcurve" smooth="yes"/>
      <point x="92" y="470"/>
      <point x="92" y="502" type="qcurve" smooth="yes"/>
      <point x="92" y="560"/>
      <point x="146" y="654"/>
      <point x="252" y="710"/>
      <point x="331" y="710" type="qcurve" smooth="yes"/>
      <point x="481" y="710"/>
      <point x="554" y="593" type="qcurve"/>
      <point x="471" y="534" type="line"/>
      <point x="445" y="572"/>
      <point x="378" y="612"/>
      <point x="331" y="612" type="qcurve" smooth="yes"/>
      <point x="207" y="612"/>
      <point x="207" y="487" type="qcurve" smooth="yes"/>
      <point x="207" y="458"/>
      <point x="220" y="407"/>
      <point x="229" y="379" type="qcurve"/>
      <point x="437" y="379" type="line"/>
      <point x="437" y="288" type="line"/>
      <point x="259" y="288" type="line"/>
      <point x="262" y="271"/>
      <point x="262" y="253" type="qcurve" smooth="yes"/>
      <point x="262" y="198"/>
      <point x="216" y="122"/>
      <point x="186" y="104" type="qcurve"/>
      <point x="186" y="98" type="line"/>
      <point x="537" y="98" type="line"/>
      <point x="537" y="0" type="line"/>
    </contour>
  </outline>
</glyph>
<glyph name="section" format="2">
  <advance width="577"/>
  <unicode hex="00A7"/>
  <outline>
    <contour>
      <point x="273" y="-158" type="qcurve" smooth="yes"/>
      <point x="166" y="-158"/>
      <point x="93" y="-95" type="qcurve"/>
      <point x="150" y="-25" type="line"/>
      <point x="199" y="-73"/>
      <point x="275" y="-73" type="qcurve"/>
      <point x="381" y="-68"/>
      <point x="381" y="4" type="qcurve" smooth="yes"/>
      <point x="381" y="38"/>
      <point x="332" y="76"/>
      <point x="285" y="90" type="qcurve" smooth="yes"/>
      <point x="216" y="110" type="line" smooth="yes"/>
      <point x="64" y="154"/>
      <point x="64" y="261" type="qcurve" smooth="yes"/>
      <point x="64" y="353"/>
      <point x="172" y="402" type="qcurve"/>
      <point x="172" y="413" type="line"/>
      <point x="97" y="464"/>
      <point x="97" y="547" type="qcurve" smooth="yes"/>
      <point x="97" y="622"/>
      <point x="208" y="710"/>
      <point x="302" y="710" type="qcurve" smooth="yes"/>
      <point x="413" y="710"/>
      <point x="484" y="647" type="qcurve"/>
      <point x="426" y="578" type="line"/>
      <point x="372" y="626"/>
      <point x="300" y="626" type="qcurve" smooth="yes"/>
      <point x="252" y="626"/>
      <point x="194" y="587"/>
      <point x="194" y="550" type="qcurve" smooth="yes"/>
      <point x="194" y="517"/>
      <point x="243" y="479"/>
      <point x="291" y="465" type="qcurve" smooth="yes"/>
      <point x="360" y="446" type="line"/>
      <point x="513" y="401"/>
      <point x="513" y="294" type="qcurve" smooth="yes"/>
      <point x="513" y="248"/>
      <point x="458" y="175"/>
      <point x="404" y="153" type="qcurve"/>
      <point x="404" y="143" type="line"/>
      <point x="480" y="94"/>
      <point x="480" y="8" type="qcurve" smooth="yes"/>
      <point x="480" y="-68"/>
      <point x="367" y="-158"/>
    </contour>
    <contour>
      <point x="362" y="164" type="qcurve"/>
      <point x="415" y="207"/>
      <point x="415" y="263" type="qcurve" smooth="yes"/>
      <point x="415" y="298"/>
      <point x="368" y="347"/>
      <point x="314" y="362" type="qcurve" smooth="yes"/>
      <point x="227" y="386"/>
      <point x="214" y="391" type="qcurve"/>
      <point x="161" y="348"/>
      <point x="161" y="292" type="qcurve" smooth="yes"/>
      <point x="161" y="222"/>
      <point x="262" y="193" type="qcurve"/>
      <point x="345" y="171"/>
      <point x="354" y="167"/>
    </contour>
  </outline>
</glyph>
<glyph name="copyright" format="2">
  <advance width="782"/>
  <unicode hex="00A9"/>
  <outline>
    <contour>
      <point x="391" y="-11" type="qcurve"/>
      <point x="483" y="-11"/>
      <point x="638" y="73"/>
      <point x="731" y="234"/>
      <point x="731" y="349" type="qcurve"/>
      <point x="731" y="461"/>
      <point x="642" y="622"/>
      <point x="488" y="709"/>
      <point x="391" y="709" type="qcurve"/>
      <point x="296" y="709"/>
      <point x="142" y="624"/>
      <point x="51" y="462"/>
      <point x="51" y="349" type="qcurve"/>
      <point x="51" y="239"/>
      <point x="140" y="78"/>
      <point x="294" y="-11"/>
    </contour>
    <contour>
      <point x="391" y="50" type="qcurve"/>
      <point x="277" y="50"/>
      <point x="122" y="201"/>
      <point x="122" y="317" type="qcurve"/>
      <point x="122" y="381" type="line"/>
      <point x="122" y="496"/>
      <point x="274" y="648"/>
      <point x="391" y="648" type="qcurve"/>
      <point x="474" y="648"/>
      <point x="594" y="575"/>
      <point x="660" y="453"/>
      <point x="660" y="381" type="qcurve"/>
      <point x="660" y="317" type="line"/>
      <point x="660" y="201"/>
      <point x="507" y="50"/>
    </contour>
    <contour>
      <point x="399" y="146" type="qcurve"/>
      <point x="516" y="146"/>
      <point x="559" y="245" type="qcurve"/>
      <point x="485" y="284" type="line"/>
      <point x="471" y="257"/>
      <point x="431" y="225"/>
      <point x="399" y="225" type="qcurve"/>
      <point x="360" y="225"/>
      <point x="318" y="274"/>
      <point x="318" y="313" type="qcurve"/>
      <point x="318" y="384" type="line"/>
      <point x="318" y="423"/>
      <point x="360" y="472"/>
      <point x="399" y="472" type="qcurve"/>
      <point x="430" y="472"/>
      <point x="466" y="442"/>
      <point x="477" y="415" type="qcurve"/>
      <point x="552" y="454" type="line"/>
      <point x="512" y="552"/>
      <point x="399" y="552" type="qcurve"/>
      <point x="312" y="552"/>
      <point x="216" y="442"/>
      <point x="216" y="349" type="qcurve"/>
      <point x="216" y="256"/>
      <point x="312" y="146"/>
    </contour>
  </outline>
</glyph>
<glyph name="ordfeminine" format="2">
  <advance width="400"/>
  <unicode hex="00AA"/>
  <outline>
    <contour>
      <point x="154" y="342" type="qcurve" smooth="yes"/>
      <point x="102" y="342"/>
      <point x="43" y="397"/>
      <point x="43" y="445" type="qcurve" smooth="yes"/>
      <point x="43" y="552"/>
      <point x="193" y="552" type="qcurve" smooth="yes"/>
      <point x="261" y="552" type="line"/>
      <point x="261" y="575" type="line" smooth="yes"/>
      <point x="261" y="648"/>
      <point x="193" y="648" type="qcurve" smooth="yes"/>
      <point x="130" y="648"/>
      <point x="102" y="599" type="qcurve"/>
      <point x="54" y="640" type="line"/>
      <point x="70" y="669"/>
      <point x="141" y="710"/>
      <point x="198" y="710" type="qcurve" smooth="yes"/>
      <point x="264" y="710"/>
      <point x="341" y="643"/>
      <point x="341" y="579" type="qcurve" smooth="yes"/>
      <point x="341" y="350" type="line"/>
      <point x="267" y="350" type="line"/>
      <point x="267" y="408" type="line"/>
      <point x="263" y="408" type="line"/>
      <point x="252" y="378"/>
      <point x="198" y="342"/>
    </contour>
    <contour>
      <point x="179" y="400" type="qcurve" smooth="yes"/>
      <point x="212" y="400"/>
      <point x="261" y="431"/>
      <point x="261" y="460" type="qcurve" smooth="yes"/>
      <point x="261" y="501" type="line"/>
      <point x="196" y="501" type="line" smooth="yes"/>
      <point x="123" y="501"/>
      <point x="122" y="456" type="qcurve"/>
      <point x="122" y="444" type="line" smooth="yes"/>
      <point x="122" y="400"/>
    </contour>
  </outline>
</glyph>
<glyph name="registered" format="2">
  <advance width="472"/>
  <unicode hex="00AE"/>
  <outline>
    <contour>
      <point x="236" y="298" type="qcurve"/>
      <point x="323" y="298"/>
      <point x="436" y="419"/>
      <point x="436" y="504" type="qcurve"/>
      <point x="436" y="589"/>
      <point x="323" y="710"/>
      <point x="236" y="710" type="qcurve"/>
      <point x="149" y="710"/>
      <point x="36" y="589"/>
      <point x="36" y="504" type="qcurve"/>
      <point x="36" y="419"/>
      <point x="149" y="298"/>
    </contour>
    <contour>
      <point x="236" y="341" type="qcurve"/>
      <point x="171" y="341"/>
      <point x="83" y="429"/>
      <point x="83" y="491" type="qcurve"/>
      <point x="83" y="517" type="line"/>
      <point x="83" y="577"/>
      <point x="167" y="667"/>
      <point x="236" y="667" type="qcurve"/>
      <point x="305" y="667"/>
      <point x="389" y="579"/>
      <point x="389" y="517" type="qcurve"/>
      <point x="389" y="491" type="line"/>
      <point x="389" y="427"/>
      <point x="302" y="341"/>
    </contour>
    <contour>
      <point x="330" y="398" type="line"/>
      <point x="283" y="478" type="line"/>
      <point x="321" y="492"/>
      <point x="321" y="541" type="qcurve"/>
      <point x="321" y="570"/>
      <point x="285" y="607"/>
      <point x="250" y="607" type="qcurve"/>
      <point x="155" y="607" type="line"/>
      <point x="155" y="398" type="line"/>
      <point x="206" y="398" type="line"/>
      <point x="206" y="470" type="line"/>
      <point x="235" y="470" type="line"/>
      <point x="274" y="398" type="line"/>
    </contour>
    <contour>
      <point x="244" y="508" type="qcurve"/>
      <point x="206" y="508" type="line"/>
      <point x="206" y="567" type="line"/>
      <point x="244" y="567" type="line"/>
      <point x="269" y="567"/>
      <point x="269" y="547" type="qcurve"/>
      <point x="269" y="530" type="line"/>
      <point x="269" y="508"/>
    </contour>
  </outline>
</glyph>
<glyph name="twosuperior" format="2">
  <advance width="346"/>
  <unicode hex="00B2"/>
  <outline>
    <contour>
      <point x="36" y="329" type="line"/>
      <point x="36" y="399" type="line"/>
      <point x="157" y="495" type="line" smooth="yes"/>
      <point x="190" y="521"/>
      <point x="221" y="561"/>
      <point x="221" y="586" type="qcurve" smooth="yes"/>
      <point x="221" y="638"/>
      <point x="165" y="638" type="qcurve" smooth="yes"/>
      <point x="135" y="638"/>
      <point x="105" y="609"/>
      <point x="97" y="585" type="qcurve"/>
      <point x="28" y="611" type="line"/>
      <point x="60" y="704"/>
      <point x="172" y="704" type="qcurve" smooth="yes"/>
      <point x="236" y="704"/>
      <point x="306" y="642"/>
      <point x="306" y="593" type="qcurve" smooth="yes"/>
      <point x="306" y="545"/>
      <point x="247" y="480"/>
      <point x="163" y="422"/>
      <point x="122" y="393" type="qcurve"/>
      <point x="315" y="393" type="line"/>
      <point x="315" y="329" type="line"/>
    </contour>
  </outline>
</glyph>
<glyph name="threesuperior" format="2">
  <advance width="345"/>
  <unicode hex="00B3"/>
  <outline>
    <contour>
      <point x="159" y="323" type="qcurve"/>
      <point x="227" y="323"/>
      <point x="308" y="382"/>
      <point x="308" y="432" type="qcurve"/>
      <point x="308" y="470"/>
      <point x="261" y="514"/>
      <point x="225" y="520" type="qcurve"/>
      <point x="225" y="523" type="line"/>
      <point x="258" y="528"/>
      <point x="302" y="571"/>
      <point x="302" y="606" type="qcurve"/>
      <point x="302" y="651"/>
      <point x="227" y="704"/>
      <point x="164" y="704" type="qcurve"/>
      <point x="73" y="704"/>
      <point x="28" y="642" type="qcurve"/>
      <point x="79" y="597" type="line"/>
      <point x="109" y="642"/>
      <point x="161" y="642" type="qcurve"/>
      <point x="191" y="642"/>
      <point x="218" y="614"/>
      <point x="218" y="592" type="qcurve"/>
      <point x="218" y="575"/>
      <point x="186" y="551"/>
      <point x="153" y="551" type="qcurve"/>
      <point x="115" y="551" type="line"/>
      <point x="115" y="487" type="line"/>
      <point x="154" y="487" type="line"/>
      <point x="192" y="487"/>
      <point x="225" y="463"/>
      <point x="225" y="437" type="qcurve"/>
      <point x="225" y="389"/>
      <point x="159" y="385" type="qcurve"/>
      <point x="127" y="385"/>
      <point x="88" y="413"/>
      <point x="74" y="437" type="qcurve"/>
      <point x="15" y="393" type="line"/>
      <point x="33" y="364"/>
      <point x="100" y="323"/>
    </contour>
  </outline>
</glyph>
<glyph name="mu" format="2">
  <advance width="585"/>
  <unicode hex="00B5"/>
  <outline>
    <contour>
      <point x="187" y="-200" type="line"/>
      <point x="187" y="-71" type="line"/>
      <point x="171" y="36" type="line"/>
      <point x="175" y="36" type="line"/>
      <point x="199" y="-12"/>
      <point x="263" y="-12" type="qcurve"/>
      <point x="319" y="-12"/>
      <point x="381" y="48"/>
      <point x="394" y="86" type="qcurve"/>
      <point x="398" y="86" type="line"/>
      <point x="398" y="0" type="line"/>
      <point x="507" y="0" type="line"/>
      <point x="507" y="520" type="line"/>
      <point x="398" y="520" type="line"/>
      <point x="398" y="170" type="line"/>
      <point x="398" y="125"/>
      <point x="327" y="82"/>
      <point x="286" y="82" type="qcurve"/>
      <point x="187" y="82"/>
      <point x="187" y="204" type="qcurve"/>
      <point x="187" y="520" type="line"/>
      <point x="78" y="520" type="line"/>
      <point x="78" y="-200" type="line"/>
    </contour>
  </outline>
</glyph>
<glyph name="paragraph" format="2">
  <advance width="663"/>
  <unicode hex="00B6"/>
  <outline>
    <contour>
      <point x="527" y="-149" type="line"/>
      <point x="527" y="614" type="line"/>
      <point x="593" y="614" type="line"/>
      <point x="593" y="698" type="line"/>
      <point x="244" y="698" type="line"/>
      <point x="161" y="698"/>
      <point x="43" y="576"/>
      <point x="43" y="490" type="qcurve"/>
      <point x="43" y="405"/>
      <point x="161" y="282"/>
      <point x="244" y="282" type="qcurve"/>
      <point x="244" y="-149" type="line"/>
      <point x="333" y="-149" type="line"/>
      <point x="333" y="614" type="line"/>
      <point x="438" y="614" type="line"/>
      <point x="438" y="-149" type="line"/>
    </contour>
  </outline>
</glyph>
<glyph name="cedilla" format="2">
  <advance width="600"/>
  <unicode hex="00B8"/>
  <outline>
    <contour>
      <point x="313" y="-209" type="qcurve" smooth="yes"/>
      <point x="234" y="-209"/>
      <point x="203" y="-167" type="qcurve"/>
      <point x="245" y="-119" type="line"/>
      <point x="266" y="-148"/>
      <point x="308" y="-148" type="qcurve" smooth="yes"/>
      <point x="327" y="-148"/>
      <point x="352" y="-134"/>
      <point x="352" y="-119" type="qcurve" smooth="yes"/>
      <point x="352" y="-107"/>
      <point x="338" y="-95" type="qcurve" smooth="yes"/>
      <point x="328" y="-87"/>
      <point x="290" y="-80"/>
      <point x="256" y="-76" type="qcurve"/>
      <point x="276" y="24" type="line"/>
      <point x="333" y="24" type="line"/>
      <point x="316" y="-58" type="line"/>
      <point x="320" y="-62" type="line"/>
      <point x="341" y="-55"/>
      <point x="363" y="-55" type="qcurve" smooth="yes"/>
      <point x="392" y="-55"/>
      <point x="433" y="-88"/>
      <point x="433" y="-123" type="qcurve" smooth="yes"/>
      <point x="433" y="-168"/>
      <point x="360" y="-209"/>
    </contour>
  </outline>
</glyph>
<glyph name="onesuperior" format="2">
  <advance width="323"/>
  <unicode hex="00B9"/>
  <outline>
    <contour>
      <point x="234" y="329" type="line"/>
      <point x="155" y="329" type="line"/>
      <point x="155" y="628" type="line"/>
      <point x="75" y="588" type="line"/>
      <point x="75" y="660" type="line"/>
      <point x="150" y="698" type="line"/>
      <point x="234" y="698" type="line"/>
    </contour>
  </outline>
</glyph>
<glyph name="onequarter" format="2">
  <advance width="797"/>
  <unicode hex="00BC"/>
  <outline>
    <contour>
      <point x="186" y="0" type="line"/>
      <point x="97" y="0" type="line"/>
      <point x="602" y="698" type="line"/>
      <point x="690" y="698" type="line"/>
    </contour>
    <contour>
      <point x="234" y="329" type="line"/>
      <point x="155" y="329" type="line"/>
      <point x="155" y="628" type="line"/>
      <point x="75" y="588" type="line"/>
      <point x="75" y="660" type="line"/>
      <point x="150" y="698" type="line"/>
      <point x="234" y="698" type="line"/>
    </contour>
    <contour>
      <point x="725" y="0" type="line"/>
      <point x="649" y="0" type="line"/>
      <point x="649" y="71" type="line"/>
      <point x="470" y="71" type="line"/>
      <point x="470" y="137" type="line"/>
      <point x="627" y="369" type="line"/>
      <point x="725" y="369" type="line"/>
      <point x="725" y="131" type="line"/>
      <point x="777" y="131" type="line"/>
      <point x="777" y="71" type="line"/>
      <point x="725" y="71" type="line"/>
    </contour>
    <contour>
      <point x="649" y="131" type="line"/>
      <point x="649" y="289" type="line"/>
      <point x="644" y="289" type="line"/>
      <point x="535" y="131" type="line"/>
    </contour>
  </outline>
</glyph>
<glyph name="threequarters" format="2">
  <advance width="829"/>
  <unicode hex="00BE"/>
  <outline>
    <contour>
      <point x="159" y="323" type="qcurve" smooth="yes"/>
      <point x="100" y="323"/>
      <point x="33" y="364"/>
      <point x="15" y="393" type="qcurve"/>
      <point x="74" y="437" type="line"/>
      <point x="88" y="413"/>
      <point x="127" y="385"/>
      <point x="159" y="385" type="qcurve"/>
      <point x="225" y="389"/>
      <point x="225" y="437" type="qcurve" smooth="yes"/>
      <point x="225" y="463"/>
      <point x="192" y="487"/>
      <point x="154" y="487" type="qcurve" smooth="yes"/>
      <point x="115" y="487" type="line"/>
      <point x="115" y="551" type="line"/>
      <point x="153" y="551" type="line" smooth="yes"/>
      <point x="186" y="551"/>
      <point x="218" y="575"/>
      <point x="218" y="592" type="qcurve" smooth="yes"/>
      <point x="218" y="614"/>
      <point x="191" y="642"/>
      <point x="161" y="642" type="qcurve" smooth="yes"/>
      <point x="109" y="642"/>
      <point x="79" y="597" type="qcurve"/>
      <point x="28" y="642" type="line"/>
      <point x="73" y="704"/>
      <point x="164" y="704" type="qcurve" smooth="yes"/>
      <point x="227" y="704"/>
      <point x="302" y="651"/>
      <point x="302" y="606" type="qcurve" smooth="yes"/>
      <point x="302" y="571"/>
      <point x="258" y="528"/>
      <point x="225" y="523" type="qcurve"/>
      <point x="225" y="520" type="line"/>
      <point x="261" y="514"/>
      <point x="308" y="470"/>
      <point x="308" y="432" type="qcurve" smooth="yes"/>
      <point x="308" y="382"/>
      <point x="227" y="323"/>
    </contour>
    <contour>
      <point x="129" y="0" type="line"/>
      <point x="634" y="698" type="line"/>
      <point x="722" y="698" type="line"/>
      <point x="218" y="0" type="line"/>
    </contour>
    <contour>
      <point x="681" y="0" type="line"/>
      <point x="681" y="71" type="line"/>
      <point x="502" y="71" type="line"/>
      <point x="502" y="137" type="line"/>
      <point x="659" y="369" type="line"/>
      <point x="757" y="369" type="line"/>
      <point x="757" y="131" type="line"/>
      <point x="809" y="131" type="line"/>
      <point x="809" y="71" type="line"/>
      <point x="757" y="71" type="line"/>
      <point x="757" y="0" type="line"/>
    </contour>
    <contour>
      <point x="681" y="289" type="line"/>
      <point x="676" y="289" type="line"/>
      <point x="567" y="131" type="line"/>
      <point x="681" y="131" type="line"/>
    </contour>
  </outline>
</glyph>
<glyph name="Atilde" format="2">
  <advance width="662"/>
  <unicode hex="00C3"/>
  <outline>
    <contour>
      <point x="404" y="773" type="qcurve" smooth="yes"/>
      <point x="382" y="773"/>
      <point x="349" y="785"/>
      <point x="334" y="793" type="qcurve" smooth="yes"/>
      <point x="326" y="797" type="line"/>
      <point x="284" y="820"/>
      <point x="252" y="820" type="qcurve" smooth="yes"/>
      <point x="235" y="820"/>
      <point x="209" y="807"/>
      <point x="194" y="794" type="qcurve"/>
      <point x="153" y="846" type="line"/>
      <point x="189" y="904"/>
      <point x="256" y="904" type="qcurve" smooth="yes"/>
      <point x="278" y="904"/>
      <point x="311" y="892"/>
      <point x="326" y="884" type="qcurve" smooth="yes"/>
      <point x="334" y="880" type="line"/>
      <point x="377" y="857"/>
      <point x="408" y="857" type="qcurve" smooth="yes"/>
      <point x="425" y="857"/>
      <point x="451" y="870"/>
      <point x="466" y="883" type="qcurve"/>
      <point x="507" y="831" type="line"/>
      <point x="471" y="773"/>
    </contour>
    <contour>
      <point x="522" y="0" type="line"/>
      <point x="459" y="189" type="line"/>
      <point x="198" y="189" type="line"/>
      <point x="137" y="0" type="line"/>
      <point x="22" y="0" type="line"/>
      <point x="260" y="698" type="line"/>
      <point x="402" y="698" type="line"/>
      <point x="640" y="0" type="line"/>
    </contour>
    <contour>
      <point x="331" y="594" type="line"/>
      <point x="326" y="594" type="line"/>
      <point x="225" y="286" type="line"/>
      <point x="431" y="286" type="line"/>
    </contour>
  </outline>
</glyph>
<glyph name="Eacute" format="2">
  <advance width="593"/>
  <unicode hex="00C9"/>
  <outline>
    <contour>
      <point x="252" y="781" type="line"/>
      <point x="343" y="961" type="line"/>
      <point x="438" y="915" type="line"/>
      <point x="320" y="749" type="line"/>
    </contour>
    <contour>
      <point x="86" y="0" type="line"/>
      <point x="86" y="698" type="line"/>
      <point x="533" y="698" type="line"/>
      <point x="533" y="598" type="line"/>
      <point x="199" y="598" type="line"/>
      <point x="199" y="404" type="line"/>
      <point x="502" y="404" type="line"/>
      <point x="502" y="304" type="line"/>
      <point x="199" y="304" type="line"/>
      <point x="199" y="100" type="line"/>
      <point x="533" y="100" type="line"/>
      <point x="533" y="0" type="line"/>
    </contour>
  </outline>
</glyph>
<glyph name="Ecircumflex" format="2">
  <advance width="593"/>
  <unicode hex="00CA"/>
  <outline>
    <contour>
      <point x="309" y="868" type="line"/>
      <point x="190" y="752" type="line"/>
      <point x="134" y="794" type="line"/>
      <point x="254" y="944" type="line"/>
      <point x="364" y="944" type="line"/>
      <point x="484" y="794" type="line"/>
      <point x="428" y="752" type="line"/>
    </contour>
    <contour>
      <point x="86" y="0" type="line"/>
      <point x="86" y="698" type="line"/>
      <point x="533" y="698" type="line"/>
      <point x="533" y="598" type="line"/>
      <point x="199" y="598" type="line"/>
      <point x="199" y="404" type="line"/>
      <point x="502" y="404" type="line"/>
      <point x="502" y="304" type="line"/>
      <point x="199" y="304" type="line"/>
      <point x="199" y="100" type="line"/>
      <point x="533" y="100" type="line"/>
      <point x="533" y="0" type="line"/>
    </contour>
  </outline>
</glyph>
<glyph name="Igrave" format="2">
  <advance width="285"/>
  <unicode hex="00CC"/>
  <outline>
    <contour>
      <point x="132" y="749" type="line"/>
      <point x="200" y="781" type="line"/>
      <point x="109" y="961" type="line"/>
      <point x="14" y="915" type="line"/>
    </contour>
    <contour>
      <point x="199" y="0" type="line"/>
      <point x="199" y="698" type="line"/>
      <point x="86" y="698" type="line"/>
      <point x="86" y="0" type="line"/>
    </contour>
  </outline>
</glyph>
<glyph name="Idieresis" format="2">
  <advance width="285"/>
  <unicode hex="00CF"/>
  <outline>
    <contour>
      <point x="43" y="776" type="qcurve"/>
      <point x="77" y="776"/>
      <point x="106" y="807"/>
      <point x="106" y="830" type="qcurve"/>
      <point x="106" y="848" type="line"/>
      <point x="106" y="871"/>
      <point x="77" y="902"/>
      <point x="43" y="902" type="qcurve"/>
      <point x="9" y="902"/>
      <point x="-20" y="871"/>
      <point x="-20" y="848" type="qcurve"/>
      <point x="-20" y="830" type="line"/>
      <point x="-20" y="807"/>
      <point x="9" y="776"/>
    </contour>
    <contour>
      <point x="243" y="776" type="qcurve"/>
      <point x="277" y="776"/>
      <point x="306" y="807"/>
      <point x="306" y="830" type="qcurve"/>
      <point x="306" y="848" type="line"/>
      <point x="306" y="871"/>
      <point x="277" y="902"/>
      <point x="243" y="902" type="qcurve"/>
      <point x="209" y="902"/>
      <point x="180" y="871"/>
      <point x="180" y="848" type="qcurve"/>
      <point x="180" y="830" type="line"/>
      <point x="180" y="807"/>
      <point x="209" y="776"/>
    </contour>
    <contour>
      <point x="199" y="0" type="line"/>
      <point x="199" y="698" type="line"/>
      <point x="86" y="698" type="line"/>
      <point x="86" y="0" type="line"/>
    </contour>
  </outline>
</glyph>
<glyph name="Ntilde" format="2">
  <advance width="714"/>
  <unicode hex="00D1"/>
  <outline>
    <contour>
      <point x="431" y="773" type="qcurve" smooth="yes"/>
      <point x="409" y="773"/>
      <point x="376" y="785"/>
      <point x="361" y="793" type="qcurve" smooth="yes"/>
      <point x="353" y="797" type="line"/>
      <point x="311" y="820"/>
      <point x="279" y="820" type="qcurve" smooth="yes"/>
      <point x="262" y="820"/>
      <point x="236" y="807"/>
      <point x="221" y="794" type="qcurve"/>
      <point x="180" y="846" type="line"/>
      <point x="216" y="904"/>
      <point x="283" y="904" type="qcurve" smooth="yes"/>
      <point x="305" y="904"/>
      <point x="338" y="892"/>
      <point x="353" y="884" type="qcurve" smooth="yes"/>
      <point x="361" y="880" type="line"/>
      <point x="404" y="857"/>
      <point x="435" y="857" type="qcurve" smooth="yes"/>
      <point x="452" y="857"/>
      <point x="478" y="870"/>
      <point x="493" y="883" type="qcurve"/>
      <point x="534" y="831" type="line"/>
      <point x="498" y="773"/>
    </contour>
    <contour>
      <point x="502" y="0" type="line"/>
      <point x="274" y="386" type="line"/>
      <point x="197" y="534" type="line"/>
      <point x="194" y="534" type="line"/>
      <point x="194" y="0" type="line"/>
      <point x="86" y="0" type="line"/>
      <point x="86" y="698" type="line"/>
      <point x="212" y="698" type="line"/>
      <point x="440" y="312" type="line"/>
      <point x="517" y="164" type="line"/>
      <point x="520" y="164" type="line"/>
      <point x="520" y="698" type="line"/>
      <point x="628" y="698" type="line"/>
      <point x="628" y="0" type="line"/>
    </contour>
  </outline>
</glyph>
<glyph name="Oacute" format="2">
  <advance width="712"/>
  <unicode hex="00D3"/>
  <outline>
    <contour>
      <point x="299" y="781" type="line"/>
      <point x="390" y="961" type="line"/>
      <point x="485" y="915" type="line"/>
      <point x="367" y="749" type="line"/>
    </contour>
    <contour>
      <point x="356" y="-12" type="qcurve" smooth="yes"/>
      <point x="215" y="-12"/>
      <point x="55" y="180"/>
      <point x="55" y="349" type="qcurve" smooth="yes"/>
      <point x="55" y="518"/>
      <point x="214" y="710"/>
      <point x="356" y="710" type="qcurve" smooth="yes"/>
      <point x="443" y="710"/>
      <point x="579" y="631"/>
      <point x="657" y="471"/>
      <point x="657" y="349" type="qcurve" smooth="yes"/>
      <point x="657" y="177"/>
      <point x="496" y="-12"/>
    </contour>
    <contour>
      <point x="356" y="89" type="qcurve" smooth="yes"/>
      <point x="433" y="89"/>
      <point x="536" y="194"/>
      <point x="536" y="294" type="qcurve" smooth="yes"/>
      <point x="536" y="404" type="line" smooth="yes"/>
      <point x="536" y="502"/>
      <point x="437" y="609"/>
      <point x="356" y="609" type="qcurve" smooth="yes"/>
      <point x="271" y="609"/>
      <point x="176" y="496"/>
      <point x="176" y="404" type="qcurve" smooth="yes"/>
      <point x="176" y="294" type="line" smooth="yes"/>
      <point x="176" y="199"/>
      <point x="275" y="89"/>
    </contour>
  </outline>
</glyph>
<glyph name="Otilde" format="2">
  <advance width="712"/>
  <unicode hex="00D5"/>
  <outline>
    <contour>
      <point x="430" y="773" type="qcurve" smooth="yes"/>
      <point x="408" y="773"/>
      <point x="375" y="785"/>
      <point x="360" y="793" type="qcurve" smooth="yes"/>
      <point x="352" y="797" type="line"/>
      <point x="310" y="820"/>
      <point x="278" y="820" type="qcurve" smooth="yes"/>
      <point x="261" y="820"/>
      <point x="235" y="807"/>
      <point x="220" y="794" type="qcurve"/>
      <point x="179" y="846" type="line"/>
      <point x="215" y="904"/>
      <point x="282" y="904" type="qcurve" smooth="yes"/>
      <point x="304" y="904"/>
      <point x="337" y="892"/>
      <point x="352" y="884" type="qcurve" smooth="yes"/>
      <point x="360" y="880" type="line"/>
      <point x="403" y="857"/>
      <point x="434" y="857" type="qcurve" smooth="yes"/>
      <point x="451" y="857"/>
      <point x="477" y="870"/>
      <point x="492" y="883" type="qcurve"/>
      <point x="533" y="831" type="line"/>
      <point x="497" y="773"/>
    </contour>
    <contour>
      <point x="356" y="-12" type="qcurve" smooth="yes"/>
      <point x="215" y="-12"/>
      <point x="55" y="180"/>
      <point x="55" y="349" type="qcurve" smooth="yes"/>
      <point x="55" y="518"/>
      <point x="214" y="710"/>
      <point x="356" y="710" type="qcurve" smooth="yes"/>
      <point x="443" y="710"/>
      <point x="579" y="631"/>
      <point x="657" y="471"/>
      <point x="657" y="349" type="qcurve" smooth="yes"/>
      <point x="657" y="177"/>
      <point x="496" y="-12"/>
    </contour>
    <contour>
      <point x="356" y="89" type="qcurve" smooth="yes"/>
      <point x="433" y="89"/>
      <point x="536" y="194"/>
      <point x="536" y="294" type="qcurve" smooth="yes"/>
      <point x="536" y="404" type="line" smooth="yes"/>
      <point x="536" y="502"/>
      <point x="437" y="609"/>
      <point x="356" y="609" type="qcurve" smooth="yes"/>
      <point x="271" y="609"/>
      <point x="176" y="496"/>
      <point x="176" y="404" type="qcurve" smooth="yes"/>
      <point x="176" y="294" type="line" smooth="yes"/>
      <point x="176" y="199"/>
      <point x="275" y="89"/>
    </contour>
  </outline>
</glyph>
<glyph name="Odieresis" format="2">
  <advance width="712"/>
  <unicode hex="00D6"/>
  <outline>
    <contour>
      <point x="356" y="-12" type="qcurve"/>
      <point x="496" y="-12"/>
      <point x="657" y="177"/>
      <point x="657" y="349" type="qcurve"/>
      <point x="657" y="471"/>
      <point x="579" y="631"/>
      <point x="443" y="710"/>
      <point x="356" y="710" type="qcurve"/>
      <point x="214" y="710"/>
      <point x="55" y="518"/>
      <point x="55" y="349" type="qcurve"/>
      <point x="55" y="180"/>
      <point x="215" y="-12"/>
    </contour>
    <contour>
      <point x="356" y="89" type="qcurve"/>
      <point x="275" y="89"/>
      <point x="176" y="199"/>
      <point x="176" y="294" type="qcurve"/>
      <point x="176" y="404" type="line"/>
      <point x="176" y="496"/>
      <point x="271" y="609"/>
      <point x="356" y="609" type="qcurve"/>
      <point x="437" y="609"/>
      <point x="536" y="502"/>
      <point x="536" y="404" type="qcurve"/>
      <point x="536" y="294" type="line"/>
      <point x="536" y="194"/>
      <point x="433" y="89"/>
    </contour>
    <contour>
      <point x="256" y="776" type="qcurve"/>
      <point x="290" y="776"/>
      <point x="319" y="807"/>
      <point x="319" y="830" type="qcurve"/>
      <point x="319" y="848" type="line"/>
      <point x="319" y="871"/>
      <point x="290" y="902"/>
      <point x="256" y="902" type="qcurve"/>
      <point x="222" y="902"/>
      <point x="193" y="871"/>
      <point x="193" y="848" type="qcurve"/>
      <point x="193" y="830" type="line"/>
      <point x="193" y="807"/>
      <point x="222" y="776"/>
    </contour>
    <contour>
      <point x="456" y="776" type="qcurve"/>
      <point x="490" y="776"/>
      <point x="519" y="807"/>
      <point x="519" y="830" type="qcurve"/>
      <point x="519" y="848" type="line"/>
      <point x="519" y="871"/>
      <point x="490" y="902"/>
      <point x="456" y="902" type="qcurve"/>
      <point x="422" y="902"/>
      <point x="393" y="871"/>
      <point x="393" y="848" type="qcurve"/>
      <point x="393" y="830" type="line"/>
      <point x="393" y="807"/>
      <point x="422" y="776"/>
    </contour>
  </outline>
</glyph>
<glyph name="Ucircumflex" format="2">
  <advance width="686"/>
  <unicode hex="00DB"/>
  <outline>
    <contour>
      <point x="343" y="-12" type="qcurve"/>
      <point x="486" y="-12"/>
      <point x="604" y="133"/>
      <point x="604" y="286" type="qcurve"/>
      <point x="604" y="698" type="line"/>
      <point x="493" y="698" type="line"/>
      <point x="493" y="268" type="line"/>
      <point x="493" y="179"/>
      <point x="425" y="89"/>
      <point x="343" y="89" type="qcurve"/>
      <point x="261" y="89"/>
      <point x="193" y="179"/>
      <point x="193" y="268" type="qcurve"/>
      <point x="193" y="698" type="line"/>
      <point x="82" y="698" type="line"/>
      <point x="82" y="286" type="line"/>
      <point x="82" y="133"/>
      <point x="200" y="-12"/>
    </contour>
    <contour>
      <point x="462" y="752" type="line"/>
      <point x="518" y="794" type="line"/>
      <point x="398" y="944" type="line"/>
      <point x="288" y="944" type="line"/>
      <point x="168" y="794" type="line"/>
      <point x="224" y="752" type="line"/>
      <point x="343" y="868" type="line"/>
    </contour>
  </outline>
</glyph>
<glyph name="Thorn" format="2">
  <advance width="627"/>
  <unicode hex="00DE"/>
  <outline>
    <contour>
      <point x="86" y="0" type="line"/>
      <point x="86" y="698" type="line"/>
      <point x="199" y="698" type="line"/>
      <point x="199" y="564" type="line"/>
      <point x="386" y="564" type="line" smooth="yes"/>
      <point x="486" y="564"/>
      <point x="589" y="446"/>
      <point x="589" y="354" type="qcurve" smooth="yes"/>
      <point x="589" y="254"/>
      <point x="477" y="144"/>
      <point x="386" y="144" type="qcurve" smooth="yes"/>
      <point x="199" y="144" type="line"/>
      <point x="199" y="0" type="line"/>
    </contour>
    <contour>
      <point x="379" y="243" type="line"/>
      <point x="470" y="246"/>
      <point x="470" y="330" type="qcurve" smooth="yes"/>
      <point x="470" y="378" type="line" smooth="yes"/>
      <point x="470" y="420"/>
      <point x="422" y="465"/>
      <point x="379" y="465" type="qcurve" smooth="yes"/>
      <point x="199" y="465" type="line"/>
      <point x="199" y="243" type="line"/>
    </contour>
  </outline>
</glyph>
<glyph name="germandbls" format="2">
  <advance width="662"/>
  <unicode hex="00DF"/>
  <outline>
    <contour>
      <point x="450" y="-12" type="qcurve"/>
      <point x="533" y="-12"/>
      <point x="636" y="79"/>
      <point x="636" y="159" type="qcurve"/>
      <point x="636" y="219"/>
      <point x="573" y="287"/>
      <point x="507" y="304" type="qcurve"/>
      <point x="477" y="313" type="line"/>
      <point x="442" y="322"/>
      <point x="405" y="351"/>
      <point x="405" y="383" type="qcurve"/>
      <point x="405" y="419"/>
      <point x="461" y="449"/>
      <point x="517" y="449" type="qcurve"/>
      <point x="568" y="449" type="line"/>
      <point x="568" y="525" type="line"/>
      <point x="568" y="625"/>
      <point x="449" y="752"/>
      <point x="338" y="752" type="qcurve"/>
      <point x="227" y="752"/>
      <point x="105" y="628"/>
      <point x="105" y="520" type="qcurve"/>
      <point x="26" y="520" type="line"/>
      <point x="26" y="431" type="line"/>
      <point x="105" y="431" type="line"/>
      <point x="105" y="0" type="line"/>
      <point x="214" y="0" type="line"/>
      <point x="214" y="529" type="line"/>
      <point x="214" y="666"/>
      <point x="339" y="666" type="qcurve"/>
      <point x="404" y="666"/>
      <point x="465" y="595"/>
      <point x="465" y="525" type="qcurve"/>
      <point x="389" y="517"/>
      <point x="303" y="440"/>
      <point x="303" y="375" type="qcurve"/>
      <point x="303" y="310"/>
      <point x="375" y="244"/>
      <point x="435" y="228" type="qcurve"/>
      <point x="466" y="220" type="line"/>
      <point x="534" y="205"/>
      <point x="534" y="146" type="qcurve"/>
      <point x="534" y="76"/>
      <point x="452" y="74" type="qcurve"/>
      <point x="383" y="74"/>
      <point x="335" y="132" type="qcurve"/>
      <point x="269" y="68" type="line"/>
      <point x="330" y="-12"/>
    </contour>
  </outline>
</glyph>
<glyph name="atilde" format="2">
  <advance width="538"/>
  <unicode hex="00E3"/>
  <outline>
    <contour>
      <point x="334" y="607" type="qcurve" smooth="yes"/>
      <point x="312" y="607"/>
      <point x="279" y="619"/>
      <point x="264" y="627" type="qcurve" smooth="yes"/>
      <point x="256" y="631" type="line"/>
      <point x="214" y="655"/>
      <point x="182" y="655" type="qcurve" smooth="yes"/>
      <point x="165" y="655"/>
      <point x="139" y="641"/>
      <point x="124" y="628" type="qcurve"/>
      <point x="83" y="680" type="line"/>
      <point x="119" y="738"/>
      <point x="186" y="738" type="qcurve" smooth="yes"/>
      <point x="208" y="738"/>
      <point x="241" y="726"/>
      <point x="256" y="718" type="qcurve" smooth="yes"/>
      <point x="264" y="714" type="line"/>
      <point x="307" y="690"/>
      <point x="338" y="690" type="qcurve" smooth="yes"/>
      <point x="355" y="690"/>
      <point x="381" y="704"/>
      <point x="396" y="717" type="qcurve"/>
      <point x="437" y="665" type="line"/>
      <point x="401" y="607"/>
    </contour>
    <contour>
      <point x="208" y="-12" type="qcurve" smooth="yes"/>
      <point x="127" y="-12"/>
      <point x="40" y="72"/>
      <point x="40" y="143" type="qcurve" smooth="yes"/>
      <point x="40" y="299"/>
      <point x="262" y="299" type="qcurve" smooth="yes"/>
      <point x="356" y="299" type="line"/>
      <point x="356" y="343" type="line" smooth="yes"/>
      <point x="356" y="443"/>
      <point x="249" y="443" type="qcurve" smooth="yes"/>
      <point x="203" y="443"/>
      <point x="145" y="403"/>
      <point x="125" y="372" type="qcurve"/>
      <point x="60" y="431" type="line"/>
      <point x="118" y="532"/>
      <point x="256" y="532" type="qcurve" smooth="yes"/>
      <point x="357" y="532"/>
      <point x="465" y="438"/>
      <point x="465" y="350" type="qcurve" smooth="yes"/>
      <point x="465" y="0" type="line"/>
      <point x="365" y="0" type="line"/>
      <point x="365" y="87" type="line"/>
      <point x="360" y="87" type="line"/>
      <point x="345" y="38"/>
      <point x="265" y="-12"/>
    </contour>
    <contour>
      <point x="239" y="71" type="qcurve" smooth="yes"/>
      <point x="290" y="71"/>
      <point x="356" y="116"/>
      <point x="356" y="154" type="qcurve" smooth="yes"/>
      <point x="356" y="229" type="line"/>
      <point x="264" y="229" type="line" smooth="yes"/>
      <point x="152" y="229"/>
      <point x="151" y="159" type="qcurve"/>
      <point x="151" y="141" type="line" smooth="yes"/>
      <point x="151" y="71"/>
    </contour>
  </outline>
</glyph>
<glyph name="ccedilla" format="2">
  <advance width="510"/>
  <unicode hex="00E7"/>
  <outline>
    <contour>
      <point x="283" y="-209" type="qcurve" smooth="yes"/>
      <point x="206" y="-209"/>
      <point x="173" y="-167" type="qcurve"/>
      <point x="215" y="-119" type="line"/>
      <point x="236" y="-148"/>
      <point x="278" y="-148" type="qcurve" smooth="yes"/>
      <point x="297" y="-148"/>
      <point x="322" y="-134"/>
      <point x="322" y="-119" type="qcurve" smooth="yes"/>
      <point x="322" y="-107"/>
      <point x="308" y="-95" type="qcurve" smooth="yes"/>
      <point x="298" y="-87"/>
      <point x="260" y="-80"/>
      <point x="226" y="-76" type="qcurve"/>
      <point x="239" y="-9" type="line"/>
      <point x="145" y="5"/>
      <point x="43" y="146"/>
      <point x="43" y="260" type="qcurve" smooth="yes"/>
      <point x="43" y="340"/>
      <point x="96" y="462"/>
      <point x="201" y="532"/>
      <point x="279" y="532" type="qcurve" smooth="yes"/>
      <point x="357" y="532"/>
      <point x="457" y="463"/>
      <point x="480" y="404" type="qcurve"/>
      <point x="390" y="362" type="line"/>
      <point x="366" y="441"/>
      <point x="279" y="441" type="qcurve" smooth="yes"/>
      <point x="219" y="441"/>
      <point x="158" y="366"/>
      <point x="158" y="306" type="qcurve" smooth="yes"/>
      <point x="158" y="213" type="line" smooth="yes"/>
      <point x="158" y="153"/>
      <point x="219" y="78"/>
      <point x="279" y="78" type="qcurve" smooth="yes"/>
      <point x="327" y="78"/>
      <point x="384" y="125"/>
      <point x="401" y="164" type="qcurve"/>
      <point x="484" y="120" type="line"/>
      <point x="435" y="-1"/>
      <point x="296" y="-12" type="qcurve"/>
      <point x="287" y="-58" type="line"/>
      <point x="290" y="-62" type="line"/>
      <point x="311" y="-55"/>
      <point x="333" y="-55" type="qcurve" smooth="yes"/>
      <point x="362" y="-55"/>
      <point x="403" y="-88"/>
      <point x="403" y="-123" type="qcurve" smooth="yes"/>
      <point x="403" y="-168"/>
      <point x="330" y="-209"/>
    </contour>
  </outline>
</glyph>
<glyph name="iacute" format="2">
  <advance width="265"/>
  <unicode hex="00ED"/>
  <outline>
    <contour>
      <point x="187" y="0" type="line"/>
      <point x="187" y="520" type="line"/>
      <point x="78" y="520" type="line"/>
      <point x="78" y="0" type="line"/>
    </contour>
    <contour>
      <point x="145" y="582" type="line"/>
      <point x="263" y="749" type="line"/>
      <point x="168" y="795" type="line"/>
      <point x="77" y="615" type="line"/>
    </contour>
  </outline>
</glyph>
<glyph name="idieresis" format="2">
  <advance width="265"/>
  <unicode hex="00EF"/>
  <outline>
    <contour>
      <point x="34" y="610" type="qcurve" smooth="yes"/>
      <point x="-28" y="610"/>
      <point x="-28" y="663" type="qcurve" smooth="yes"/>
      <point x="-28" y="681" type="line" smooth="yes"/>
      <point x="-28" y="734"/>
      <point x="34" y="734" type="qcurve" smooth="yes"/>
      <point x="96" y="734"/>
      <point x="96" y="681" type="qcurve" smooth="yes"/>
      <point x="96" y="663" type="line" smooth="yes"/>
      <point x="96" y="610"/>
    </contour>
    <contour>
      <point x="234" y="610" type="qcurve" smooth="yes"/>
      <point x="172" y="610"/>
      <point x="172" y="663" type="qcurve" smooth="yes"/>
      <point x="172" y="681" type="line" smooth="yes"/>
      <point x="172" y="734"/>
      <point x="234" y="734" type="qcurve" smooth="yes"/>
      <point x="296" y="734"/>
      <point x="296" y="681" type="qcurve" smooth="yes"/>
      <point x="296" y="663" type="line" smooth="yes"/>
      <point x="296" y="610"/>
    </contour>
    <contour>
      <point x="78" y="0" type="line"/>
      <point x="78" y="520" type="line"/>
      <point x="187" y="520" type="line"/>
      <point x="187" y="0" type="line"/>
    </contour>
  </outline>
</glyph>
<glyph name="eth" format="2">
  <advance width="574"/>
  <unicode hex="00F0"/>
  <outline>
    <contour>
      <point x="286" y="-12" type="qcurve"/>
      <point x="395" y="-12"/>
      <point x="525" y="132"/>
      <point x="525" y="274" type="qcurve"/>
      <point x="525" y="495"/>
      <point x="367" y="653" type="qcurve"/>
      <point x="443" y="704" type="line"/>
      <point x="403" y="753" type="line"/>
      <point x="319" y="697" type="line"/>
      <point x="289" y="722"/>
      <point x="260" y="740" type="qcurve"/>
      <point x="93" y="740" type="line"/>
      <point x="168" y="698"/>
      <point x="236" y="644" type="qcurve"/>
      <point x="162" y="595" type="line"/>
      <point x="201" y="546" type="line"/>
      <point x="285" y="600" type="line"/>
      <point x="379" y="514"/>
      <point x="406" y="407" type="qcurve"/>
      <point x="400" y="404" type="line"/>
      <point x="360" y="502"/>
      <point x="259" y="502" type="qcurve"/>
      <point x="158" y="502"/>
      <point x="44" y="358"/>
      <point x="44" y="249" type="qcurve"/>
      <point x="44" y="131"/>
      <point x="175" y="-12"/>
    </contour>
    <contour>
      <point x="285" y="75" type="qcurve"/>
      <point x="228" y="75"/>
      <point x="159" y="148"/>
      <point x="159" y="214" type="qcurve"/>
      <point x="159" y="276" type="line"/>
      <point x="159" y="342"/>
      <point x="228" y="415"/>
      <point x="285" y="415" type="qcurve"/>
      <point x="342" y="415"/>
      <point x="411" y="342"/>
      <point x="411" y="276" type="qcurve"/>
      <point x="411" y="214" type="line"/>
      <point x="411" y="148"/>
      <point x="342" y="75"/>
    </contour>
  </outline>
</glyph>
<glyph name="ntilde" format="2">
  <advance width="580"/>
  <unicode hex="00F1"/>
  <outline>
    <contour>
      <point x="368" y="607" type="qcurve" smooth="yes"/>
      <point x="346" y="607"/>
      <point x="313" y="619"/>
      <point x="298" y="627" type="qcurve" smooth="yes"/>
      <point x="290" y="631" type="line"/>
      <point x="248" y="655"/>
      <point x="216" y="655" type="qcurve" smooth="yes"/>
      <point x="199" y="655"/>
      <point x="173" y="641"/>
      <point x="158" y="628" type="qcurve"/>
      <point x="117" y="680" type="line"/>
      <point x="153" y="738"/>
      <point x="220" y="738" type="qcurve" smooth="yes"/>
      <point x="242" y="738"/>
      <point x="275" y="726"/>
      <point x="290" y="718" type="qcurve" smooth="yes"/>
      <point x="298" y="714" type="line"/>
      <point x="341" y="690"/>
      <point x="372" y="690" type="qcurve" smooth="yes"/>
      <point x="389" y="690"/>
      <point x="415" y="704"/>
      <point x="430" y="717" type="qcurve"/>
      <point x="471" y="665" type="line"/>
      <point x="435" y="607"/>
    </contour>
    <contour>
      <point x="398" y="0" type="line"/>
      <point x="398" y="316" type="line" smooth="yes"/>
      <point x="398" y="438"/>
      <point x="300" y="438" type="qcurve" smooth="yes"/>
      <point x="258" y="438"/>
      <point x="187" y="395"/>
      <point x="187" y="348" type="qcurve" smooth="yes"/>
      <point x="187" y="0" type="line"/>
      <point x="78" y="0" type="line"/>
      <point x="78" y="520" type="line"/>
      <point x="187" y="520" type="line"/>
      <point x="187" y="434" type="line"/>
      <point x="192" y="434" type="line"/>
      <point x="230" y="532"/>
      <point x="338" y="532" type="qcurve" smooth="yes"/>
      <point x="418" y="532"/>
      <point x="507" y="427"/>
      <point x="507" y="330" type="qcurve" smooth="yes"/>
      <point x="507" y="0" type="line"/>
    </contour>
  </outline>
</glyph>
<glyph name="oacute" format="2">
  <advance width="564"/>
  <unicode hex="00F3"/>
  <outline>
    <contour>
      <point x="282" y="-12" type="qcurve"/>
      <point x="394" y="-12"/>
      <point x="521" y="140"/>
      <point x="521" y="260" type="qcurve"/>
      <point x="521" y="388"/>
      <point x="388" y="532"/>
      <point x="282" y="532" type="qcurve"/>
      <point x="176" y="532"/>
      <point x="43" y="388"/>
      <point x="43" y="260" type="qcurve"/>
      <point x="43" y="140"/>
      <point x="170" y="-12"/>
    </contour>
    <contour>
      <point x="282" y="78" type="qcurve"/>
      <point x="226" y="78"/>
      <point x="158" y="147"/>
      <point x="158" y="216" type="qcurve"/>
      <point x="158" y="304" type="line"/>
      <point x="158" y="373"/>
      <point x="226" y="442"/>
      <point x="282" y="442" type="qcurve"/>
      <point x="338" y="442"/>
      <point x="406" y="373"/>
      <point x="406" y="304" type="qcurve"/>
      <point x="406" y="216" type="line"/>
      <point x="406" y="147"/>
      <point x="338" y="78"/>
    </contour>
    <contour>
      <point x="293" y="582" type="line"/>
      <point x="411" y="749" type="line"/>
      <point x="316" y="795" type="line"/>
      <point x="225" y="615" type="line"/>
    </contour>
  </outline>
</glyph>
<glyph name="otilde" format="2">
  <advance width="564"/>
  <unicode hex="00F5"/>
  <outline>
    <contour>
      <point x="282" y="-12" type="qcurve"/>
      <point x="394" y="-12"/>
      <point x="521" y="140"/>
      <point x="521" y="260" type="qcurve"/>
      <point x="521" y="388"/>
      <point x="388" y="532"/>
      <point x="282" y="532" type="qcurve"/>
      <point x="176" y="532"/>
      <point x="43" y="388"/>
      <point x="43" y="260" type="qcurve"/>
      <point x="43" y="140"/>
      <point x="170" y="-12"/>
    </contour>
    <contour>
      <point x="282" y="78" type="qcurve"/>
      <point x="226" y="78"/>
      <point x="158" y="147"/>
      <point x="158" y="216" type="qcurve"/>
      <point x="158" y="304" type="line"/>
      <point x="158" y="373"/>
      <point x="226" y="442"/>
      <point x="282" y="442" type="qcurve"/>
      <point x="338" y="442"/>
      <point x="406" y="373"/>
      <point x="406" y="304" type="qcurve"/>
      <point x="406" y="216" type="line"/>
      <point x="406" y="147"/>
      <point x="338" y="78"/>
    </contour>
    <contour>
      <point x="356" y="607" type="qcurve"/>
      <point x="423" y="607"/>
      <point x="459" y="665" type="qcurve"/>
      <point x="418" y="717" type="line"/>
      <point x="403" y="704"/>
      <point x="377" y="690"/>
      <point x="360" y="690" type="qcurve"/>
      <point x="329" y="690"/>
      <point x="286" y="714" type="qcurve"/>
      <point x="278" y="718" type="line"/>
      <point x="263" y="726"/>
      <point x="230" y="738"/>
      <point x="208" y="738" type="qcurve"/>
      <point x="141" y="738"/>
      <point x="105" y="680" type="qcurve"/>
      <point x="146" y="628" type="line"/>
      <point x="161" y="641"/>
      <point x="187" y="655"/>
      <point x="204" y="655" type="qcurve"/>
      <point x="236" y="655"/>
      <point x="278" y="631" type="qcurve"/>
      <point x="286" y="627" type="line"/>
      <point x="301" y="619"/>
      <point x="334" y="607"/>
    </contour>
  </outline>
</glyph>
<glyph name="oslash" format="2">
  <advance width="570"/>
  <unicode hex="00F8"/>
  <outline>
    <contour>
      <point x="86" y="-44" type="line"/>
      <point x="147" y="29" type="line"/>
      <point x="203" y="-12"/>
      <point x="285" y="-12" type="qcurve"/>
      <point x="397" y="-12"/>
      <point x="524" y="140"/>
      <point x="524" y="260" type="qcurve"/>
      <point x="524" y="367"/>
      <point x="476" y="435" type="qcurve"/>
      <point x="544" y="519" type="line"/>
      <point x="484" y="564" type="line"/>
      <point x="423" y="490" type="line"/>
      <point x="365" y="532"/>
      <point x="285" y="532" type="qcurve"/>
      <point x="179" y="532"/>
      <point x="46" y="388"/>
      <point x="46" y="260" type="qcurve"/>
      <point x="46" y="152"/>
      <point x="93" y="84" type="qcurve"/>
      <point x="26" y="1" type="line"/>
    </contour>
    <contour>
      <point x="285" y="75" type="qcurve"/>
      <point x="233" y="75"/>
      <point x="202" y="103" type="qcurve"/>
      <point x="405" y="352" type="line"/>
      <point x="411" y="329"/>
      <point x="411" y="302" type="qcurve"/>
      <point x="411" y="218" type="line"/>
      <point x="411" y="148"/>
      <point x="342" y="75"/>
    </contour>
    <contour>
      <point x="165" y="168" type="line"/>
      <point x="159" y="190"/>
      <point x="159" y="218" type="qcurve"/>
      <point x="159" y="302" type="line"/>
      <point x="159" y="372"/>
      <point x="228" y="445"/>
      <point x="285" y="445" type="qcurve"/>
      <point x="335" y="445"/>
      <point x="368" y="416" type="qcurve"/>
    </contour>
  </outline>
</glyph>
<glyph name="ugrave" format="2">
  <advance width="580"/>
  <unicode hex="00F9"/>
  <outline>
    <contour>
      <point x="243" y="-12" type="qcurve"/>
      <point x="357" y="-12"/>
      <point x="389" y="86" type="qcurve"/>
      <point x="393" y="86" type="line"/>
      <point x="393" y="0" type="line"/>
      <point x="502" y="0" type="line"/>
      <point x="502" y="520" type="line"/>
      <point x="393" y="520" type="line"/>
      <point x="393" y="172" type="line"/>
      <point x="393" y="126"/>
      <point x="324" y="82"/>
      <point x="282" y="82" type="qcurve"/>
      <point x="182" y="82"/>
      <point x="182" y="203" type="qcurve"/>
      <point x="182" y="520" type="line"/>
      <point x="73" y="520" type="line"/>
      <point x="73" y="189" type="line"/>
      <point x="73" y="92"/>
      <point x="162" y="-12"/>
    </contour>
    <contour>
      <point x="278" y="582" type="line"/>
      <point x="346" y="615" type="line"/>
      <point x="255" y="795" type="line"/>
      <point x="160" y="749" type="line"/>
    </contour>
  </outline>
</glyph>
<glyph name="ucircumflex" format="2">
  <advance width="580"/>
  <unicode hex="00FB"/>
  <outline>
    <contour>
      <point x="243" y="-12" type="qcurve"/>
      <point x="357" y="-12"/>
      <point x="389" y="86" type="qcurve"/>
      <point x="393" y="86" type="line"/>
      <point x="393" y="0" type="line"/>
      <point x="502" y="0" type="line"/>
      <point x="502" y="520" type="line"/>
      <point x="393" y="520" type="line"/>
      <point x="393" y="172" type="line"/>
      <point x="393" y="126"/>
      <point x="324" y="82"/>
      <point x="282" y="82" type="qcurve"/>
      <point x="182" y="82"/>
      <point x="182" y="203" type="qcurve"/>
      <point x="182" y="520" type="line"/>
      <point x="73" y="520" type="line"/>
      <point x="73" y="189" type="line"/>
      <point x="73" y="92"/>
      <point x="162" y="-12"/>
    </contour>
    <contour>
      <point x="408" y="585" type="line"/>
      <point x="464" y="628" type="line"/>
      <point x="344" y="778" type="line"/>
      <point x="234" y="778" type="line"/>
      <point x="114" y="628" type="line"/>
      <point x="170" y="585" type="line"/>
      <point x="289" y="702" type="line"/>
    </contour>
  </outline>
</glyph>
<glyph name="ydieresis" format="2">
  <advance width="514"/>
  <unicode hex="00FF"/>
  <outline>
    <contour>
      <point x="146" y="-200" type="line"/>
      <point x="203" y="-200"/>
      <point x="265" y="-157"/>
      <point x="283" y="-103" type="qcurve"/>
      <point x="502" y="520" type="line"/>
      <point x="397" y="520" type="line"/>
      <point x="293" y="214" type="line"/>
      <point x="260" y="101" type="line"/>
      <point x="255" y="101" type="line"/>
      <point x="225" y="214" type="line"/>
      <point x="121" y="520" type="line"/>
      <point x="12" y="520" type="line"/>
      <point x="201" y="-23" type="line"/>
      <point x="171" y="-111" type="line"/>
      <point x="83" y="-111" type="line"/>
      <point x="83" y="-200" type="line"/>
    </contour>
    <contour>
      <point x="160" y="610" type="qcurve"/>
      <point x="222" y="610"/>
      <point x="222" y="663" type="qcurve"/>
      <point x="222" y="681" type="line"/>
      <point x="222" y="734"/>
      <point x="160" y="734" type="qcurve"/>
      <point x="98" y="734"/>
      <point x="98" y="681" type="qcurve"/>
      <point x="98" y="663" type="line"/>
      <point x="98" y="610"/>
    </contour>
    <contour>
      <point x="360" y="610" type="qcurve"/>
      <point x="422" y="610"/>
      <point x="422" y="663" type="qcurve"/>
      <point x="422" y="681" type="line"/>
      <point x="422" y="734"/>
      <point x="360" y="734" type="qcurve"/>
      <point x="298" y="734"/>
      <point x="298" y="681" type="qcurve"/>
      <point x="298" y="663" type="line"/>
      <point x="298" y="610"/>
    </contour>
  </outline>
</glyph>
<glyph name="Abreve" format="2">
  <advance width="662"/>
  <unicode hex="0102"/>
  <outline>
    <contour>
      <point x="640" y="0" type="line"/>
      <point x="402" y="698" type="line"/>
      <point x="260" y="698" type="line"/>
      <point x="22" y="0" type="line"/>
      <point x="137" y="0" type="line"/>
      <point x="198" y="189" type="line"/>
      <point x="459" y="189" type="line"/>
      <point x="522" y="0" type="line"/>
    </contour>
    <contour>
      <point x="431" y="286" type="line"/>
      <point x="225" y="286" type="line"/>
      <point x="326" y="594" type="line"/>
      <point x="331" y="594" type="line"/>
    </contour>
    <contour>
      <point x="329" y="755" type="qcurve"/>
      <point x="385" y="755"/>
      <point x="450" y="801"/>
      <point x="487" y="867"/>
      <point x="497" y="899" type="qcurve"/>
      <point x="437" y="930" type="line"/>
      <point x="417" y="897" type="line"/>
      <point x="401" y="868"/>
      <point x="363" y="835"/>
      <point x="329" y="835" type="qcurve"/>
      <point x="295" y="835"/>
      <point x="257" y="868"/>
      <point x="241" y="897" type="qcurve"/>
      <point x="221" y="930" type="line"/>
      <point x="161" y="899" type="line"/>
      <point x="169" y="868"/>
      <point x="207" y="802"/>
      <point x="274" y="755"/>
    </contour>
  </outline>
</glyph>
<glyph name="aogonek" format="2">
  <advance width="538"/>
  <unicode hex="0105"/>
  <outline>
    <contour>
      <point x="239" y="71" type="qcurve"/>
      <point x="290" y="71"/>
      <point x="356" y="116"/>
      <point x="356" y="154" type="qcurve"/>
      <point x="356" y="229" type="line"/>
      <point x="264" y="229" type="line"/>
      <point x="152" y="229"/>
      <point x="151" y="159" type="qcurve"/>
      <point x="151" y="141" type="line"/>
      <point x="151" y="71"/>
    </contour>
    <contour>
      <point x="388" y="-209" type="qcurve"/>
      <point x="344" y="-209"/>
      <point x="281" y="-171"/>
      <point x="281" y="-129" type="qcurve"/>
      <point x="281" y="-89"/>
      <point x="342" y="-31"/>
      <point x="390" y="-4" type="qcurve"/>
      <point x="389" y="0" type="line"/>
      <point x="365" y="0" type="line"/>
      <point x="365" y="87" type="line"/>
      <point x="360" y="87" type="line"/>
      <point x="345" y="38"/>
      <point x="265" y="-12"/>
      <point x="208" y="-12" type="qcurve"/>
      <point x="127" y="-12"/>
      <point x="40" y="72"/>
      <point x="40" y="143" type="qcurve"/>
      <point x="40" y="299"/>
      <point x="262" y="299" type="qcurve"/>
      <point x="356" y="299" type="line"/>
      <point x="356" y="343" type="line"/>
      <point x="356" y="443"/>
      <point x="249" y="443" type="qcurve"/>
      <point x="203" y="443"/>
      <point x="145" y="403"/>
      <point x="125" y="372" type="qcurve"/>
      <point x="60" y="431" type="line"/>
      <point x="118" y="532"/>
      <point x="256" y="532" type="qcurve"/>
      <point x="357" y="532"/>
      <point x="465" y="438"/>
      <point x="465" y="350" type="qcurve"/>
      <point x="465" y="0" type="line"/>
      <point x="401" y="-49"/>
      <point x="360" y="-96"/>
      <point x="360" y="-115" type="qcurve"/>
      <point x="360" y="-147"/>
      <point x="394" y="-147" type="qcurve"/>
      <point x="426" y="-147"/>
      <point x="445" y="-121" type="qcurve"/>
      <point x="491" y="-165" type="line"/>
      <point x="467" y="-209"/>
    </contour>
  </outline>
</glyph>
<glyph name="Cdotaccent" format="2">
  <advance width="634"/>
  <unicode hex="010A"/>
  <outline>
    <contour>
      <point x="348" y="-12" type="qcurve"/>
      <point x="439" y="-12"/>
      <point x="565" y="74"/>
      <point x="600" y="150" type="qcurve"/>
      <point x="509" y="205" type="line"/>
      <point x="490" y="153"/>
      <point x="411" y="89"/>
      <point x="348" y="89" type="qcurve"/>
      <point x="267" y="89"/>
      <point x="175" y="199"/>
      <point x="175" y="296" type="qcurve"/>
      <point x="175" y="402" type="line"/>
      <point x="175" y="499"/>
      <point x="267" y="609"/>
      <point x="348" y="609" type="qcurve"/>
      <point x="464" y="609"/>
      <point x="502" y="500" type="qcurve"/>
      <point x="597" y="552" type="line"/>
      <point x="526" y="710"/>
      <point x="348" y="710" type="qcurve"/>
      <point x="216" y="710"/>
      <point x="55" y="530"/>
      <point x="55" y="349" type="qcurve"/>
      <point x="55" y="173"/>
      <point x="211" y="-12"/>
    </contour>
    <contour>
      <point x="345" y="768" type="qcurve"/>
      <point x="415" y="768"/>
      <point x="415" y="828" type="qcurve"/>
      <point x="415" y="849" type="line"/>
      <point x="415" y="909"/>
      <point x="345" y="909" type="qcurve"/>
      <point x="275" y="909"/>
      <point x="275" y="849" type="qcurve"/>
      <point x="275" y="828" type="line"/>
      <point x="275" y="768"/>
    </contour>
  </outline>
</glyph>
<glyph name="Dcaron" format="2">
  <advance width="683"/>
  <unicode hex="010E"/>
  <outline>
    <contour>
      <point x="259" y="760" type="line"/>
      <point x="139" y="910" type="line"/>
      <point x="195" y="952" type="line"/>
      <point x="314" y="836" type="line"/>
      <point x="433" y="952" type="line"/>
      <point x="489" y="910" type="line"/>
      <point x="369" y="760" type="line"/>
    </contour>
    <contour>
      <point x="86" y="0" type="line"/>
      <point x="86" y="698" type="line"/>
      <point x="333" y="698" type="line" smooth="yes"/>
      <point x="418" y="698"/>
      <point x="552" y="625"/>
      <point x="628" y="470"/>
      <point x="628" y="349" type="qcurve" smooth="yes"/>
      <point x="628" y="232"/>
      <point x="554" y="77"/>
      <point x="421" y="0"/>
      <point x="333" y="0" type="qcurve" smooth="yes"/>
    </contour>
    <contour>
      <point x="333" y="100" type="line" smooth="yes"/>
      <point x="411" y="100"/>
      <point x="507" y="198"/>
      <point x="507" y="293" type="qcurve" smooth="yes"/>
      <point x="507" y="405" type="line" smooth="yes"/>
      <point x="507" y="500"/>
      <point x="411" y="598"/>
      <point x="333" y="598" type="qcurve" smooth="yes"/>
      <point x="199" y="598" type="line"/>
      <point x="199" y="100" type="line"/>
    </contour>
  </outline>
</glyph>
<glyph name="ebreve" format="2">
  <advance width="556"/>
  <unicode hex="0115"/>
  <outline>
    <contour>
      <point x="283" y="589" type="qcurve" smooth="yes"/>
      <point x="227" y="589"/>
      <point x="162" y="635"/>
      <point x="125" y="701"/>
      <point x="115" y="733" type="qcurve"/>
      <point x="175" y="763" type="line"/>
      <point x="196" y="730" type="line"/>
      <point x="212" y="702"/>
      <point x="250" y="669"/>
      <point x="283" y="669" type="qcurve" smooth="yes"/>
      <point x="316" y="669"/>
      <point x="354" y="702"/>
      <point x="370" y="730" type="qcurve"/>
      <point x="391" y="763" type="line"/>
      <point x="451" y="733" type="line"/>
      <point x="441" y="701"/>
      <point x="404" y="635"/>
      <point x="339" y="589"/>
    </contour>
    <contour>
      <point x="282" y="-12" type="qcurve" smooth="yes"/>
      <point x="173" y="-12"/>
      <point x="43" y="133"/>
      <point x="43" y="260" type="qcurve" smooth="yes"/>
      <point x="43" y="379"/>
      <point x="166" y="532"/>
      <point x="282" y="532" type="qcurve" smooth="yes"/>
      <point x="362" y="532"/>
      <point x="464" y="459"/>
      <point x="513" y="341"/>
      <point x="513" y="273" type="qcurve" smooth="yes"/>
      <point x="513" y="232" type="line"/>
      <point x="156" y="232" type="line"/>
      <point x="156" y="215" type="line" smooth="yes"/>
      <point x="156" y="155"/>
      <point x="227" y="78"/>
      <point x="293" y="78" type="qcurve" smooth="yes"/>
      <point x="381" y="78"/>
      <point x="430" y="156" type="qcurve"/>
      <point x="494" y="93" type="line"/>
      <point x="464" y="44"/>
      <point x="355" y="-12"/>
    </contour>
    <contour>
      <point x="398" y="314" type="line" smooth="yes"/>
      <point x="398" y="374"/>
      <point x="336" y="447"/>
      <point x="282" y="447" type="qcurve" smooth="yes"/>
      <point x="227" y="447"/>
      <point x="156" y="371"/>
      <point x="156" y="304" type="qcurve"/>
      <point x="398" y="304" type="line"/>
    </contour>
  </outline>
</glyph>
<glyph name="Eogonek" format="2">
  <advance width="593"/>
  <unicode hex="0118"/>
  <outline>
    <contour>
      <point x="457" y="-209" type="qcurve"/>
      <point x="537" y="-209"/>
      <point x="559" y="-165" type="qcurve"/>
      <point x="514" y="-121" type="line"/>
      <point x="495" y="-147"/>
      <point x="463" y="-147" type="qcurve"/>
      <point x="429" y="-147"/>
      <point x="429" y="-115" type="qcurve"/>
      <point x="429" y="-103"/>
      <point x="442" y="-78"/>
      <point x="487" y="-36"/>
      <point x="533" y="0" type="qcurve"/>
      <point x="533" y="100" type="line"/>
      <point x="199" y="100" type="line"/>
      <point x="199" y="304" type="line"/>
      <point x="502" y="304" type="line"/>
      <point x="502" y="404" type="line"/>
      <point x="199" y="404" type="line"/>
      <point x="199" y="598" type="line"/>
      <point x="533" y="598" type="line"/>
      <point x="533" y="698" type="line"/>
      <point x="86" y="698" type="line"/>
      <point x="86" y="0" type="line"/>
      <point x="457" y="0" type="line"/>
      <point x="458" y="-5" type="line"/>
      <point x="409" y="-31"/>
      <point x="349" y="-89"/>
      <point x="349" y="-129" type="qcurve"/>
      <point x="349" y="-171"/>
      <point x="412" y="-209"/>
    </contour>
  </outline>
</glyph>
<glyph name="eogonek" format="2">
  <advance width="555"/>
  <unicode hex="0119"/>
  <outline>
    <contour>
      <point x="347" y="-209" type="qcurve"/>
      <point x="425" y="-209"/>
      <point x="449" y="-165" type="qcurve"/>
      <point x="405" y="-121" type="line"/>
      <point x="384" y="-147"/>
      <point x="354" y="-147" type="qcurve"/>
      <point x="320" y="-147"/>
      <point x="320" y="-115" type="qcurve"/>
      <point x="320" y="-87"/>
      <point x="368" y="-31"/>
      <point x="400" y="-2" type="qcurve"/>
      <point x="429" y="26" type="line"/>
      <point x="477" y="66"/>
      <point x="494" y="93" type="qcurve"/>
      <point x="430" y="155" type="line"/>
      <point x="385" y="78"/>
      <point x="294" y="78" type="qcurve"/>
      <point x="226" y="78"/>
      <point x="156" y="155"/>
      <point x="156" y="215" type="qcurve"/>
      <point x="156" y="232" type="line"/>
      <point x="512" y="232" type="line"/>
      <point x="512" y="273" type="line"/>
      <point x="512" y="342"/>
      <point x="463" y="460"/>
      <point x="360" y="532"/>
      <point x="280" y="532" type="qcurve"/>
      <point x="171" y="532"/>
      <point x="43" y="386"/>
      <point x="43" y="260" type="qcurve"/>
      <point x="43" y="137"/>
      <point x="169" y="-12"/>
      <point x="281" y="-12" type="qcurve"/>
      <point x="322" y="-12"/>
      <point x="346" y="-1" type="qcurve"/>
      <point x="348" y="-5" type="line"/>
      <point x="305" y="-28"/>
      <point x="241" y="-85"/>
      <point x="241" y="-129" type="qcurve"/>
      <point x="241" y="-171"/>
      <point x="303" y="-209"/>
    </contour>
    <contour>
      <point x="397" y="304" type="line"/>
      <point x="156" y="304" type="line"/>
      <point x="156" y="311" type="line"/>
      <point x="156" y="371"/>
      <point x="224" y="447"/>
      <point x="281" y="447" type="qcurve"/>
      <point x="336" y="447"/>
      <point x="397" y="374"/>
      <point x="397" y="314" type="qcurve"/>
    </contour>
  </outline>
</glyph>
<glyph name="Gcircumflex" format="2">
  <advance width="674"/>
  <unicode hex="011C"/>
  <outline>
    <contour>
      <point x="298" y="940" type="line"/>
      <point x="404" y="940" type="line"/>
      <point x="520" y="793" type="line"/>
      <point x="469" y="756" type="line"/>
      <point x="351" y="872" type="line"/>
      <point x="233" y="756" type="line"/>
      <point x="182" y="793" type="line"/>
    </contour>
    <contour>
      <point x="45" y="349" type="qcurve"/>
      <point x="45" y="468"/>
      <point x="117" y="630"/>
      <point x="252" y="710"/>
      <point x="344" y="710" type="qcurve"/>
      <point x="396" y="710"/>
      <point x="478" y="685"/>
      <point x="541" y="642"/>
      <point x="587" y="584"/>
      <point x="604" y="546" type="qcurve"/>
      <point x="513" y="496" type="line"/>
      <point x="501" y="532"/>
      <point x="459" y="583"/>
      <point x="393" y="613"/>
      <point x="345" y="613" type="qcurve"/>
      <point x="286" y="613"/>
      <point x="205" y="562"/>
      <point x="164" y="469"/>
      <point x="164" y="407" type="qcurve"/>
      <point x="164" y="292" type="line"/>
      <point x="164" y="242"/>
      <point x="189" y="165"/>
      <point x="235" y="113"/>
      <point x="304" y="85"/>
      <point x="348" y="85" type="qcurve"/>
      <point x="398" y="85"/>
      <point x="470" y="121"/>
      <point x="509" y="191"/>
      <point x="509" y="239" type="qcurve"/>
      <point x="509" y="274" type="line"/>
      <point x="327" y="274" type="line"/>
      <point x="327" y="372" type="line"/>
      <point x="618" y="372" type="line"/>
      <point x="618" y="255" type="line"/>
      <point x="618" y="177"/>
      <point x="563" y="74"/>
      <point x="477" y="13"/>
      <point x="379" y="-12"/>
      <point x="335" y="-12" type="qcurve"/>
      <point x="285" y="-12"/>
      <point x="198" y="15"/>
      <point x="126" y="71"/>
      <point x="73" y="159"/>
      <point x="45" y="275"/>
    </contour>
  </outline>
</glyph>
<glyph name="Gbreve" format="2">
  <advance width="674"/>
  <unicode hex="011E"/>
  <outline>
    <contour>
      <point x="351" y="760" type="qcurve" smooth="yes"/>
      <point x="310" y="760"/>
      <point x="254" y="785"/>
      <point x="219" y="826"/>
      <point x="197" y="873"/>
      <point x="190" y="896" type="qcurve"/>
      <point x="244" y="923" type="line"/>
      <point x="264" y="890" type="line" smooth="yes"/>
      <point x="280" y="864"/>
      <point x="316" y="833"/>
      <point x="351" y="833" type="qcurve" smooth="yes"/>
      <point x="387" y="833"/>
      <point x="423" y="864"/>
      <point x="438" y="890" type="qcurve"/>
      <point x="459" y="923" type="line"/>
      <point x="513" y="896" type="line"/>
      <point x="503" y="867"/>
      <point x="469" y="803"/>
      <point x="406" y="760"/>
    </contour>
    <contour>
      <point x="46" y="349" type="qcurve" smooth="yes"/>
      <point x="46" y="438"/>
      <point x="87" y="573"/>
      <point x="165" y="664"/>
      <point x="277" y="710"/>
      <point x="347" y="710" type="qcurve" smooth="yes"/>
      <point x="397" y="710"/>
      <point x="478" y="686"/>
      <point x="543" y="643"/>
      <point x="591" y="584"/>
      <point x="607" y="549" type="qcurve"/>
      <point x="516" y="500" type="line"/>
      <point x="499" y="548"/>
      <point x="418" y="615"/>
      <point x="348" y="615" type="qcurve" smooth="yes"/>
      <point x="303" y="615"/>
      <point x="235" y="584"/>
      <point x="189" y="529"/>
      <point x="165" y="453"/>
      <point x="165" y="408" type="qcurve" smooth="yes"/>
      <point x="165" y="298" type="line" smooth="yes"/>
      <point x="165" y="251"/>
      <point x="185" y="172"/>
      <point x="230" y="115"/>
      <point x="300" y="83"/>
      <point x="350" y="83" type="qcurve" smooth="yes"/>
      <point x="386" y="83"/>
      <point x="445" y="103"/>
      <point x="489" y="142"/>
      <point x="513" y="200"/>
      <point x="513" y="238" type="qcurve" smooth="yes"/>
      <point x="513" y="275" type="line"/>
      <point x="331" y="275" type="line"/>
      <point x="331" y="371" type="line"/>
      <point x="621" y="371" type="line"/>
      <point x="621" y="262" type="line" smooth="yes"/>
      <point x="621" y="186"/>
      <point x="570" y="81"/>
      <point x="489" y="17"/>
      <point x="388" y="-12"/>
      <point x="337" y="-12" type="qcurve" smooth="yes"/>
      <point x="276" y="-12"/>
      <point x="170" y="30"/>
      <point x="91" y="119"/>
      <point x="46" y="255"/>
    </contour>
  </outline>
</glyph>
<glyph name="Gdotaccent" format="2">
  <advance width="674"/>
  <unicode hex="0120"/>
  <outline>
    <contour>
      <point x="351" y="773" type="qcurve"/>
      <point x="318" y="773"/>
      <point x="287" y="805"/>
      <point x="287" y="830" type="qcurve"/>
      <point x="287" y="848" type="line"/>
      <point x="287" y="873"/>
      <point x="318" y="905"/>
      <point x="351" y="905" type="qcurve"/>
      <point x="385" y="905"/>
      <point x="415" y="873"/>
      <point x="415" y="848" type="qcurve"/>
      <point x="415" y="830" type="line"/>
      <point x="415" y="805"/>
      <point x="385" y="773"/>
    </contour>
    <contour>
      <point x="45" y="349" type="qcurve"/>
      <point x="45" y="468"/>
      <point x="117" y="630"/>
      <point x="252" y="710"/>
      <point x="344" y="710" type="qcurve"/>
      <point x="396" y="710"/>
      <point x="478" y="685"/>
      <point x="541" y="642"/>
      <point x="587" y="584"/>
      <point x="604" y="546" type="qcurve"/>
      <point x="513" y="496" type="line"/>
      <point x="501" y="532"/>
      <point x="459" y="583"/>
      <point x="393" y="613"/>
      <point x="345" y="613" type="qcurve"/>
      <point x="286" y="613"/>
      <point x="205" y="562"/>
      <point x="164" y="469"/>
      <point x="164" y="407" type="qcurve"/>
      <point x="164" y="292" type="line"/>
      <point x="164" y="242"/>
      <point x="189" y="165"/>
      <point x="235" y="113"/>
      <point x="304" y="85"/>
      <point x="348" y="85" type="qcurve"/>
      <point x="398" y="85"/>
      <point x="470" y="121"/>
      <point x="509" y="191"/>
      <point x="509" y="239" type="qcurve"/>
      <point x="509" y="274" type="line"/>
      <point x="327" y="274" type="line"/>
      <point x="327" y="372" type="line"/>
      <point x="618" y="372" type="line"/>
      <point x="618" y="255" type="line"/>
      <point x="618" y="177"/>
      <point x="563" y="74"/>
      <point x="477" y="13"/>
      <point x="379" y="-12"/>
      <point x="335" y="-12" type="qcurve"/>
      <point x="285" y="-12"/>
      <point x="198" y="15"/>
      <point x="126" y="71"/>
      <point x="73" y="159"/>
      <point x="45" y="275"/>
    </contour>
  </outline>
</glyph>
<glyph name="Gcedilla" format="2">
  <advance width="674"/>
  <unicode hex="0122"/>
  <outline>
    <contour>
      <point x="344" y="-60" type="qcurve"/>
      <point x="371" y="-60"/>
      <point x="400" y="-87"/>
      <point x="400" y="-111" type="qcurve"/>
      <point x="400" y="-122" type="line"/>
      <point x="400" y="-160"/>
      <point x="363" y="-229"/>
      <point x="338" y="-252" type="qcurve"/>
      <point x="273" y="-252" type="line"/>
      <point x="295" y="-231"/>
      <point x="320" y="-194"/>
      <point x="327" y="-169" type="qcurve"/>
      <point x="307" y="-166"/>
      <point x="288" y="-138"/>
      <point x="288" y="-121" type="qcurve"/>
      <point x="288" y="-111" type="line"/>
      <point x="288" y="-87"/>
      <point x="317" y="-60"/>
    </contour>
    <contour>
      <point x="45" y="349" type="qcurve"/>
      <point x="45" y="468"/>
      <point x="117" y="630"/>
      <point x="252" y="710"/>
      <point x="344" y="710" type="qcurve"/>
      <point x="396" y="710"/>
      <point x="478" y="685"/>
      <point x="541" y="642"/>
      <point x="587" y="584"/>
      <point x="604" y="546" type="qcurve"/>
      <point x="513" y="496" type="line"/>
      <point x="501" y="532"/>
      <point x="459" y="583"/>
      <point x="393" y="613"/>
      <point x="345" y="613" type="qcurve"/>
      <point x="286" y="613"/>
      <point x="205" y="562"/>
      <point x="164" y="469"/>
      <point x="164" y="407" type="qcurve"/>
      <point x="164" y="292" type="line"/>
      <point x="164" y="242"/>
      <point x="189" y="165"/>
      <point x="235" y="113"/>
      <point x="304" y="85"/>
      <point x="348" y="85" type="qcurve"/>
      <point x="398" y="85"/>
      <point x="470" y="121"/>
      <point x="509" y="191"/>
      <point x="509" y="239" type="qcurve"/>
      <point x="509" y="274" type="line"/>
      <point x="327" y="274" type="line"/>
      <point x="327" y="372" type="line"/>
      <point x="618" y="372" type="line"/>
      <point x="618" y="255" type="line"/>
      <point x="618" y="177"/>
      <point x="563" y="74"/>
      <point x="477" y="13"/>
      <point x="379" y="-12"/>
      <point x="335" y="-12" type="qcurve"/>
      <point x="285" y="-12"/>
      <point x="198" y="15"/>
      <point x="126" y="71"/>
      <point x="73" y="159"/>
      <point x="45" y="275"/>
    </contour>
  </outline>
</glyph>
<glyph name="uni0122" format="2">
  <advance width="674"/>
  <unicode hex="0122"/>
  <outline>
    <contour>
      <point x="46" y="349" type="qcurve" smooth="yes"/>
      <point x="46" y="438"/>
      <point x="87" y="573"/>
      <point x="165" y="664"/>
      <point x="277" y="710"/>
      <point x="347" y="710" type="qcurve" smooth="yes"/>
      <point x="397" y="710"/>
      <point x="478" y="686"/>
      <point x="543" y="643"/>
      <point x="591" y="584"/>
      <point x="607" y="549" type="qcurve"/>
      <point x="516" y="500" type="line"/>
      <point x="499" y="548"/>
      <point x="418" y="615"/>
      <point x="348" y="615" type="qcurve" smooth="yes"/>
      <point x="303" y="615"/>
      <point x="235" y="584"/>
      <point x="189" y="529"/>
      <point x="165" y="453"/>
      <point x="165" y="408" type="qcurve" smooth="yes"/>
      <point x="165" y="298" type="line" smooth="yes"/>
      <point x="165" y="251"/>
      <point x="185" y="172"/>
      <point x="230" y="115"/>
      <point x="300" y="83"/>
      <point x="350" y="83" type="qcurve" smooth="yes"/>
      <point x="386" y="83"/>
      <point x="445" y="103"/>
      <point x="489" y="142"/>
      <point x="513" y="200"/>
      <point x="513" y="238" type="qcurve" smooth="yes"/>
      <point x="513" y="275" type="line"/>
      <point x="331" y="275" type="line"/>
      <point x="331" y="371" type="line"/>
      <point x="621" y="371" type="line"/>
      <point x="621" y="262" type="line" smooth="yes"/>
      <point x="621" y="186"/>
      <point x="570" y="81"/>
      <point x="489" y="17"/>
      <point x="388" y="-12"/>
      <point x="337" y="-12" type="qcurve" smooth="yes"/>
      <point x="276" y="-12"/>
      <point x="170" y="30"/>
      <point x="91" y="119"/>
      <point x="46" y="255"/>
    </contour>
    <contour>
      <point x="344" y="-60" type="qcurve" smooth="yes"/>
      <point x="371" y="-60"/>
      <point x="400" y="-87"/>
      <point x="400" y="-111" type="qcurve" smooth="yes"/>
      <point x="400" y="-122" type="line" smooth="yes"/>
      <point x="400" y="-160"/>
      <point x="363" y="-229"/>
      <point x="338" y="-252" type="qcurve"/>
      <point x="273" y="-252" type="line"/>
      <point x="295" y="-231"/>
      <point x="320" y="-194"/>
      <point x="327" y="-169" type="qcurve"/>
      <point x="307" y="-166"/>
      <point x="288" y="-138"/>
      <point x="288" y="-121" type="qcurve" smooth="yes"/>
      <point x="288" y="-111" type="line" smooth="yes"/>
      <point x="288" y="-87"/>
      <point x="317" y="-60"/>
    </contour>
  </outline>
</glyph>
<glyph name="Hcircumflex" format="2">
  <advance width="714"/>
  <unicode hex="0124"/>
  <outline>
    <contour>
      <point x="357" y="868" type="line"/>
      <point x="238" y="752" type="line"/>
      <point x="182" y="794" type="line"/>
      <point x="302" y="944" type="line"/>
      <point x="412" y="944" type="line"/>
      <point x="532" y="794" type="line"/>
      <point x="476" y="752" type="line"/>
    </contour>
    <contour>
      <point x="515" y="0" type="line"/>
      <point x="515" y="304" type="line"/>
      <point x="199" y="304" type="line"/>
      <point x="199" y="0" type="line"/>
      <point x="86" y="0" type="line"/>
      <point x="86" y="698" type="line"/>
      <point x="199" y="698" type="line"/>
      <point x="199" y="404" type="line"/>
      <point x="515" y="404" type="line"/>
      <point x="515" y="698" type="line"/>
      <point x="628" y="698" type="line"/>
      <point x="628" y="0" type="line"/>
    </contour>
  </outline>
</glyph>
<glyph name="hbar" format="2">
  <advance width="580"/>
  <unicode hex="0127"/>
  <outline>
    <contour>
      <point x="398" y="0" type="line"/>
      <point x="398" y="317" type="line" smooth="yes"/>
      <point x="398" y="438"/>
      <point x="300" y="438" type="qcurve" smooth="yes"/>
      <point x="257" y="438"/>
      <point x="187" y="394"/>
      <point x="187" y="349" type="qcurve" smooth="yes"/>
      <point x="187" y="0" type="line"/>
      <point x="78" y="0" type="line"/>
      <point x="78" y="600" type="line"/>
      <point x="15" y="600" type="line"/>
      <point x="15" y="679" type="line"/>
      <point x="78" y="679" type="line"/>
      <point x="78" y="740" type="line"/>
      <point x="187" y="740" type="line"/>
      <point x="187" y="679" type="line"/>
      <point x="333" y="679" type="line"/>
      <point x="333" y="600" type="line"/>
      <point x="187" y="600" type="line"/>
      <point x="187" y="434" type="line"/>
      <point x="192" y="434" type="line"/>
      <point x="230" y="532"/>
      <point x="338" y="532" type="qcurve" smooth="yes"/>
      <point x="419" y="532"/>
      <point x="507" y="427"/>
      <point x="507" y="330" type="qcurve" smooth="yes"/>
      <point x="507" y="0" type="line"/>
    </contour>
  </outline>
</glyph>
<glyph name="itilde" format="2">
  <advance width="265"/>
  <unicode hex="0129"/>
  <outline>
    <contour>
      <point x="208" y="607" type="qcurve" smooth="yes"/>
      <point x="186" y="607"/>
      <point x="153" y="619"/>
      <point x="138" y="627" type="qcurve" smooth="yes"/>
      <point x="130" y="631" type="line"/>
      <point x="88" y="655"/>
      <point x="56" y="655" type="qcurve" smooth="yes"/>
      <point x="39" y="655"/>
      <point x="13" y="641"/>
      <point x="-2" y="628" type="qcurve"/>
      <point x="-43" y="680" type="line"/>
      <point x="-7" y="738"/>
      <point x="60" y="738" type="qcurve" smooth="yes"/>
      <point x="82" y="738"/>
      <point x="115" y="726"/>
      <point x="130" y="718" type="qcurve" smooth="yes"/>
      <point x="138" y="714" type="line"/>
      <point x="181" y="690"/>
      <point x="212" y="690" type="qcurve" smooth="yes"/>
      <point x="229" y="690"/>
      <point x="255" y="704"/>
      <point x="270" y="717" type="qcurve"/>
      <point x="311" y="665" type="line"/>
      <point x="275" y="607"/>
    </contour>
    <contour>
      <point x="78" y="0" type="line"/>
      <point x="78" y="520" type="line"/>
      <point x="187" y="520" type="line"/>
      <point x="187" y="0" type="line"/>
    </contour>
  </outline>
</glyph>
<glyph name="Ibreve" format="2">
  <advance width="285"/>
  <unicode hex="012C"/>
  <outline>
    <contour>
      <point x="142" y="755" type="qcurve"/>
      <point x="198" y="755"/>
      <point x="263" y="801"/>
      <point x="300" y="867"/>
      <point x="310" y="899" type="qcurve"/>
      <point x="250" y="930" type="line"/>
      <point x="230" y="897" type="line"/>
      <point x="214" y="868"/>
      <point x="176" y="835"/>
      <point x="142" y="835" type="qcurve"/>
      <point x="108" y="835"/>
      <point x="70" y="868"/>
      <point x="54" y="897" type="qcurve"/>
      <point x="34" y="930" type="line"/>
      <point x="-26" y="899" type="line"/>
      <point x="-18" y="868"/>
      <point x="20" y="802"/>
      <point x="87" y="755"/>
    </contour>
    <contour>
      <point x="199" y="0" type="line"/>
      <point x="199" y="698" type="line"/>
      <point x="86" y="698" type="line"/>
      <point x="86" y="0" type="line"/>
    </contour>
  </outline>
</glyph>
<glyph name="Iogonek" format="2">
  <advance width="285"/>
  <unicode hex="012E"/>
  <outline>
    <contour>
      <point x="122" y="-209" type="qcurve"/>
      <point x="202" y="-209"/>
      <point x="225" y="-165" type="qcurve"/>
      <point x="179" y="-121" type="line"/>
      <point x="160" y="-147"/>
      <point x="128" y="-147" type="qcurve"/>
      <point x="94" y="-147"/>
      <point x="94" y="-115" type="qcurve"/>
      <point x="94" y="-96"/>
      <point x="135" y="-49"/>
      <point x="199" y="0" type="qcurve"/>
      <point x="199" y="698" type="line"/>
      <point x="86" y="698" type="line"/>
      <point x="86" y="0" type="line"/>
      <point x="122" y="0" type="line"/>
      <point x="123" y="-5" type="line"/>
      <point x="72" y="-33"/>
      <point x="15" y="-90"/>
      <point x="15" y="-129" type="qcurve"/>
      <point x="15" y="-171"/>
      <point x="78" y="-209"/>
    </contour>
  </outline>
</glyph>
<glyph name="iogonek" format="2">
  <advance width="265"/>
  <unicode hex="012F"/>
  <outline>
    <contour>
      <point x="110" y="-209" type="qcurve"/>
      <point x="189" y="-209"/>
      <point x="213" y="-165" type="qcurve"/>
      <point x="167" y="-121" type="line"/>
      <point x="148" y="-147"/>
      <point x="116" y="-147" type="qcurve"/>
      <point x="82" y="-147"/>
      <point x="82" y="-115" type="qcurve"/>
      <point x="82" y="-96"/>
      <point x="123" y="-49"/>
      <point x="187" y="0" type="qcurve"/>
      <point x="187" y="520" type="line"/>
      <point x="78" y="520" type="line"/>
      <point x="78" y="0" type="line"/>
      <point x="111" y="0" type="line"/>
      <point x="112" y="-4" type="line"/>
      <point x="64" y="-31"/>
      <point x="3" y="-89"/>
      <point x="3" y="-129" type="qcurve"/>
      <point x="3" y="-171"/>
      <point x="66" y="-209"/>
    </contour>
    <contour>
      <point x="133" y="613" type="qcurve"/>
      <point x="167" y="613"/>
      <point x="197" y="645"/>
      <point x="197" y="670" type="qcurve"/>
      <point x="197" y="687" type="line"/>
      <point x="197" y="712"/>
      <point x="167" y="744"/>
      <point x="133" y="744" type="qcurve"/>
      <point x="99" y="744"/>
      <point x="68" y="712"/>
      <point x="68" y="687" type="qcurve"/>
      <point x="68" y="670" type="line"/>
      <point x="68" y="645"/>
      <point x="99" y="613"/>
    </contour>
  </outline>
</glyph>
<glyph name="Idotaccent" format="2">
  <advance width="285"/>
  <unicode hex="0130"/>
  <outline>
    <contour>
      <point x="143" y="768" type="qcurve" smooth="yes"/>
      <point x="73" y="768"/>
      <point x="73" y="828" type="qcurve" smooth="yes"/>
      <point x="73" y="849" type="line" smooth="yes"/>
      <point x="73" y="909"/>
      <point x="143" y="909" type="qcurve" smooth="yes"/>
      <point x="213" y="909"/>
      <point x="213" y="849" type="qcurve" smooth="yes"/>
      <point x="213" y="828" type="line" smooth="yes"/>
      <point x="213" y="768"/>
    </contour>
    <contour>
      <point x="86" y="0" type="line"/>
      <point x="86" y="698" type="line"/>
      <point x="199" y="698" type="line"/>
      <point x="199" y="0" type="line"/>
    </contour>
  </outline>
</glyph>
<glyph name="idotless" format="2">
  <advance width="265"/>
  <unicode hex="0131"/>
  <outline>
    <contour>
      <point x="187" y="0" type="line"/>
      <point x="187" y="520" type="line"/>
      <point x="78" y="520" type="line"/>
      <point x="78" y="0" type="line"/>
    </contour>
  </outline>
</glyph>
<glyph name="ij" format="2">
  <advance width="526"/>
  <unicode hex="0133"/>
  <outline>
    <contour>
      <point x="133" y="613" type="qcurve"/>
      <point x="167" y="613"/>
      <point x="197" y="645"/>
      <point x="197" y="670" type="qcurve"/>
      <point x="197" y="687" type="line"/>
      <point x="197" y="712"/>
      <point x="167" y="744"/>
      <point x="133" y="744" type="qcurve"/>
      <point x="99" y="744"/>
      <point x="68" y="712"/>
      <point x="68" y="687" type="qcurve"/>
      <point x="68" y="670" type="line"/>
      <point x="68" y="645"/>
      <point x="99" y="613"/>
    </contour>
    <contour>
      <point x="187" y="0" type="line"/>
      <point x="187" y="520" type="line"/>
      <point x="78" y="520" type="line"/>
      <point x="78" y="0" type="line"/>
    </contour>
    <contour>
      <point x="321" y="-200" type="line"/>
      <point x="387" y="-200"/>
      <point x="448" y="-130"/>
      <point x="448" y="-70" type="qcurve"/>
      <point x="448" y="520" type="line"/>
      <point x="339" y="520" type="line"/>
      <point x="339" y="-111" type="line"/>
      <point x="258" y="-111" type="line"/>
      <point x="258" y="-200" type="line"/>
    </contour>
    <contour>
      <point x="394" y="613" type="qcurve"/>
      <point x="428" y="613"/>
      <point x="458" y="645"/>
      <point x="458" y="670" type="qcurve"/>
      <point x="458" y="687" type="line"/>
      <point x="458" y="712"/>
      <point x="428" y="744"/>
      <point x="394" y="744" type="qcurve"/>
      <point x="360" y="744"/>
      <point x="329" y="712"/>
      <point x="329" y="687" type="qcurve"/>
      <point x="329" y="670" type="line"/>
      <point x="329" y="645"/>
      <point x="360" y="613"/>
    </contour>
  </outline>
</glyph>
<glyph name="Jcircumflex" format="2">
  <advance width="531"/>
  <unicode hex="0134"/>
  <outline>
    <contour>
      <point x="237" y="-12" type="qcurve"/>
      <point x="146" y="-12"/>
      <point x="41" y="84"/>
      <point x="27" y="163" type="qcurve"/>
      <point x="131" y="186" type="line"/>
      <point x="150" y="89"/>
      <point x="237" y="89" type="qcurve"/>
      <point x="282" y="89"/>
      <point x="336" y="145"/>
      <point x="336" y="202" type="qcurve"/>
      <point x="336" y="698" type="line"/>
      <point x="449" y="698" type="line"/>
      <point x="449" y="190" type="line"/>
      <point x="449" y="101"/>
      <point x="336" y="-12"/>
    </contour>
    <contour>
      <point x="400" y="752" type="line"/>
      <point x="281" y="868" type="line"/>
      <point x="162" y="752" type="line"/>
      <point x="106" y="794" type="line"/>
      <point x="226" y="944" type="line"/>
      <point x="336" y="944" type="line"/>
      <point x="456" y="794" type="line"/>
    </contour>
  </outline>
</glyph>
<glyph name="jcircumflex" format="2">
  <advance width="265"/>
  <unicode hex="0135"/>
  <outline>
    <contour>
      <point x="60" y="-200" type="line"/>
      <point x="126" y="-200"/>
      <point x="187" y="-130"/>
      <point x="187" y="-70" type="qcurve"/>
      <point x="187" y="520" type="line"/>
      <point x="78" y="520" type="line"/>
      <point x="78" y="-111" type="line"/>
      <point x="-3" y="-111" type="line"/>
      <point x="-3" y="-200" type="line"/>
    </contour>
    <contour>
      <point x="253" y="585" type="line"/>
      <point x="309" y="628" type="line"/>
      <point x="189" y="778" type="line"/>
      <point x="79" y="778" type="line"/>
      <point x="-41" y="628" type="line"/>
      <point x="15" y="585" type="line"/>
      <point x="134" y="702" type="line"/>
    </contour>
  </outline>
</glyph>
<glyph name="Lcedilla" format="2">
  <advance width="513"/>
  <unicode hex="013B"/>
  <outline>
    <contour>
      <point x="483" y="0" type="line"/>
      <point x="483" y="100" type="line"/>
      <point x="199" y="100" type="line"/>
      <point x="199" y="698" type="line"/>
      <point x="86" y="698" type="line"/>
      <point x="86" y="0" type="line"/>
    </contour>
    <contour>
      <point x="288" y="-258" type="line"/>
      <point x="315" y="-234"/>
      <point x="351" y="-161"/>
      <point x="351" y="-121" type="qcurve"/>
      <point x="351" y="-109" type="line"/>
      <point x="351" y="-56"/>
      <point x="292" y="-56" type="qcurve"/>
      <point x="234" y="-56"/>
      <point x="233" y="-109" type="qcurve"/>
      <point x="233" y="-120" type="line"/>
      <point x="233" y="-139"/>
      <point x="252" y="-168"/>
      <point x="274" y="-171" type="qcurve"/>
      <point x="263" y="-219"/>
      <point x="219" y="-258" type="qcurve"/>
    </contour>
  </outline>
</glyph>
<glyph name="lcaron" format="2">
  <advance width="310"/>
  <unicode hex="013E"/>
  <outline>
    <contour>
      <point x="243" y="542" type="line"/>
      <point x="253" y="740" type="line"/>
      <point x="373" y="740" type="line"/>
      <point x="315" y="542" type="line"/>
    </contour>
    <contour>
      <point x="189" y="0" type="line" smooth="yes"/>
      <point x="133" y="0"/>
      <point x="78" y="57"/>
      <point x="78" y="108" type="qcurve" smooth="yes"/>
      <point x="78" y="740" type="line"/>
      <point x="187" y="740" type="line"/>
      <point x="187" y="89" type="line"/>
      <point x="259" y="89" type="line"/>
      <point x="259" y="0" type="line"/>
    </contour>
  </outline>
</glyph>
<glyph name="Lmiddledot" format="2">
  <advance width="513"/>
  <unicode hex="013F"/>
  <outline>
    <contour>
      <point x="483" y="0" type="line"/>
      <point x="483" y="100" type="line"/>
      <point x="199" y="100" type="line"/>
      <point x="199" y="698" type="line"/>
      <point x="86" y="698" type="line"/>
      <point x="86" y="0" type="line"/>
    </contour>
    <contour>
      <point x="398" y="306" type="qcurve"/>
      <point x="465" y="306"/>
      <point x="465" y="363" type="qcurve"/>
      <point x="465" y="381" type="line"/>
      <point x="465" y="438"/>
      <point x="398" y="438" type="qcurve"/>
      <point x="331" y="438"/>
      <point x="331" y="381" type="qcurve"/>
      <point x="331" y="363" type="line"/>
      <point x="331" y="306"/>
    </contour>
  </outline>
</glyph>
<glyph name="Ncedilla" format="2">
  <advance width="714"/>
  <unicode hex="0145"/>
  <outline>
    <contour>
      <point x="628" y="0" type="line"/>
      <point x="628" y="698" type="line"/>
      <point x="520" y="698" type="line"/>
      <point x="520" y="164" type="line"/>
      <point x="517" y="164" type="line"/>
      <point x="440" y="312" type="line"/>
      <point x="212" y="698" type="line"/>
      <point x="86" y="698" type="line"/>
      <point x="86" y="0" type="line"/>
      <point x="194" y="0" type="line"/>
      <point x="194" y="534" type="line"/>
      <point x="197" y="534" type="line"/>
      <point x="274" y="386" type="line"/>
      <point x="502" y="0" type="line"/>
    </contour>
    <contour>
      <point x="352" y="-258" type="line"/>
      <point x="379" y="-234"/>
      <point x="415" y="-161"/>
      <point x="415" y="-121" type="qcurve"/>
      <point x="415" y="-109" type="line"/>
      <point x="415" y="-56"/>
      <point x="356" y="-56" type="qcurve"/>
      <point x="298" y="-56"/>
      <point x="297" y="-109" type="qcurve"/>
      <point x="297" y="-120" type="line"/>
      <point x="297" y="-139"/>
      <point x="316" y="-168"/>
      <point x="338" y="-171" type="qcurve"/>
      <point x="327" y="-219"/>
      <point x="283" y="-258" type="qcurve"/>
    </contour>
  </outline>
</glyph>
<glyph name="napostrophe" format="2">
  <advance width="844"/>
  <unicode hex="0149"/>
  <outline>
    <contour>
      <point x="119" y="479" type="line"/>
      <point x="162" y="515"/>
      <point x="217" y="619"/>
      <point x="217" y="668" type="qcurve"/>
      <point x="217" y="685" type="line"/>
      <point x="217" y="750"/>
      <point x="145" y="750" type="qcurve"/>
      <point x="73" y="750"/>
      <point x="73" y="685" type="qcurve"/>
      <point x="73" y="667" type="line"/>
      <point x="73" y="616"/>
      <point x="124" y="605" type="qcurve"/>
      <point x="104" y="538"/>
      <point x="41" y="479" type="qcurve"/>
    </contour>
    <contour>
      <point x="771" y="0" type="line"/>
      <point x="771" y="330" type="line"/>
      <point x="771" y="427"/>
      <point x="682" y="532"/>
      <point x="602" y="532" type="qcurve"/>
      <point x="494" y="532"/>
      <point x="456" y="434" type="qcurve"/>
      <point x="451" y="434" type="line"/>
      <point x="451" y="520" type="line"/>
      <point x="342" y="520" type="line"/>
      <point x="342" y="0" type="line"/>
      <point x="451" y="0" type="line"/>
      <point x="451" y="348" type="line"/>
      <point x="451" y="395"/>
      <point x="522" y="438"/>
      <point x="564" y="438" type="qcurve"/>
      <point x="662" y="438"/>
      <point x="662" y="316" type="qcurve"/>
      <point x="662" y="0" type="line"/>
    </contour>
  </outline>
</glyph>
<glyph name="eng" format="2">
  <advance width="580"/>
  <unicode hex="014B"/>
  <outline>
    <contour>
      <point x="317" y="-200" type="line"/>
      <point x="317" y="-111" type="line"/>
      <point x="398" y="-111" type="line"/>
      <point x="398" y="317" type="line" smooth="yes"/>
      <point x="398" y="438"/>
      <point x="300" y="438" type="qcurve" smooth="yes"/>
      <point x="256" y="438"/>
      <point x="187" y="394"/>
      <point x="187" y="349" type="qcurve" smooth="yes"/>
      <point x="187" y="0" type="line"/>
      <point x="78" y="0" type="line"/>
      <point x="78" y="520" type="line"/>
      <point x="187" y="520" type="line"/>
      <point x="187" y="434" type="line"/>
      <point x="192" y="434" type="line"/>
      <point x="230" y="532"/>
      <point x="338" y="532" type="qcurve" smooth="yes"/>
      <point x="418" y="532"/>
      <point x="507" y="427"/>
      <point x="507" y="330" type="qcurve" smooth="yes"/>
      <point x="507" y="-71" type="line" smooth="yes"/>
      <point x="507" y="-200"/>
      <point x="381" y="-200" type="qcurve" smooth="yes"/>
    </contour>
  </outline>
</glyph>
<glyph name="omacron" format="2">
  <advance width="564"/>
  <unicode hex="014D"/>
  <outline>
    <contour>
      <point x="282" y="-12" type="qcurve"/>
      <point x="394" y="-12"/>
      <point x="521" y="140"/>
      <point x="521" y="260" type="qcurve"/>
      <point x="521" y="388"/>
      <point x="388" y="532"/>
      <point x="282" y="532" type="qcurve"/>
      <point x="176" y="532"/>
      <point x="43" y="388"/>
      <point x="43" y="260" type="qcurve"/>
      <point x="43" y="140"/>
      <point x="170" y="-12"/>
    </contour>
    <contour>
      <point x="282" y="78" type="qcurve"/>
      <point x="226" y="78"/>
      <point x="158" y="147"/>
      <point x="158" y="216" type="qcurve"/>
      <point x="158" y="304" type="line"/>
      <point x="158" y="373"/>
      <point x="226" y="442"/>
      <point x="282" y="442" type="qcurve"/>
      <point x="338" y="442"/>
      <point x="406" y="373"/>
      <point x="406" y="304" type="qcurve"/>
      <point x="406" y="216" type="line"/>
      <point x="406" y="147"/>
      <point x="338" y="78"/>
    </contour>
    <contour>
      <point x="428" y="631" type="line"/>
      <point x="428" y="714" type="line"/>
      <point x="136" y="714" type="line"/>
      <point x="136" y="631" type="line"/>
    </contour>
  </outline>
</glyph>
<glyph name="obreve" format="2">
  <advance width="564"/>
  <unicode hex="014F"/>
  <outline>
    <contour>
      <point x="282" y="-12" type="qcurve"/>
      <point x="394" y="-12"/>
      <point x="521" y="140"/>
      <point x="521" y="260" type="qcurve"/>
      <point x="521" y="388"/>
      <point x="388" y="532"/>
      <point x="282" y="532" type="qcurve"/>
      <point x="176" y="532"/>
      <point x="43" y="388"/>
      <point x="43" y="260" type="qcurve"/>
      <point x="43" y="140"/>
      <point x="170" y="-12"/>
    </contour>
    <contour>
      <point x="282" y="78" type="qcurve"/>
      <point x="226" y="78"/>
      <point x="158" y="147"/>
      <point x="158" y="216" type="qcurve"/>
      <point x="158" y="304" type="line"/>
      <point x="158" y="373"/>
      <point x="226" y="442"/>
      <point x="282" y="442" type="qcurve"/>
      <point x="338" y="442"/>
      <point x="406" y="373"/>
      <point x="406" y="304" type="qcurve"/>
      <point x="406" y="216" type="line"/>
      <point x="406" y="147"/>
      <point x="338" y="78"/>
    </contour>
    <contour>
      <point x="281" y="589" type="qcurve"/>
      <point x="337" y="589"/>
      <point x="402" y="635"/>
      <point x="439" y="701"/>
      <point x="449" y="733" type="qcurve"/>
      <point x="389" y="763" type="line"/>
      <point x="368" y="730" type="line"/>
      <point x="352" y="702"/>
      <point x="314" y="669"/>
      <point x="281" y="669" type="qcurve"/>
      <point x="248" y="669"/>
      <point x="210" y="702"/>
      <point x="194" y="730" type="qcurve"/>
      <point x="173" y="763" type="line"/>
      <point x="113" y="733" type="line"/>
      <point x="123" y="701"/>
      <point x="160" y="635"/>
      <point x="225" y="589"/>
    </contour>
  </outline>
</glyph>
<glyph name="OE" format="2">
  <advance width="990"/>
  <unicode hex="0152"/>
  <outline>
    <contour>
      <point x="363" y="-12" type="qcurve" smooth="yes"/>
      <point x="216" y="-12"/>
      <point x="55" y="178"/>
      <point x="55" y="349" type="qcurve" smooth="yes"/>
      <point x="55" y="471"/>
      <point x="133" y="631"/>
      <point x="272" y="710"/>
      <point x="363" y="710" type="qcurve" smooth="yes"/>
      <point x="428" y="710"/>
      <point x="489" y="698" type="qcurve"/>
      <point x="930" y="698" type="line"/>
      <point x="930" y="598" type="line"/>
      <point x="596" y="598" type="line"/>
      <point x="596" y="404" type="line"/>
      <point x="899" y="404" type="line"/>
      <point x="899" y="304" type="line"/>
      <point x="596" y="304" type="line"/>
      <point x="596" y="100" type="line"/>
      <point x="930" y="100" type="line"/>
      <point x="930" y="0" type="line"/>
      <point x="486" y="0" type="line"/>
      <point x="428" y="-12"/>
    </contour>
    <contour>
      <point x="369" y="89" type="qcurve" smooth="yes"/>
      <point x="428" y="89"/>
      <point x="483" y="103" type="qcurve"/>
      <point x="483" y="595" type="line"/>
      <point x="428" y="609"/>
      <point x="369" y="609" type="qcurve" smooth="yes"/>
      <point x="272" y="609"/>
      <point x="176" y="500"/>
      <point x="176" y="404" type="qcurve" smooth="yes"/>
      <point x="176" y="294" type="line" smooth="yes"/>
      <point x="176" y="198"/>
      <point x="272" y="89"/>
    </contour>
  </outline>
</glyph>
<glyph name="Racute" format="2">
  <advance width="655"/>
  <unicode hex="0154"/>
  <outline>
    <contour>
      <point x="604" y="0" type="line"/>
      <point x="453" y="294" type="line"/>
      <point x="589" y="338"/>
      <point x="589" y="488" type="qcurve"/>
      <point x="589" y="585"/>
      <point x="481" y="698"/>
      <point x="387" y="698" type="qcurve"/>
      <point x="86" y="698" type="line"/>
      <point x="86" y="0" type="line"/>
      <point x="199" y="0" type="line"/>
      <point x="199" y="282" type="line"/>
      <point x="338" y="282" type="line"/>
      <point x="478" y="0" type="line"/>
    </contour>
    <contour>
      <point x="379" y="377" type="qcurve"/>
      <point x="199" y="377" type="line"/>
      <point x="199" y="599" type="line"/>
      <point x="379" y="599" type="line"/>
      <point x="422" y="599"/>
      <point x="470" y="554"/>
      <point x="470" y="512" type="qcurve"/>
      <point x="470" y="464" type="line"/>
      <point x="470" y="380"/>
    </contour>
    <contour>
      <point x="325" y="749" type="line"/>
      <point x="443" y="915" type="line"/>
      <point x="348" y="961" type="line"/>
      <point x="257" y="781" type="line"/>
    </contour>
  </outline>
</glyph>
<glyph name="racute" format="2">
  <advance width="383"/>
  <unicode hex="0155"/>
  <outline>
    <contour>
      <point x="187" y="0" type="line"/>
      <point x="187" y="332" type="line"/>
      <point x="187" y="415"/>
      <point x="321" y="415" type="qcurve"/>
      <point x="364" y="415" type="line"/>
      <point x="364" y="520" type="line"/>
      <point x="335" y="520" type="line"/>
      <point x="273" y="520"/>
      <point x="203" y="461"/>
      <point x="192" y="420" type="qcurve"/>
      <point x="187" y="420" type="line"/>
      <point x="187" y="520" type="line"/>
      <point x="78" y="520" type="line"/>
      <point x="78" y="0" type="line"/>
    </contour>
    <contour>
      <point x="233" y="582" type="line"/>
      <point x="351" y="749" type="line"/>
      <point x="256" y="795" type="line"/>
      <point x="165" y="615" type="line"/>
    </contour>
  </outline>
</glyph>
<glyph name="rcedilla" format="2">
  <advance width="383"/>
  <unicode hex="0157"/>
  <outline>
    <contour>
      <point x="187" y="0" type="line"/>
      <point x="187" y="332" type="line"/>
      <point x="187" y="415"/>
      <point x="321" y="415" type="qcurve"/>
      <point x="364" y="415" type="line"/>
      <point x="364" y="520" type="line"/>
      <point x="335" y="520" type="line"/>
      <point x="273" y="520"/>
      <point x="203" y="461"/>
      <point x="192" y="420" type="qcurve"/>
      <point x="187" y="420" type="line"/>
      <point x="187" y="520" type="line"/>
      <point x="78" y="520" type="line"/>
      <point x="78" y="0" type="line"/>
    </contour>
    <contour>
      <point x="129" y="-258" type="line"/>
      <point x="156" y="-234"/>
      <point x="192" y="-161"/>
      <point x="192" y="-121" type="qcurve"/>
      <point x="192" y="-109" type="line"/>
      <point x="192" y="-56"/>
      <point x="133" y="-56" type="qcurve"/>
      <point x="75" y="-56"/>
      <point x="74" y="-109" type="qcurve"/>
      <point x="74" y="-120" type="line"/>
      <point x="74" y="-139"/>
      <point x="93" y="-168"/>
      <point x="115" y="-171" type="qcurve"/>
      <point x="104" y="-219"/>
      <point x="60" y="-258" type="qcurve"/>
    </contour>
  </outline>
</glyph>
<glyph name="rcaron" format="2">
  <advance width="383"/>
  <unicode hex="0159"/>
  <outline>
    <contour>
      <point x="167" y="594" type="line"/>
      <point x="47" y="744" type="line"/>
      <point x="103" y="786" type="line"/>
      <point x="222" y="670" type="line"/>
      <point x="341" y="786" type="line"/>
      <point x="397" y="744" type="line"/>
      <point x="277" y="594" type="line"/>
    </contour>
    <contour>
      <point x="78" y="0" type="line"/>
      <point x="78" y="520" type="line"/>
      <point x="187" y="520" type="line"/>
      <point x="187" y="420" type="line"/>
      <point x="192" y="420" type="line"/>
      <point x="203" y="461"/>
      <point x="273" y="520"/>
      <point x="335" y="520" type="qcurve" smooth="yes"/>
      <point x="364" y="520" type="line"/>
      <point x="364" y="415" type="line"/>
      <point x="321" y="415" type="line" smooth="yes"/>
      <point x="187" y="415"/>
      <point x="187" y="332" type="qcurve" smooth="yes"/>
      <point x="187" y="0" type="line"/>
    </contour>
  </outline>
</glyph>
<glyph name="Tcaron" format="2">
  <advance width="577"/>
  <unicode hex="0164"/>
  <outline>
    <contour>
      <point x="234" y="760" type="line"/>
      <point x="114" y="910" type="line"/>
      <point x="170" y="952" type="line"/>
      <point x="289" y="836" type="line"/>
      <point x="408" y="952" type="line"/>
      <point x="464" y="910" type="line"/>
      <point x="344" y="760" type="line"/>
    </contour>
    <contour>
      <point x="232" y="0" type="line"/>
      <point x="232" y="598" type="line"/>
      <point x="24" y="598" type="line"/>
      <point x="24" y="698" type="line"/>
      <point x="553" y="698" type="line"/>
      <point x="553" y="598" type="line"/>
      <point x="345" y="598" type="line"/>
      <point x="345" y="0" type="line"/>
    </contour>
  </outline>
</glyph>
<glyph name="tbar" format="2">
  <advance width="372"/>
  <unicode hex="0167"/>
  <outline>
    <contour>
      <point x="225" y="0" type="line" smooth="yes"/>
      <point x="168" y="0"/>
      <point x="110" y="59"/>
      <point x="110" y="113" type="qcurve" smooth="yes"/>
      <point x="110" y="236" type="line"/>
      <point x="46" y="236" type="line"/>
      <point x="46" y="315" type="line"/>
      <point x="110" y="315" type="line"/>
      <point x="110" y="431" type="line"/>
      <point x="30" y="431" type="line"/>
      <point x="30" y="520" type="line"/>
      <point x="78" y="520" type="line" smooth="yes"/>
      <point x="121" y="520"/>
      <point x="121" y="571" type="qcurve" smooth="yes"/>
      <point x="121" y="662" type="line"/>
      <point x="219" y="662" type="line"/>
      <point x="219" y="520" type="line"/>
      <point x="328" y="520" type="line"/>
      <point x="328" y="431" type="line"/>
      <point x="219" y="431" type="line"/>
      <point x="219" y="315" type="line"/>
      <point x="308" y="315" type="line"/>
      <point x="308" y="236" type="line"/>
      <point x="219" y="236" type="line"/>
      <point x="219" y="89" type="line"/>
      <point x="320" y="89" type="line"/>
      <point x="320" y="0" type="line"/>
    </contour>
  </outline>
</glyph>
<glyph name="Utilde" format="2">
  <advance width="686"/>
  <unicode hex="0168"/>
  <outline>
    <contour>
      <point x="343" y="-12" type="qcurve"/>
      <point x="486" y="-12"/>
      <point x="604" y="133"/>
      <point x="604" y="286" type="qcurve"/>
      <point x="604" y="698" type="line"/>
      <point x="493" y="698" type="line"/>
      <point x="493" y="268" type="line"/>
      <point x="493" y="179"/>
      <point x="425" y="89"/>
      <point x="343" y="89" type="qcurve"/>
      <point x="261" y="89"/>
      <point x="193" y="179"/>
      <point x="193" y="268" type="qcurve"/>
      <point x="193" y="698" type="line"/>
      <point x="82" y="698" type="line"/>
      <point x="82" y="286" type="line"/>
      <point x="82" y="133"/>
      <point x="200" y="-12"/>
    </contour>
    <contour>
      <point x="417" y="773" type="qcurve"/>
      <point x="484" y="773"/>
      <point x="520" y="831" type="qcurve"/>
      <point x="479" y="883" type="line"/>
      <point x="464" y="870"/>
      <point x="438" y="857"/>
      <point x="421" y="857" type="qcurve"/>
      <point x="390" y="857"/>
      <point x="347" y="880" type="qcurve"/>
      <point x="339" y="884" type="line"/>
      <point x="324" y="892"/>
      <point x="291" y="904"/>
      <point x="269" y="904" type="qcurve"/>
      <point x="202" y="904"/>
      <point x="166" y="846" type="qcurve"/>
      <point x="207" y="794" type="line"/>
      <point x="222" y="807"/>
      <point x="248" y="820"/>
      <point x="265" y="820" type="qcurve"/>
      <point x="297" y="820"/>
      <point x="339" y="797" type="qcurve"/>
      <point x="347" y="793" type="line"/>
      <point x="362" y="785"/>
      <point x="395" y="773"/>
    </contour>
  </outline>
</glyph>
<glyph name="utilde" format="2">
  <advance width="580"/>
  <unicode hex="0169"/>
  <outline>
    <contour>
      <point x="363" y="607" type="qcurve" smooth="yes"/>
      <point x="341" y="607"/>
      <point x="308" y="619"/>
      <point x="293" y="627" type="qcurve" smooth="yes"/>
      <point x="285" y="631" type="line"/>
      <point x="243" y="655"/>
      <point x="211" y="655" type="qcurve" smooth="yes"/>
      <point x="194" y="655"/>
      <point x="168" y="641"/>
      <point x="153" y="628" type="qcurve"/>
      <point x="112" y="680" type="line"/>
      <point x="148" y="738"/>
      <point x="215" y="738" type="qcurve" smooth="yes"/>
      <point x="237" y="738"/>
      <point x="270" y="726"/>
      <point x="285" y="718" type="qcurve" smooth="yes"/>
      <point x="293" y="714" type="line"/>
      <point x="336" y="690"/>
      <point x="367" y="690" type="qcurve" smooth="yes"/>
      <point x="384" y="690"/>
      <point x="410" y="704"/>
      <point x="425" y="717" type="qcurve"/>
      <point x="466" y="665" type="line"/>
      <point x="430" y="607"/>
    </contour>
    <contour>
      <point x="243" y="-12" type="qcurve" smooth="yes"/>
      <point x="162" y="-12"/>
      <point x="73" y="92"/>
      <point x="73" y="189" type="qcurve" smooth="yes"/>
      <point x="73" y="520" type="line"/>
      <point x="182" y="520" type="line"/>
      <point x="182" y="203" type="line" smooth="yes"/>
      <point x="182" y="82"/>
      <point x="282" y="82" type="qcurve" smooth="yes"/>
      <point x="324" y="82"/>
      <point x="393" y="126"/>
      <point x="393" y="172" type="qcurve" smooth="yes"/>
      <point x="393" y="520" type="line"/>
      <point x="502" y="520" type="line"/>
      <point x="502" y="0" type="line"/>
      <point x="393" y="0" type="line"/>
      <point x="393" y="86" type="line"/>
      <point x="389" y="86" type="line"/>
      <point x="357" y="-12"/>
    </contour>
  </outline>
</glyph>
<glyph name="Umacron" format="2">
  <advance width="686"/>
  <unicode hex="016A"/>
  <outline>
    <contour>
      <point x="343" y="-12" type="qcurve"/>
      <point x="486" y="-12"/>
      <point x="604" y="133"/>
      <point x="604" y="286" type="qcurve"/>
      <point x="604" y="698" type="line"/>
      <point x="493" y="698" type="line"/>
      <point x="493" y="268" type="line"/>
      <point x="493" y="179"/>
      <point x="425" y="89"/>
      <point x="343" y="89" type="qcurve"/>
      <point x="261" y="89"/>
      <point x="193" y="179"/>
      <point x="193" y="268" type="qcurve"/>
      <point x="193" y="698" type="line"/>
      <point x="82" y="698" type="line"/>
      <point x="82" y="286" type="line"/>
      <point x="82" y="133"/>
      <point x="200" y="-12"/>
    </contour>
    <contour>
      <point x="489" y="798" type="line"/>
      <point x="489" y="881" type="line"/>
      <point x="197" y="881" type="line"/>
      <point x="197" y="798" type="line"/>
    </contour>
  </outline>
</glyph>
<glyph name="umacron" format="2">
  <advance width="580"/>
  <unicode hex="016B"/>
  <outline>
    <contour>
      <point x="243" y="-12" type="qcurve"/>
      <point x="357" y="-12"/>
      <point x="389" y="86" type="qcurve"/>
      <point x="393" y="86" type="line"/>
      <point x="393" y="0" type="line"/>
      <point x="502" y="0" type="line"/>
      <point x="502" y="520" type="line"/>
      <point x="393" y="520" type="line"/>
      <point x="393" y="172" type="line"/>
      <point x="393" y="126"/>
      <point x="324" y="82"/>
      <point x="282" y="82" type="qcurve"/>
      <point x="182" y="82"/>
      <point x="182" y="203" type="qcurve"/>
      <point x="182" y="520" type="line"/>
      <point x="73" y="520" type="line"/>
      <point x="73" y="189" type="line"/>
      <point x="73" y="92"/>
      <point x="162" y="-12"/>
    </contour>
    <contour>
      <point x="435" y="631" type="line"/>
      <point x="435" y="714" type="line"/>
      <point x="143" y="714" type="line"/>
      <point x="143" y="631" type="line"/>
    </contour>
  </outline>
</glyph>
<glyph name="Ubreve" format="2">
  <advance width="686"/>
  <unicode hex="016C"/>
  <outline>
    <contour>
      <point x="343" y="-12" type="qcurve"/>
      <point x="486" y="-12"/>
      <point x="604" y="133"/>
      <point x="604" y="286" type="qcurve"/>
      <point x="604" y="698" type="line"/>
      <point x="493" y="698" type="line"/>
      <point x="493" y="268" type="line"/>
      <point x="493" y="179"/>
      <point x="425" y="89"/>
      <point x="343" y="89" type="qcurve"/>
      <point x="261" y="89"/>
      <point x="193" y="179"/>
      <point x="193" y="268" type="qcurve"/>
      <point x="193" y="698" type="line"/>
      <point x="82" y="698" type="line"/>
      <point x="82" y="286" type="line"/>
      <point x="82" y="133"/>
      <point x="200" y="-12"/>
    </contour>
    <contour>
      <point x="342" y="755" type="qcurve"/>
      <point x="398" y="755"/>
      <point x="463" y="801"/>
      <point x="500" y="867"/>
      <point x="510" y="899" type="qcurve"/>
      <point x="450" y="930" type="line"/>
      <point x="430" y="897" type="line"/>
      <point x="414" y="868"/>
      <point x="376" y="835"/>
      <point x="342" y="835" type="qcurve"/>
      <point x="308" y="835"/>
      <point x="270" y="868"/>
      <point x="254" y="897" type="qcurve"/>
      <point x="234" y="930" type="line"/>
      <point x="174" y="899" type="line"/>
      <point x="182" y="868"/>
      <point x="220" y="802"/>
      <point x="287" y="755"/>
    </contour>
  </outline>
</glyph>
<glyph name="Uring" format="2">
  <advance width="686"/>
  <unicode hex="016E"/>
  <outline>
    <contour>
      <point x="343" y="734" type="qcurve" smooth="yes"/>
      <point x="286" y="734"/>
      <point x="213" y="808"/>
      <point x="213" y="861" type="qcurve" smooth="yes"/>
      <point x="213" y="914"/>
      <point x="286" y="988"/>
      <point x="343" y="988" type="qcurve" smooth="yes"/>
      <point x="399" y="988"/>
      <point x="473" y="916"/>
      <point x="473" y="861" type="qcurve" smooth="yes"/>
      <point x="473" y="806"/>
      <point x="399" y="734"/>
    </contour>
    <contour>
      <point x="343" y="795" type="qcurve"/>
      <point x="398" y="799"/>
      <point x="398" y="848" type="qcurve" smooth="yes"/>
      <point x="398" y="875" type="line"/>
      <point x="396" y="928"/>
      <point x="343" y="928" type="qcurve"/>
      <point x="288" y="925"/>
      <point x="288" y="875" type="qcurve" smooth="yes"/>
      <point x="288" y="848" type="line"/>
      <point x="291" y="795"/>
    </contour>
    <contour>
      <point x="343" y="-12" type="qcurve" smooth="yes"/>
      <point x="200" y="-12"/>
      <point x="82" y="133"/>
      <point x="82" y="286" type="qcurve" smooth="yes"/>
      <point x="82" y="698" type="line"/>
      <point x="193" y="698" type="line"/>
      <point x="193" y="268" type="line" smooth="yes"/>
      <point x="193" y="179"/>
      <point x="261" y="89"/>
      <point x="343" y="89" type="qcurve" smooth="yes"/>
      <point x="425" y="89"/>
      <point x="493" y="179"/>
      <point x="493" y="268" type="qcurve" smooth="yes"/>
      <point x="493" y="698" type="line"/>
      <point x="604" y="698" type="line"/>
      <point x="604" y="286" type="line" smooth="yes"/>
      <point x="604" y="133"/>
      <point x="486" y="-12"/>
    </contour>
  </outline>
</glyph>
<glyph name="uring" format="2">
  <advance width="580"/>
  <unicode hex="016F"/>
  <outline>
    <contour>
      <point x="289" y="568" type="qcurve" smooth="yes"/>
      <point x="232" y="568"/>
      <point x="159" y="642"/>
      <point x="159" y="695" type="qcurve" smooth="yes"/>
      <point x="159" y="748"/>
      <point x="232" y="822"/>
      <point x="289" y="822" type="qcurve" smooth="yes"/>
      <point x="345" y="822"/>
      <point x="419" y="750"/>
      <point x="419" y="695" type="qcurve" smooth="yes"/>
      <point x="419" y="640"/>
      <point x="345" y="568"/>
    </contour>
    <contour>
      <point x="289" y="628" type="qcurve"/>
      <point x="344" y="629"/>
      <point x="344" y="681" type="qcurve" smooth="yes"/>
      <point x="344" y="711" type="line" smooth="yes"/>
      <point x="344" y="762"/>
      <point x="289" y="762" type="qcurve" smooth="yes"/>
      <point x="234" y="762"/>
      <point x="234" y="709" type="qcurve" smooth="yes"/>
      <point x="234" y="681" type="line" smooth="yes"/>
      <point x="234" y="628"/>
    </contour>
    <contour>
      <point x="243" y="-12" type="qcurve" smooth="yes"/>
      <point x="162" y="-12"/>
      <point x="73" y="92"/>
      <point x="73" y="189" type="qcurve" smooth="yes"/>
      <point x="73" y="520" type="line"/>
      <point x="182" y="520" type="line"/>
      <point x="182" y="203" type="line" smooth="yes"/>
      <point x="182" y="82"/>
      <point x="282" y="82" type="qcurve" smooth="yes"/>
      <point x="324" y="82"/>
      <point x="393" y="126"/>
      <point x="393" y="172" type="qcurve" smooth="yes"/>
      <point x="393" y="520" type="line"/>
      <point x="502" y="520" type="line"/>
      <point x="502" y="0" type="line"/>
      <point x="393" y="0" type="line"/>
      <point x="393" y="86" type="line"/>
      <point x="389" y="86" type="line"/>
      <point x="357" y="-12"/>
    </contour>
  </outline>
</glyph>
<glyph name="Udoubleacute" format="2">
  <advance width="686"/>
  <unicode hex="0170"/>
  <outline>
    <contour>
      <point x="343" y="-12" type="qcurve"/>
      <point x="486" y="-12"/>
      <point x="604" y="133"/>
      <point x="604" y="286" type="qcurve"/>
      <point x="604" y="698" type="line"/>
      <point x="493" y="698" type="line"/>
      <point x="493" y="268" type="line"/>
      <point x="493" y="179"/>
      <point x="425" y="89"/>
      <point x="343" y="89" type="qcurve"/>
      <point x="261" y="89"/>
      <point x="193" y="179"/>
      <point x="193" y="268" type="qcurve"/>
      <point x="193" y="698" type="line"/>
      <point x="82" y="698" type="line"/>
      <point x="82" y="286" type="line"/>
      <point x="82" y="133"/>
      <point x="200" y="-12"/>
    </contour>
    <contour>
      <point x="263" y="749" type="line"/>
      <point x="381" y="915" type="line"/>
      <point x="292" y="959" type="line"/>
      <point x="201" y="778" type="line"/>
    </contour>
    <contour>
      <point x="442" y="749" type="line"/>
      <point x="560" y="915" type="line"/>
      <point x="471" y="959" type="line"/>
      <point x="380" y="778" type="line"/>
    </contour>
  </outline>
</glyph>
<glyph name="Uogonek" format="2">
  <advance width="686"/>
  <unicode hex="0172"/>
  <outline>
    <contour>
      <point x="421" y="-209" type="qcurve"/>
      <point x="501" y="-209"/>
      <point x="523" y="-165" type="qcurve"/>
      <point x="478" y="-121" type="line"/>
      <point x="459" y="-147"/>
      <point x="427" y="-147" type="qcurve"/>
      <point x="393" y="-147"/>
      <point x="393" y="-116" type="qcurve"/>
      <point x="393" y="-96"/>
      <point x="427" y="-60"/>
      <point x="457" y="-35" type="qcurve"/>
      <point x="486" y="-9" type="line"/>
      <point x="553" y="48"/>
      <point x="604" y="183"/>
      <point x="604" y="286" type="qcurve"/>
      <point x="604" y="698" type="line"/>
      <point x="493" y="698" type="line"/>
      <point x="493" y="268" type="line"/>
      <point x="493" y="179"/>
      <point x="425" y="89"/>
      <point x="343" y="89" type="qcurve"/>
      <point x="261" y="89"/>
      <point x="193" y="179"/>
      <point x="193" y="268" type="qcurve"/>
      <point x="193" y="698" type="line"/>
      <point x="82" y="698" type="line"/>
      <point x="82" y="286" type="line"/>
      <point x="82" y="133"/>
      <point x="198" y="-12"/>
      <point x="341" y="-12" type="qcurve"/>
      <point x="389" y="-12"/>
      <point x="428" y="-1" type="qcurve"/>
      <point x="431" y="-6" type="line"/>
      <point x="378" y="-34"/>
      <point x="314" y="-89"/>
      <point x="314" y="-131" type="qcurve"/>
      <point x="314" y="-172"/>
      <point x="378" y="-209"/>
    </contour>
  </outline>
</glyph>
<glyph name="uogonek" format="2">
  <advance width="581"/>
  <unicode hex="0173"/>
  <outline>
    <contour>
      <point x="425" y="-209" type="qcurve"/>
      <point x="504" y="-209"/>
      <point x="528" y="-165" type="qcurve"/>
      <point x="482" y="-121" type="line"/>
      <point x="462" y="-147"/>
      <point x="431" y="-147" type="qcurve"/>
      <point x="397" y="-147"/>
      <point x="397" y="-115" type="qcurve"/>
      <point x="397" y="-96"/>
      <point x="438" y="-49"/>
      <point x="502" y="0" type="qcurve"/>
      <point x="502" y="520" type="line"/>
      <point x="393" y="520" type="line"/>
      <point x="393" y="172" type="line"/>
      <point x="393" y="126"/>
      <point x="324" y="82"/>
      <point x="282" y="82" type="qcurve"/>
      <point x="182" y="82"/>
      <point x="182" y="203" type="qcurve"/>
      <point x="182" y="520" type="line"/>
      <point x="73" y="520" type="line"/>
      <point x="73" y="189" type="line"/>
      <point x="73" y="92"/>
      <point x="162" y="-12"/>
      <point x="243" y="-12" type="qcurve"/>
      <point x="357" y="-12"/>
      <point x="389" y="86" type="qcurve"/>
      <point x="393" y="86" type="line"/>
      <point x="393" y="0" type="line"/>
      <point x="426" y="0" type="line"/>
      <point x="427" y="-3" type="line"/>
      <point x="378" y="-30"/>
      <point x="318" y="-89"/>
      <point x="318" y="-129" type="qcurve"/>
      <point x="318" y="-171"/>
      <point x="381" y="-209"/>
    </contour>
  </outline>
</glyph>
<glyph name="Wcircumflex" format="2">
  <advance width="926"/>
  <unicode hex="0174"/>
  <outline>
    <contour>
      <point x="730" y="0" type="line"/>
      <point x="902" y="698" type="line"/>
      <point x="791" y="698" type="line"/>
      <point x="667" y="131" type="line"/>
      <point x="664" y="131" type="line"/>
      <point x="579" y="487" type="line"/>
      <point x="527" y="698" type="line"/>
      <point x="401" y="698" type="line"/>
      <point x="316" y="352" type="line"/>
      <point x="262" y="130" type="line"/>
      <point x="259" y="130" type="line"/>
      <point x="139" y="698" type="line"/>
      <point x="24" y="698" type="line"/>
      <point x="189" y="0" type="line"/>
      <point x="316" y="0" type="line"/>
      <point x="460" y="573" type="line"/>
      <point x="462" y="573" type="line"/>
      <point x="603" y="0" type="line"/>
    </contour>
    <contour>
      <point x="583" y="752" type="line"/>
      <point x="639" y="794" type="line"/>
      <point x="519" y="944" type="line"/>
      <point x="409" y="944" type="line"/>
      <point x="289" y="794" type="line"/>
      <point x="345" y="752" type="line"/>
      <point x="464" y="868" type="line"/>
    </contour>
  </outline>
</glyph>
<glyph name="wcircumflex" format="2">
  <advance width="799"/>
  <unicode hex="0175"/>
  <outline>
    <contour>
      <point x="400" y="702" type="line"/>
      <point x="281" y="585" type="line"/>
      <point x="225" y="628" type="line"/>
      <point x="345" y="778" type="line"/>
      <point x="455" y="778" type="line"/>
      <point x="575" y="628" type="line"/>
      <point x="519" y="585" type="line"/>
    </contour>
    <contour>
      <point x="510" y="0" type="line"/>
      <point x="400" y="383" type="line"/>
      <point x="398" y="383" type="line"/>
      <point x="367" y="272"/>
      <point x="354" y="226"/>
      <point x="288" y="0" type="qcurve"/>
      <point x="168" y="0" type="line"/>
      <point x="26" y="520" type="line"/>
      <point x="132" y="520" type="line"/>
      <point x="232" y="105" type="line"/>
      <point x="235" y="105" type="line"/>
      <point x="265" y="216" type="line"/>
      <point x="312" y="383" type="line"/>
      <point x="352" y="520" type="line"/>
      <point x="450" y="520" type="line"/>
      <point x="490" y="383" type="line" smooth="yes"/>
      <point x="511" y="314"/>
      <point x="538" y="216" type="qcurve" smooth="yes"/>
      <point x="569" y="105" type="line"/>
      <point x="572" y="105" type="line"/>
      <point x="597" y="211" type="line" smooth="yes"/>
      <point x="619" y="307"/>
      <point x="640" y="392" type="qcurve" smooth="yes"/>
      <point x="672" y="520" type="line"/>
      <point x="773" y="520" type="line"/>
      <point x="633" y="0" type="line"/>
    </contour>
  </outline>
</glyph>
<glyph name="ycircumflex" format="2">
  <advance width="514"/>
  <unicode hex="0177"/>
  <outline>
    <contour>
      <point x="260" y="702" type="line"/>
      <point x="141" y="585" type="line"/>
      <point x="85" y="628" type="line"/>
      <point x="205" y="778" type="line"/>
      <point x="315" y="778" type="line"/>
      <point x="435" y="628" type="line"/>
      <point x="379" y="585" type="line"/>
    </contour>
    <contour>
      <point x="83" y="-200" type="line"/>
      <point x="83" y="-111" type="line"/>
      <point x="171" y="-111" type="line"/>
      <point x="201" y="-23" type="line"/>
      <point x="12" y="520" type="line"/>
      <point x="121" y="520" type="line"/>
      <point x="225" y="214" type="line"/>
      <point x="255" y="101" type="line"/>
      <point x="260" y="101" type="line"/>
      <point x="293" y="214" type="line"/>
      <point x="397" y="520" type="line"/>
      <point x="502" y="520" type="line"/>
      <point x="283" y="-103" type="line"/>
      <point x="265" y="-157"/>
      <point x="203" y="-200"/>
      <point x="146" y="-200" type="qcurve" smooth="yes"/>
    </contour>
  </outline>
</glyph>
<glyph name="zacute" format="2">
  <advance width="487"/>
  <unicode hex="017A"/>
  <outline>
    <contour>
      <point x="451" y="0" type="line"/>
      <point x="451" y="89" type="line"/>
      <point x="161" y="89" type="line"/>
      <point x="444" y="436" type="line"/>
      <point x="444" y="520" type="line"/>
      <point x="45" y="520" type="line"/>
      <point x="45" y="431" type="line"/>
      <point x="315" y="431" type="line"/>
      <point x="36" y="88" type="line"/>
      <point x="36" y="0" type="line"/>
    </contour>
    <contour>
      <point x="256" y="582" type="line"/>
      <point x="374" y="749" type="line"/>
      <point x="279" y="795" type="line"/>
      <point x="188" y="615" type="line"/>
    </contour>
  </outline>
</glyph>
<glyph name="Schwa" format="2">
  <advance width="712"/>
  <unicode hex="018F"/>
  <outline>
    <contour>
      <point x="355" y="-12" type="qcurve"/>
      <point x="490" y="-12"/>
      <point x="657" y="171"/>
      <point x="657" y="349" type="qcurve"/>
      <point x="657" y="527"/>
      <point x="490" y="710"/>
      <point x="355" y="710" type="qcurve"/>
      <point x="282" y="710"/>
      <point x="174" y="659"/>
      <point x="102" y="575"/>
      <point x="83" y="524" type="qcurve"/>
      <point x="182" y="483" type="line"/>
      <point x="226" y="609"/>
      <point x="355" y="609" type="qcurve"/>
      <point x="431" y="609"/>
      <point x="537" y="501"/>
      <point x="537" y="401" type="qcurve"/>
      <point x="537" y="383" type="line"/>
      <point x="55" y="383" type="line"/>
      <point x="55" y="349" type="line"/>
      <point x="55" y="178"/>
      <point x="212" y="-12"/>
    </contour>
    <contour>
      <point x="355" y="89" type="qcurve"/>
      <point x="296" y="89"/>
      <point x="252" y="122" type="qcurve"/>
      <point x="177" y="177"/>
      <point x="174" y="290" type="qcurve"/>
      <point x="537" y="290" type="line"/>
      <point x="534" y="196"/>
      <point x="433" y="89"/>
    </contour>
  </outline>
</glyph>
<glyph name="uhorn" format="2">
  <advance width="581"/>
  <unicode hex="01B0"/>
  <outline>
    <contour>
      <point x="243" y="-12" type="qcurve"/>
      <point x="357" y="-12"/>
      <point x="389" y="86" type="qcurve"/>
      <point x="393" y="86" type="line"/>
      <point x="393" y="0" type="line"/>
      <point x="502" y="0" type="line"/>
      <point x="502" y="452" type="line"/>
      <point x="547" y="452"/>
      <point x="577" y="494"/>
      <point x="577" y="531" type="qcurve"/>
      <point x="577" y="629" type="line"/>
      <point x="483" y="629" type="line"/>
      <point x="483" y="520" type="line"/>
      <point x="393" y="520" type="line"/>
      <point x="393" y="172" type="line"/>
      <point x="393" y="126"/>
      <point x="324" y="82"/>
      <point x="282" y="82" type="qcurve"/>
      <point x="182" y="82"/>
      <point x="182" y="203" type="qcurve"/>
      <point x="182" y="520" type="line"/>
      <point x="73" y="520" type="line"/>
      <point x="73" y="189" type="line"/>
      <point x="73" y="92"/>
      <point x="162" y="-12"/>
    </contour>
  </outline>
</glyph>
<glyph name="aringacute" format="2">
  <advance width="538"/>
  <unicode hex="01FB"/>
  <outline>
    <contour>
      <point x="263" y="814" type="line"/>
      <point x="217" y="854" type="line"/>
      <point x="315" y="970" type="line"/>
      <point x="381" y="914" type="line"/>
    </contour>
    <contour>
      <point x="260" y="565" type="qcurve" smooth="yes"/>
      <point x="204" y="565"/>
      <point x="129" y="628"/>
      <point x="129" y="682" type="qcurve" smooth="yes"/>
      <point x="129" y="736"/>
      <point x="204" y="799"/>
      <point x="260" y="799" type="qcurve" smooth="yes"/>
      <point x="316" y="799"/>
      <point x="391" y="736"/>
      <point x="391" y="682" type="qcurve" smooth="yes"/>
      <point x="391" y="628"/>
      <point x="316" y="565"/>
    </contour>
    <contour>
      <point x="260" y="623" type="qcurve"/>
      <point x="317" y="624"/>
      <point x="317" y="673" type="qcurve" smooth="yes"/>
      <point x="317" y="691" type="line"/>
      <point x="314" y="741"/>
      <point x="260" y="741" type="qcurve" smooth="yes"/>
      <point x="203" y="741"/>
      <point x="203" y="691" type="qcurve" smooth="yes"/>
      <point x="203" y="673" type="line"/>
      <point x="206" y="623"/>
    </contour>
    <contour>
      <point x="208" y="-12" type="qcurve" smooth="yes"/>
      <point x="127" y="-12"/>
      <point x="40" y="72"/>
      <point x="40" y="143" type="qcurve" smooth="yes"/>
      <point x="40" y="299"/>
      <point x="262" y="299" type="qcurve" smooth="yes"/>
      <point x="356" y="299" type="line"/>
      <point x="356" y="343" type="line" smooth="yes"/>
      <point x="356" y="443"/>
      <point x="249" y="443" type="qcurve" smooth="yes"/>
      <point x="203" y="443"/>
      <point x="145" y="403"/>
      <point x="125" y="372" type="qcurve"/>
      <point x="60" y="431" type="line"/>
      <point x="118" y="532"/>
      <point x="256" y="532" type="qcurve" smooth="yes"/>
      <point x="357" y="532"/>
      <point x="465" y="438"/>
      <point x="465" y="350" type="qcurve" smooth="yes"/>
      <point x="465" y="0" type="line"/>
      <point x="365" y="0" type="line"/>
      <point x="365" y="87" type="line"/>
      <point x="360" y="87" type="line"/>
      <point x="345" y="38"/>
      <point x="265" y="-12"/>
    </contour>
    <contour>
      <point x="239" y="71" type="qcurve" smooth="yes"/>
      <point x="290" y="71"/>
      <point x="356" y="116"/>
      <point x="356" y="154" type="qcurve" smooth="yes"/>
      <point x="356" y="229" type="line"/>
      <point x="264" y="229" type="line" smooth="yes"/>
      <point x="152" y="229"/>
      <point x="151" y="159" type="qcurve"/>
      <point x="151" y="141" type="line" smooth="yes"/>
      <point x="151" y="71"/>
    </contour>
  </outline>
</glyph>
<glyph name="aeacute" format="2">
  <advance width="865"/>
  <unicode hex="01FD"/>
  <outline>
    <contour>
      <point x="241" y="71" type="qcurve"/>
      <point x="156" y="71"/>
      <point x="151" y="143" type="qcurve"/>
      <point x="151" y="161" type="line"/>
      <point x="151" y="230"/>
      <point x="264" y="232" type="qcurve"/>
      <point x="356" y="232" type="line"/>
      <point x="356" y="154" type="line"/>
      <point x="356" y="116"/>
      <point x="289" y="71"/>
    </contour>
    <contour>
      <point x="707" y="304" type="line"/>
      <point x="465" y="304" type="line"/>
      <point x="465" y="371"/>
      <point x="536" y="447"/>
      <point x="591" y="447" type="qcurve"/>
      <point x="645" y="447"/>
      <point x="707" y="374"/>
      <point x="707" y="314" type="qcurve"/>
    </contour>
    <contour>
      <point x="599" y="-12" type="qcurve"/>
      <point x="668" y="-12"/>
      <point x="774" y="44"/>
      <point x="804" y="93" type="qcurve"/>
      <point x="740" y="155" type="line"/>
      <point x="695" y="78"/>
      <point x="604" y="78" type="qcurve"/>
      <point x="538" y="78"/>
      <point x="465" y="155"/>
      <point x="465" y="215" type="qcurve"/>
      <point x="465" y="232" type="line"/>
      <point x="822" y="232" type="line"/>
      <point x="822" y="273" type="line"/>
      <point x="822" y="342"/>
      <point x="775" y="460"/>
      <point x="675" y="532"/>
      <point x="597" y="532" type="qcurve"/>
      <point x="529" y="532"/>
      <point x="436" y="473"/>
      <point x="418" y="434" type="qcurve"/>
      <point x="412" y="434" type="line"/>
      <point x="401" y="459"/>
      <point x="364" y="503"/>
      <point x="304" y="532"/>
      <point x="256" y="532" type="qcurve"/>
      <point x="118" y="532"/>
      <point x="60" y="431" type="qcurve"/>
      <point x="125" y="373" type="line"/>
      <point x="145" y="404"/>
      <point x="202" y="443"/>
      <point x="250" y="443" type="qcurve"/>
      <point x="356" y="443"/>
      <point x="356" y="343" type="qcurve"/>
      <point x="356" y="304" type="line"/>
      <point x="262" y="304" type="line"/>
      <point x="156" y="304"/>
      <point x="40" y="222"/>
      <point x="40" y="143" type="qcurve"/>
      <point x="40" y="74"/>
      <point x="129" y="-12"/>
      <point x="208" y="-12" type="qcurve"/>
      <point x="264" y="-12"/>
      <point x="343" y="23"/>
      <point x="389" y="73"/>
      <point x="396" y="98" type="qcurve"/>
      <point x="402" y="98" type="line"/>
      <point x="411" y="73"/>
      <point x="463" y="23"/>
      <point x="545" y="-12"/>
    </contour>
    <contour>
      <point x="433" y="582" type="line"/>
      <point x="551" y="749" type="line"/>
      <point x="456" y="795" type="line"/>
      <point x="365" y="615" type="line"/>
    </contour>
  </outline>
</glyph>
<glyph name="Oslashacute" format="2">
  <advance width="712"/>
  <unicode hex="01FE"/>
  <outline>
    <contour>
      <point x="136" y="-50" type="line"/>
      <point x="193" y="32" type="line"/>
      <point x="262" y="-12"/>
      <point x="356" y="-12" type="qcurve"/>
      <point x="496" y="-12"/>
      <point x="657" y="177"/>
      <point x="657" y="349" type="qcurve"/>
      <point x="657" y="517"/>
      <point x="583" y="607" type="qcurve"/>
      <point x="648" y="701" type="line"/>
      <point x="576" y="748" type="line"/>
      <point x="519" y="666" type="line"/>
      <point x="451" y="710"/>
      <point x="356" y="710" type="qcurve"/>
      <point x="214" y="710"/>
      <point x="55" y="518"/>
      <point x="55" y="349" type="qcurve"/>
      <point x="55" y="181"/>
      <point x="129" y="91" type="qcurve"/>
      <point x="64" y="-3" type="line"/>
    </contour>
    <contour>
      <point x="196" y="181" type="line"/>
      <point x="173" y="229"/>
      <point x="173" y="292" type="qcurve"/>
      <point x="173" y="406" type="line"/>
      <point x="173" y="506"/>
      <point x="277" y="614"/>
      <point x="356" y="614" type="qcurve"/>
      <point x="419" y="614"/>
      <point x="464" y="580" type="qcurve"/>
    </contour>
    <contour>
      <point x="356" y="84" type="qcurve"/>
      <point x="293" y="84"/>
      <point x="248" y="118" type="qcurve"/>
      <point x="516" y="517" type="line"/>
      <point x="539" y="469"/>
      <point x="539" y="406" type="qcurve"/>
      <point x="539" y="292" type="line"/>
      <point x="539" y="192"/>
      <point x="435" y="84"/>
    </contour>
    <contour>
      <point x="367" y="749" type="line"/>
      <point x="485" y="915" type="line"/>
      <point x="390" y="961" type="line"/>
      <point x="299" y="781" type="line"/>
    </contour>
  </outline>
</glyph>
<glyph name="oslashacute" format="2">
  <advance width="570"/>
  <unicode hex="01FF"/>
  <outline>
    <contour>
      <point x="86" y="-44" type="line"/>
      <point x="147" y="29" type="line"/>
      <point x="203" y="-12"/>
      <point x="285" y="-12" type="qcurve"/>
      <point x="397" y="-12"/>
      <point x="524" y="140"/>
      <point x="524" y="260" type="qcurve"/>
      <point x="524" y="367"/>
      <point x="476" y="435" type="qcurve"/>
      <point x="544" y="519" type="line"/>
      <point x="484" y="564" type="line"/>
      <point x="423" y="490" type="line"/>
      <point x="365" y="532"/>
      <point x="285" y="532" type="qcurve"/>
      <point x="179" y="532"/>
      <point x="46" y="388"/>
      <point x="46" y="260" type="qcurve"/>
      <point x="46" y="152"/>
      <point x="93" y="84" type="qcurve"/>
      <point x="26" y="1" type="line"/>
    </contour>
    <contour>
      <point x="285" y="75" type="qcurve"/>
      <point x="233" y="75"/>
      <point x="202" y="103" type="qcurve"/>
      <point x="405" y="352" type="line"/>
      <point x="411" y="329"/>
      <point x="411" y="302" type="qcurve"/>
      <point x="411" y="218" type="line"/>
      <point x="411" y="148"/>
      <point x="342" y="75"/>
    </contour>
    <contour>
      <point x="165" y="168" type="line"/>
      <point x="159" y="190"/>
      <point x="159" y="218" type="qcurve"/>
      <point x="159" y="302" type="line"/>
      <point x="159" y="372"/>
      <point x="228" y="445"/>
      <point x="285" y="445" type="qcurve"/>
      <point x="335" y="445"/>
      <point x="368" y="416" type="qcurve"/>
    </contour>
    <contour>
      <point x="293" y="582" type="line"/>
      <point x="411" y="749" type="line"/>
      <point x="316" y="795" type="line"/>
      <point x="225" y="615" type="line"/>
    </contour>
  </outline>
</glyph>
<glyph name="Scommaaccent" format="2">
  <advance width="598"/>
  <unicode hex="0218"/>
  <outline>
    <contour>
      <point x="295" y="-12" type="qcurve"/>
      <point x="415" y="-12"/>
      <point x="548" y="108"/>
      <point x="548" y="205" type="qcurve"/>
      <point x="548" y="289"/>
      <point x="451" y="385"/>
      <point x="346" y="405" type="qcurve"/>
      <point x="284" y="418" type="line"/>
      <point x="227" y="428"/>
      <point x="173" y="472"/>
      <point x="173" y="516" type="qcurve"/>
      <point x="173" y="608"/>
      <point x="299" y="610" type="qcurve"/>
      <point x="405" y="610"/>
      <point x="462" y="533" type="qcurve"/>
      <point x="541" y="603" type="line"/>
      <point x="457" y="710"/>
      <point x="305" y="710" type="qcurve"/>
      <point x="187" y="710"/>
      <point x="61" y="597"/>
      <point x="61" y="510" type="qcurve"/>
      <point x="61" y="426"/>
      <point x="163" y="329"/>
      <point x="265" y="311" type="qcurve"/>
      <point x="327" y="300" type="line"/>
      <point x="387" y="288"/>
      <point x="436" y="240"/>
      <point x="436" y="199" type="qcurve"/>
      <point x="436" y="148"/>
      <point x="368" y="88"/>
      <point x="301" y="88" type="qcurve"/>
      <point x="192" y="88"/>
      <point x="118" y="179" type="qcurve"/>
      <point x="40" y="106" type="line"/>
      <point x="134" y="-12"/>
    </contour>
    <contour>
      <point x="290" y="-258" type="line"/>
      <point x="317" y="-234"/>
      <point x="353" y="-161"/>
      <point x="353" y="-121" type="qcurve"/>
      <point x="353" y="-109" type="line"/>
      <point x="353" y="-56"/>
      <point x="294" y="-56" type="qcurve"/>
      <point x="236" y="-56"/>
      <point x="235" y="-109" type="qcurve"/>
      <point x="235" y="-120" type="line"/>
      <point x="235" y="-139"/>
      <point x="254" y="-168"/>
      <point x="276" y="-171" type="qcurve"/>
      <point x="265" y="-219"/>
      <point x="221" y="-258" type="qcurve"/>
    </contour>
  </outline>
</glyph>
<glyph name="schwa" format="2">
  <advance width="556"/>
  <unicode hex="0259"/>
  <outline>
    <contour>
      <point x="275" y="-12" type="qcurve"/>
      <point x="381" y="-12"/>
      <point x="513" y="130"/>
      <point x="513" y="260" type="qcurve"/>
      <point x="513" y="385"/>
      <point x="387" y="532"/>
      <point x="275" y="532" type="qcurve"/>
      <point x="203" y="532"/>
      <point x="95" y="476"/>
      <point x="65" y="427" type="qcurve"/>
      <point x="130" y="364" type="line"/>
      <point x="175" y="442"/>
      <point x="265" y="442" type="qcurve"/>
      <point x="331" y="442"/>
      <point x="400" y="365"/>
      <point x="400" y="305" type="qcurve"/>
      <point x="400" y="288" type="line"/>
      <point x="43" y="288" type="line"/>
      <point x="43" y="247" type="line"/>
      <point x="43" y="174"/>
      <point x="96" y="57"/>
      <point x="200" y="-12"/>
    </contour>
    <contour>
      <point x="274" y="73" type="qcurve"/>
      <point x="219" y="73"/>
      <point x="157" y="146"/>
      <point x="157" y="206" type="qcurve"/>
      <point x="157" y="216" type="line"/>
      <point x="400" y="216" type="line"/>
      <point x="400" y="149"/>
      <point x="330" y="73"/>
    </contour>
  </outline>
</glyph>
<glyph name="circumflexmod" format="2">
  <advance width="600"/>
  <unicode hex="02C6"/>
  <outline>
    <contour>
      <point x="419" y="585" type="line"/>
      <point x="475" y="628" type="line"/>
      <point x="355" y="778" type="line"/>
      <point x="245" y="778" type="line"/>
      <point x="125" y="628" type="line"/>
      <point x="181" y="585" type="line"/>
      <point x="300" y="702" type="line"/>
    </contour>
  </outline>
</glyph>
<glyph name="brevemod" format="2">
  <advance width="600"/>
  <unicode hex="02D8"/>
  <outline>
    <contour>
      <point x="300" y="589" type="qcurve"/>
      <point x="356" y="589"/>
      <point x="421" y="635"/>
      <point x="458" y="701"/>
      <point x="468" y="733" type="qcurve"/>
      <point x="408" y="763" type="line"/>
      <point x="387" y="730" type="line"/>
      <point x="371" y="702"/>
      <point x="333" y="669"/>
      <point x="300" y="669" type="qcurve"/>
      <point x="267" y="669"/>
      <point x="229" y="702"/>
      <point x="213" y="730" type="qcurve"/>
      <point x="192" y="763" type="line"/>
      <point x="132" y="733" type="line"/>
      <point x="142" y="701"/>
      <point x="179" y="635"/>
      <point x="244" y="589"/>
    </contour>
  </outline>
</glyph>
<glyph name="dotaccent" format="2">
  <advance width="600"/>
  <unicode hex="02D9"/>
  <outline>
    <contour>
      <point x="300" y="605" type="qcurve" smooth="yes"/>
      <point x="233" y="605"/>
      <point x="233" y="662" type="qcurve" smooth="yes"/>
      <point x="233" y="680" type="line" smooth="yes"/>
      <point x="233" y="737"/>
      <point x="300" y="737" type="qcurve" smooth="yes"/>
      <point x="367" y="737"/>
      <point x="367" y="680" type="qcurve" smooth="yes"/>
      <point x="367" y="662" type="line" smooth="yes"/>
      <point x="367" y="605"/>
    </contour>
  </outline>
</glyph>
<glyph name="dotaccentmod" format="2">
  <advance width="600"/>
  <unicode hex="02D9"/>
  <outline>
    <contour>
      <point x="300" y="605" type="qcurve"/>
      <point x="367" y="605"/>
      <point x="367" y="662" type="qcurve"/>
      <point x="367" y="680" type="line"/>
      <point x="367" y="737"/>
      <point x="300" y="737" type="qcurve"/>
      <point x="233" y="737"/>
      <point x="233" y="680" type="qcurve"/>
      <point x="233" y="662" type="line"/>
      <point x="233" y="605"/>
    </contour>
  </outline>
</glyph>
<glyph name="ring" format="2">
  <advance width="600"/>
  <unicode hex="02DA"/>
  <outline>
    <contour>
      <point x="300" y="568" type="qcurve" smooth="yes"/>
      <point x="243" y="568"/>
      <point x="170" y="642"/>
      <point x="170" y="695" type="qcurve" smooth="yes"/>
      <point x="170" y="748"/>
      <point x="243" y="822"/>
      <point x="300" y="822" type="qcurve" smooth="yes"/>
      <point x="356" y="822"/>
      <point x="430" y="750"/>
      <point x="430" y="695" type="qcurve" smooth="yes"/>
      <point x="430" y="640"/>
      <point x="356" y="568"/>
    </contour>
    <contour>
      <point x="300" y="628" type="qcurve"/>
      <point x="355" y="629"/>
      <point x="355" y="681" type="qcurve" smooth="yes"/>
      <point x="355" y="711" type="line" smooth="yes"/>
      <point x="355" y="762"/>
      <point x="300" y="762" type="qcurve" smooth="yes"/>
      <point x="245" y="762"/>
      <point x="245" y="709" type="qcurve" smooth="yes"/>
      <point x="245" y="681" type="line" smooth="yes"/>
      <point x="245" y="628"/>
    </contour>
  </outline>
</glyph>
<glyph name="ringmod" format="2">
  <advance width="600"/>
  <unicode hex="02DA"/>
  <outline>
    <contour>
      <point x="300" y="568" type="qcurve"/>
      <point x="356" y="568"/>
      <point x="430" y="640"/>
      <point x="430" y="695" type="qcurve"/>
      <point x="430" y="750"/>
      <point x="356" y="822"/>
      <point x="300" y="822" type="qcurve"/>
      <point x="243" y="822"/>
      <point x="170" y="748"/>
      <point x="170" y="695" type="qcurve"/>
      <point x="170" y="642"/>
      <point x="243" y="568"/>
    </contour>
    <contour>
      <point x="300" y="628" type="qcurve"/>
      <point x="245" y="628"/>
      <point x="245" y="681" type="qcurve"/>
      <point x="245" y="709" type="line"/>
      <point x="245" y="762"/>
      <point x="300" y="762" type="qcurve"/>
      <point x="355" y="762"/>
      <point x="355" y="711" type="qcurve"/>
      <point x="355" y="681" type="line"/>
      <point x="355" y="629"/>
    </contour>
  </outline>
</glyph>
<glyph name="ogonekmod" format="2">
  <advance width="600"/>
  <unicode hex="02DB"/>
  <outline>
    <contour>
      <point x="239" y="-209" type="qcurve"/>
      <point x="319" y="-209"/>
      <point x="342" y="-165" type="qcurve"/>
      <point x="296" y="-121" type="line"/>
      <point x="277" y="-147"/>
      <point x="245" y="-147" type="qcurve"/>
      <point x="211" y="-147"/>
      <point x="211" y="-115" type="qcurve"/>
      <point x="211" y="-96"/>
      <point x="252" y="-49"/>
      <point x="316" y="0" type="qcurve"/>
      <point x="307" y="22" type="line"/>
      <point x="237" y="22" type="line"/>
      <point x="243" y="1" type="line"/>
      <point x="191" y="-29"/>
      <point x="132" y="-88"/>
      <point x="132" y="-129" type="qcurve"/>
      <point x="132" y="-171"/>
      <point x="195" y="-209"/>
    </contour>
  </outline>
</glyph>
<glyph name="tilde" format="2">
  <advance width="600"/>
  <unicode hex="02DC"/>
  <outline>
    <contour>
      <point x="374" y="607" type="qcurve" smooth="yes"/>
      <point x="352" y="607"/>
      <point x="319" y="619"/>
      <point x="304" y="627" type="qcurve" smooth="yes"/>
      <point x="296" y="631" type="line"/>
      <point x="254" y="655"/>
      <point x="222" y="655" type="qcurve" smooth="yes"/>
      <point x="205" y="655"/>
      <point x="179" y="641"/>
      <point x="164" y="628" type="qcurve"/>
      <point x="123" y="680" type="line"/>
      <point x="159" y="738"/>
      <point x="226" y="738" type="qcurve" smooth="yes"/>
      <point x="248" y="738"/>
      <point x="281" y="726"/>
      <point x="296" y="718" type="qcurve" smooth="yes"/>
      <point x="304" y="714" type="line"/>
      <point x="347" y="690"/>
      <point x="378" y="690" type="qcurve" smooth="yes"/>
      <point x="395" y="690"/>
      <point x="421" y="704"/>
      <point x="436" y="717" type="qcurve"/>
      <point x="477" y="665" type="line"/>
      <point x="441" y="607"/>
    </contour>
  </outline>
</glyph>
<glyph name="tildemod" format="2">
  <advance width="600"/>
  <unicode hex="02DC"/>
  <outline>
    <contour>
      <point x="374" y="607" type="qcurve"/>
      <point x="441" y="607"/>
      <point x="477" y="665" type="qcurve"/>
      <point x="436" y="717" type="line"/>
      <point x="421" y="704"/>
      <point x="395" y="690"/>
      <point x="378" y="690" type="qcurve"/>
      <point x="347" y="690"/>
      <point x="304" y="714" type="qcurve"/>
      <point x="296" y="718" type="line"/>
      <point x="281" y="726"/>
      <point x="248" y="738"/>
      <point x="226" y="738" type="qcurve"/>
      <point x="159" y="738"/>
      <point x="123" y="680" type="qcurve"/>
      <point x="164" y="628" type="line"/>
      <point x="179" y="641"/>
      <point x="205" y="655"/>
      <point x="222" y="655" type="qcurve"/>
      <point x="254" y="655"/>
      <point x="296" y="631" type="qcurve"/>
      <point x="304" y="627" type="line"/>
      <point x="319" y="619"/>
      <point x="352" y="607"/>
    </contour>
  </outline>
</glyph>
<glyph name="gravecomb" format="2">
  <advance width="0"/>
  <unicode hex="0300"/>
  <outline>
    <contour>
      <point x="-10" y="582" type="line"/>
      <point x="58" y="615" type="line"/>
      <point x="-33" y="795" type="line"/>
      <point x="-128" y="749" type="line"/>
    </contour>
  </outline>
</glyph>
<glyph name="circumflexcomb" format="2">
  <advance width="0"/>
  <unicode hex="0302"/>
  <outline>
    <contour>
      <point x="120" y="585" type="line"/>
      <point x="176" y="628" type="line"/>
      <point x="56" y="778" type="line"/>
      <point x="-54" y="778" type="line"/>
      <point x="-174" y="628" type="line"/>
      <point x="-118" y="585" type="line"/>
      <point x="1" y="702" type="line"/>
    </contour>
  </outline>
</glyph>
<glyph name="dotaccentcomb" format="2">
  <advance width="0"/>
  <unicode hex="0307"/>
  <outline>
    <contour>
      <point x="1" y="605" type="qcurve"/>
      <point x="68" y="605"/>
      <point x="68" y="662" type="qcurve"/>
      <point x="68" y="680" type="line"/>
      <point x="68" y="737"/>
      <point x="1" y="737" type="qcurve"/>
      <point x="-66" y="737"/>
      <point x="-66" y="680" type="qcurve"/>
      <point x="-66" y="662" type="line"/>
      <point x="-66" y="605"/>
    </contour>
  </outline>
</glyph>
<glyph name="hookcomb" format="2">
  <advance width="0"/>
  <unicode hex="0309"/>
  <outline>
    <contour>
      <point x="28" y="574" type="line"/>
      <point x="54" y="605" type="line"/>
      <point x="106" y="669"/>
      <point x="106" y="718" type="qcurve"/>
      <point x="106" y="781"/>
      <point x="24" y="781" type="qcurve"/>
      <point x="-99" y="781" type="line"/>
      <point x="-99" y="701" type="line"/>
      <point x="20" y="701" type="line"/>
      <point x="-30" y="602" type="line"/>
    </contour>
  </outline>
</glyph>
<glyph name="turnedcommacomb" format="2">
  <advance width="0"/>
  <unicode hex="0312"/>
  <outline>
    <contour>
      <point x="1" y="587" type="qcurve"/>
      <point x="60" y="587"/>
      <point x="60" y="640" type="qcurve"/>
      <point x="60" y="651" type="line"/>
      <point x="60" y="670"/>
      <point x="41" y="699"/>
      <point x="19" y="702" type="qcurve"/>
      <point x="30" y="751"/>
      <point x="74" y="789" type="qcurve"/>
      <point x="5" y="789" type="line"/>
      <point x="-22" y="765"/>
      <point x="-58" y="693"/>
      <point x="-58" y="653" type="qcurve"/>
      <point x="-58" y="640" type="line"/>
      <point x="-58" y="591"/>
    </contour>
  </outline>
</glyph>
<glyph name="commaaccentcomb" format="2">
  <advance width="0"/>
  <unicode hex="0326"/>
  <outline>
    <contour>
      <point x="-5" y="-258" type="line"/>
      <point x="22" y="-234"/>
      <point x="58" y="-161"/>
      <point x="58" y="-121" type="qcurve"/>
      <point x="58" y="-109" type="line"/>
      <point x="58" y="-56"/>
      <point x="-1" y="-56" type="qcurve"/>
      <point x="-59" y="-56"/>
      <point x="-60" y="-109" type="qcurve"/>
      <point x="-60" y="-120" type="line"/>
      <point x="-60" y="-139"/>
      <point x="-41" y="-168"/>
      <point x="-19" y="-171" type="qcurve"/>
      <point x="-30" y="-219"/>
      <point x="-74" y="-258" type="qcurve"/>
    </contour>
  </outline>
</glyph>
<glyph name="ogonekcomb" format="2">
  <advance width="0"/>
  <unicode hex="0328"/>
  <outline>
    <contour>
      <point x="-55" y="-209" type="qcurve"/>
      <point x="25" y="-209"/>
      <point x="48" y="-165" type="qcurve"/>
      <point x="2" y="-121" type="line"/>
      <point x="-17" y="-147"/>
      <point x="-49" y="-147" type="qcurve"/>
      <point x="-83" y="-147"/>
      <point x="-83" y="-115" type="qcurve"/>
      <point x="-83" y="-96"/>
      <point x="-42" y="-49"/>
      <point x="22" y="0" type="qcurve"/>
      <point x="13" y="22" type="line"/>
      <point x="-57" y="22" type="line"/>
      <point x="-51" y="1" type="line"/>
      <point x="-103" y="-29"/>
      <point x="-162" y="-88"/>
      <point x="-162" y="-129" type="qcurve"/>
      <point x="-162" y="-171"/>
      <point x="-99" y="-209"/>
    </contour>
  </outline>
</glyph>
<glyph name="uni037E" format="2">
  <advance width="301"/>
  <unicode hex="037E"/>
  <outline>
    <contour>
      <point x="151" y="384" type="qcurve" smooth="yes"/>
      <point x="107" y="384"/>
      <point x="83" y="427"/>
      <point x="83" y="462" type="qcurve" smooth="yes"/>
      <point x="83" y="489"/>
      <point x="114" y="526"/>
      <point x="151" y="526" type="qcurve" smooth="yes"/>
      <point x="195" y="526"/>
      <point x="218" y="482"/>
      <point x="218" y="448" type="qcurve" smooth="yes"/>
      <point x="218" y="419"/>
      <point x="185" y="384"/>
    </contour>
    <contour>
      <point x="123" y="-137" type="qcurve"/>
      <point x="48" y="-137" type="line"/>
      <point x="111" y="-74"/>
      <point x="128" y="-9" type="qcurve"/>
      <point x="99" y="-3"/>
      <point x="82" y="33"/>
      <point x="82" y="66" type="qcurve" smooth="yes"/>
      <point x="82" y="93"/>
      <point x="113" y="130"/>
      <point x="150" y="130" type="qcurve" smooth="yes"/>
      <point x="195" y="130"/>
      <point x="218" y="83"/>
      <point x="218" y="50" type="qcurve" smooth="yes"/>
      <point x="218" y="5"/>
      <point x="168" y="-98"/>
    </contour>
  </outline>
</glyph>
<glyph name="tonosmod-grek" format="2">
  <advance width="600"/>
  <unicode hex="0384"/>
  <outline>
    <contour>
      <point x="340" y="583" type="line"/>
      <point x="273" y="592" type="line"/>
      <point x="304" y="789" type="line"/>
      <point x="397" y="776" type="line"/>
    </contour>
  </outline>
</glyph>
<glyph name="Alphatonos-grek" format="2">
  <advance width="662"/>
  <unicode hex="0386"/>
  <outline>
    <contour>
      <point x="630" y="0" type="line"/>
      <point x="524" y="0" type="line"/>
      <point x="459" y="196" type="line"/>
      <point x="189" y="196" type="line"/>
      <point x="124" y="0" type="line"/>
      <point x="22" y="0" type="line"/>
      <point x="263" y="698" type="line"/>
      <point x="390" y="698" type="line"/>
    </contour>
    <contour>
      <point x="434" y="284" type="line"/>
      <point x="326" y="605" type="line"/>
      <point x="321" y="605" type="line"/>
      <point x="213" y="284" type="line"/>
    </contour>
    <contour>
      <point x="102" y="583" type="line"/>
      <point x="35" y="592" type="line"/>
      <point x="66" y="789" type="line"/>
      <point x="159" y="776" type="line"/>
    </contour>
  </outline>
</glyph>
<glyph name="greekanoteleia" format="2">
  <advance width="301"/>
  <unicode hex="0387"/>
  <outline>
    <contour>
      <point x="151" y="384" type="qcurve"/>
      <point x="107" y="384"/>
      <point x="83" y="427"/>
      <point x="83" y="462" type="qcurve"/>
      <point x="83" y="489"/>
      <point x="114" y="526"/>
      <point x="151" y="526" type="qcurve"/>
      <point x="195" y="526"/>
      <point x="218" y="482"/>
      <point x="218" y="448" type="qcurve"/>
      <point x="218" y="419"/>
      <point x="185" y="384"/>
    </contour>
  </outline>
</glyph>
<glyph name="Epsilontonos-grek" format="2">
  <advance width="632"/>
  <unicode hex="0388"/>
  <outline>
    <contour>
      <point x="570" y="0" type="line"/>
      <point x="132" y="0" type="line"/>
      <point x="132" y="698" type="line"/>
      <point x="570" y="698" type="line"/>
      <point x="570" y="609" type="line"/>
      <point x="233" y="609" type="line"/>
      <point x="233" y="397" type="line"/>
      <point x="544" y="397" type="line"/>
      <point x="544" y="308" type="line"/>
      <point x="233" y="308" type="line"/>
      <point x="233" y="89" type="line"/>
      <point x="570" y="89" type="line"/>
    </contour>
    <contour>
      <point x="45" y="583" type="line"/>
      <point x="-22" y="592" type="line"/>
      <point x="9" y="789" type="line"/>
      <point x="102" y="776" type="line"/>
    </contour>
  </outline>
</glyph>
<glyph name="Omicrontonos-grek" format="2">
  <advance width="723"/>
  <unicode hex="038C"/>
  <outline>
    <contour>
      <point x="368" y="-12" type="qcurve"/>
      <point x="233" y="-12"/>
      <point x="69" y="171"/>
      <point x="69" y="349" type="qcurve"/>
      <point x="69" y="517"/>
      <point x="225" y="710"/>
      <point x="368" y="710" type="qcurve"/>
      <point x="456" y="710"/>
      <point x="591" y="628"/>
      <point x="666" y="467"/>
      <point x="666" y="349" type="qcurve"/>
      <point x="666" y="175"/>
      <point x="505" y="-12"/>
    </contour>
    <contour>
      <point x="368" y="78" type="qcurve"/>
      <point x="419" y="78"/>
      <point x="506" y="125"/>
      <point x="559" y="219"/>
      <point x="559" y="292" type="qcurve"/>
      <point x="559" y="401" type="line"/>
      <point x="559" y="495"/>
      <point x="460" y="620"/>
      <point x="368" y="620" type="qcurve"/>
      <point x="281" y="620"/>
      <point x="177" y="503"/>
      <point x="177" y="405" type="qcurve"/>
      <point x="177" y="297" type="line"/>
      <point x="177" y="198"/>
      <point x="278" y="78"/>
    </contour>
    <contour>
      <point x="45" y="583" type="line"/>
      <point x="-22" y="592" type="line"/>
      <point x="9" y="789" type="line"/>
      <point x="102" y="776" type="line"/>
    </contour>
  </outline>
</glyph>
